SplineFontDB: 3.2
FontName: Quicksand-Medium
FullName: Quicksand Medium
FamilyName: Quicksand Medium
Weight: Medium
Copyright: Copyright 2011 The Quicksand Project Authors (https://github.com/andrew-paglinawan/QuicksandFamily), with Reserved Font Name "Quicksand".
Version: 3.000
ItalicAngle: 0
UnderlinePosition: -100
UnderlineWidth: 50
Ascent: 800
Descent: 200
InvalidEm: 0
sfntRevision: 0x00030000
LayerCount: 2
Layer: 0 1 "Back" 1
Layer: 1 1 "Fore" 0
XUID: [1021 933 835020959 22279]
StyleMap: 0x0040
FSType: 0
OS2Version: 4
OS2_WeightWidthSlopeOnly: 0
OS2_UseTypoMetrics: 1
CreationTime: 1318445840
ModificationTime: 1772859386
PfmFamily: 81
TTFWeight: 500
TTFWidth: 5
LineGap: 0
VLineGap: 0
Panose: 0 0 6 0 0 0 0 0 0 0
OS2TypoAscent: 1000
OS2TypoAOffset: 0
OS2TypoDescent: -250
OS2TypoDOffset: 0
OS2TypoLinegap: 0
OS2WinAscent: 1183
OS2WinAOffset: 0
OS2WinDescent: 303
OS2WinDOffset: 0
HheadAscent: 1000
HheadAOffset: 0
HheadDescent: -250
HheadDOffset: 0
OS2SubXSize: 650
OS2SubYSize: 600
OS2SubXOff: 0
OS2SubYOff: 75
OS2SupXSize: 650
OS2SupYSize: 600
OS2SupXOff: 0
OS2SupYOff: 350
OS2StrikeYSize: 50
OS2StrikeYPos: 306
OS2CapHeight: 700
OS2XHeight: 511
OS2Vendor: 'PfEd'
OS2CodePages: 20000193.00000000
OS2UnicodeRanges: 2000000f.00000001.00000000.00000000
Lookup: 6 0 0 "'locl' Localized Forms in Latin lookup 0" { "'locl' Localized Forms in Latin lookup 0 contextual 0"  "'locl' Localized Forms in Latin lookup 0 contextual 1"  } ['locl' ('latn' <'CAT ' > ) ]
Lookup: 1 0 0 "'locl' Localized Forms in Latin lookup 1" { "'locl' Localized Forms in Latin lookup 1 subtable"  } ['locl' ('latn' <'ROM ' > ) ]
Lookup: 1 0 0 "'locl' Localized Forms in Latin lookup 2" { "'locl' Localized Forms in Latin lookup 2 subtable"  } ['locl' ('latn' <'MOL ' > ) ]
Lookup: 1 0 0 "'locl' Localized Forms in Latin lookup 3" { "'locl' Localized Forms in Latin lookup 3 subtable"  } ['locl' ('latn' <'KAZ ' > ) ]

StartChar: .notdef
Encoding: 65536 -1 0
Width: 584
Flags: W
LayerCount: 2
Fore
SplineSet
75 700 m 2,1,-1
 509 700 l 2,2,3
 544 700 544 700 544 665 c 2,4,-1
 544 35 l 2,5,6
 544 0 544 0 509 0 c 2,7,-1
 75 0 l 2,8,9
 40 0 40 0 40 35 c 2,10,-1
 40 665 l 2,11,0
 40 700 40 700 75 700 c 2,1,-1
91 668 m 128,-1,13
 90 666 90 666 92 664 c 2,14,-1
 508 65 l 2,15,16
 510 62 510 62 512 62.5 c 128,-1,17
 514 63 514 63 514 67 c 2,18,-1
 514 665 l 2,19,20
 514 670 514 670 509 670 c 2,21,-1
 95 670 l 2,22,12
 92 670 92 670 91 668 c 128,-1,13
75 30 m 2,24,-1
 488 30 l 2,25,26
 491 30 491 30 492 32 c 128,-1,27
 493 34 493 34 491 36 c 2,28,-1
 76 635 l 2,29,30
 74 638 74 638 72 637.5 c 128,-1,31
 70 637 70 637 70 633 c 2,32,-1
 70 35 l 2,33,23
 70 30 70 30 75 30 c 2,24,-1
EndSplineSet
EndChar

StartChar: A
Encoding: 65 65 4
Width: 642
GlyphClass: 2
Flags: W
AnchorPoint: "Anchor-8" 0 0 basechar 0
AnchorPoint: "Anchor-7" 0 0 basechar 0
AnchorPoint: "Anchor-6" 323 700 basechar 0
AnchorPoint: "Anchor-5" 581 10 basechar 0
AnchorPoint: "Anchor-4" 323 0 basechar 0
LayerCount: 2
Fore
SplineSet
624 43 m 0,1,2
 624 23 624 23 610.5 10 c 128,-1,3
 597 -3 597 -3 579 -3 c 0,4,5
 565 -3 565 -3 553.5 5.5 c 128,-1,6
 542 14 542 14 535 29 c 2,7,-1
 473 176 l 1,8,-1
 164 176 l 1,9,-1
 103 28 l 2,10,11
 98 13 98 13 86.5 5 c 128,-1,12
 75 -3 75 -3 61 -3 c 0,13,14
 40 -3 40 -3 29 8 c 128,-1,15
 18 19 18 19 18 38 c 0,16,17
 18 42 18 42 20 54 c 2,18,-1
 275 672 l 2,19,20
 282 688 282 688 294.5 696.5 c 128,-1,21
 307 705 307 705 323 703 c 0,22,23
 338 703 338 703 350 695 c 128,-1,24
 362 687 362 687 367 672 c 2,25,-1
 621 62 l 2,26,0
 624 53 624 53 624 43 c 0,1,2
435 267 m 1,27,-1
 318 547 l 1,28,-1
 202 267 l 1,29,-1
 435 267 l 1,27,-1
EndSplineSet
Substitution2: "Single Substitution lookup 20 subtable" ordfeminine
EndChar

StartChar: Aogonek
Encoding: 260 260 26
Width: 645
GlyphClass: 2
Flags: W
AnchorPoint: "Anchor-8" 0 0 basechar 0
AnchorPoint: "Anchor-7" 0 0 basechar 0
AnchorPoint: "Anchor-6" 323 700 basechar 0
AnchorPoint: "Anchor-5" 581 10 basechar 0
AnchorPoint: "Anchor-4" 323 0 basechar 0
LayerCount: 2
Fore
SplineSet
633 -106 m 128,-1,1
 643 -116 643 -116 643 -133 c 0,2,3
 643 -148 643 -148 628.5 -164 c 128,-1,4
 614 -180 614 -180 590.5 -190 c 128,-1,5
 567 -200 567 -200 541 -200 c 0,6,7
 494 -200 494 -200 462.5 -173.5 c 128,-1,8
 431 -147 431 -147 431 -98 c 256,9,10
 431 -49 431 -49 459 -18 c 128,-1,11
 487 13 487 13 533 33 c 1,12,-1
 473 176 l 1,13,-1
 164 176 l 1,14,-1
 103 28 l 2,15,16
 98 13 98 13 86.5 5 c 128,-1,17
 75 -3 75 -3 61 -3 c 0,18,19
 38 -3 38 -3 28.5 6.5 c 128,-1,20
 19 16 19 16 19 36 c 2,21,-1
 19 41 l 2,22,23
 19 49 19 49 22 56 c 2,24,-1
 275 672 l 2,25,26
 282 688 282 688 294.5 696.5 c 128,-1,27
 307 705 307 705 323 703 c 0,28,29
 338 703 338 703 350 695 c 128,-1,30
 362 687 362 687 367 672 c 2,31,-1
 628 44 l 2,32,33
 632 37 632 37 632 30 c 0,34,35
 632 19 632 19 625.5 10.5 c 128,-1,36
 619 2 619 2 606 -1 c 0,37,38
 566 -12 566 -12 539 -34 c 128,-1,39
 512 -56 512 -56 512 -81 c 0,40,41
 512 -102 512 -102 523 -113.5 c 128,-1,42
 534 -125 534 -125 549 -125 c 0,43,44
 565 -125 565 -125 574 -113 c 0,45,46
 586 -96 586 -96 608 -96 c 0,47,0
 623 -96 623 -96 633 -106 c 128,-1,1
435 267 m 1,48,-1
 318 547 l 1,49,-1
 202 267 l 1,50,-1
 435 267 l 1,48,-1
EndSplineSet
EndChar

StartChar: Aring
Encoding: 197 197 27
Width: 645
GlyphClass: 2
Flags: W
AnchorPoint: "Anchor-8" 0 0 basechar 0
AnchorPoint: "Anchor-7" 0 0 basechar 0
AnchorPoint: "Anchor-6" 323 853 basechar 0
AnchorPoint: "Anchor-5" 581 10 basechar 0
AnchorPoint: "Anchor-4" 0 0 basechar 0
LayerCount: 2
Fore
SplineSet
624 43 m 0,1,2
 624 23 624 23 610.5 10 c 128,-1,3
 597 -3 597 -3 579 -3 c 0,4,5
 565 -3 565 -3 553.5 5.5 c 128,-1,6
 542 14 542 14 535 29 c 2,7,-1
 473 176 l 1,8,-1
 164 176 l 1,9,-1
 103 28 l 2,10,11
 98 13 98 13 86.5 5 c 128,-1,12
 75 -3 75 -3 61 -3 c 0,13,14
 40 -3 40 -3 29 8 c 128,-1,15
 18 19 18 19 18 38 c 0,16,17
 18 42 18 42 20 54 c 2,18,-1
 270 660 l 1,19,20
 245 674 245 674 229.5 698.5 c 128,-1,21
 214 723 214 723 214 751 c 0,22,23
 214 794 214 794 246.5 825 c 128,-1,24
 279 856 279 856 323 856 c 0,25,26
 366 856 366 856 399 825 c 128,-1,27
 432 794 432 794 432 751 c 0,28,29
 432 722 432 722 415.5 697 c 128,-1,30
 399 672 399 672 373 658 c 1,31,-1
 621 62 l 2,32,0
 624 53 624 53 624 43 c 0,1,2
287.5 785 m 128,-1,34
 273 772 273 772 273 751 c 0,35,36
 273 731 273 731 287.5 717.5 c 128,-1,37
 302 704 302 704 323 704 c 256,38,39
 344 704 344 704 358.5 717.5 c 128,-1,40
 373 731 373 731 373 751 c 0,41,42
 373 772 373 772 358 785 c 128,-1,43
 343 798 343 798 323 798 c 0,44,33
 302 798 302 798 287.5 785 c 128,-1,34
435 267 m 1,45,-1
 318 547 l 1,46,-1
 202 267 l 1,47,-1
 435 267 l 1,45,-1
EndSplineSet
EndChar

StartChar: AE
Encoding: 198 198 30
Width: 899
GlyphClass: 2
Flags: W
AnchorPoint: "Anchor-8" 0 0 basechar 0
AnchorPoint: "Anchor-7" 0 0 basechar 0
AnchorPoint: "Anchor-6" 608 700 basechar 0
AnchorPoint: "Anchor-5" 0 0 basechar 0
AnchorPoint: "Anchor-4" 458 0 basechar 0
LayerCount: 2
Fore
SplineSet
842 78 m 128,-1,1
 856 64 856 64 856 45 c 0,2,3
 856 25 856 25 842 12.5 c 128,-1,4
 828 0 828 0 807 0 c 2,5,-1
 476 0 l 2,6,7
 456 0 456 0 442 14 c 128,-1,8
 428 28 428 28 428 48 c 2,9,-1
 428 154 l 1,10,-1
 179 154 l 1,11,-1
 85 16 l 2,12,13
 70 -4 70 -4 50 -4 c 0,14,15
 33 -4 33 -4 20 8 c 128,-1,16
 7 20 7 20 6 39 c 0,17,18
 5 54 5 54 15 71 c 2,19,-1
 440 679 l 2,20,21
 456 700 456 700 484 700 c 2,22,-1
 807 700 l 2,23,24
 828 700 828 700 842 687 c 128,-1,25
 856 674 856 674 856 653 c 0,26,27
 856 633 856 633 842 620.5 c 128,-1,28
 828 608 828 608 807 608 c 2,29,-1
 526 608 l 1,30,-1
 526 401 l 1,31,-1
 762 401 l 2,32,33
 783 401 783 401 797 388 c 128,-1,34
 811 375 811 375 811 354 c 0,35,36
 811 334 811 334 797 321.5 c 128,-1,37
 783 309 783 309 762 309 c 2,38,-1
 526 309 l 1,39,-1
 526 92 l 1,40,-1
 807 92 l 2,41,0
 828 92 828 92 842 78 c 128,-1,1
241 244 m 1,42,-1
 428 244 l 1,43,-1
 428 518 l 1,44,-1
 241 244 l 1,42,-1
EndSplineSet
EndChar

StartChar: B
Encoding: 66 66 32
Width: 653
GlyphClass: 2
Flags: W
AnchorPoint: "Anchor-8" 0 0 basechar 0
AnchorPoint: "Anchor-7" 0 0 basechar 0
AnchorPoint: "Anchor-6" 327 700 basechar 0
AnchorPoint: "Anchor-5" 0 0 basechar 0
AnchorPoint: "Anchor-4" 327 0 basechar 0
LayerCount: 2
Fore
SplineSet
574.5 319.5 m 128,-1,1
 610 276 610 276 610 206 c 0,2,3
 610 95 610 95 545.5 47.5 c 128,-1,4
 481 0 481 0 388 0 c 2,5,-1
 131 0 l 2,6,7
 111 0 111 0 97 14 c 128,-1,8
 83 28 83 28 83 48 c 2,9,-1
 83 652 l 2,10,11
 83 672 83 672 97 686 c 128,-1,12
 111 700 111 700 131 700 c 2,13,-1
 388 700 l 2,14,15
 479 700 479 700 526.5 655 c 128,-1,16
 574 610 574 610 574 525 c 0,17,18
 574 477 574 477 551 439.5 c 128,-1,19
 528 402 528 402 484 382 c 1,20,0
 539 363 539 363 574.5 319.5 c 128,-1,1
445.5 581.5 m 128,-1,22
 420 606 420 606 374 606 c 2,23,-1
 185 606 l 1,24,-1
 185 411 l 1,25,-1
 376 411 l 2,26,27
 417 412 417 412 444 437.5 c 128,-1,28
 471 463 471 463 471 510 c 256,29,21
 471 557 471 557 445.5 581.5 c 128,-1,22
475 120.5 m 128,-1,31
 508 149 508 149 508 206 c 0,32,33
 508 317 508 317 382 317 c 2,34,-1
 185 317 l 1,35,-1
 185 92 l 1,36,-1
 387 92 l 2,37,30
 442 92 442 92 475 120.5 c 128,-1,31
EndSplineSet
EndChar

StartChar: C
Encoding: 67 67 33
Width: 638
GlyphClass: 2
Flags: W
AnchorPoint: "Anchor-8" 0 0 basechar 0
AnchorPoint: "Anchor-7" 0 0 basechar 0
AnchorPoint: "Anchor-6" 375 700 basechar 0
AnchorPoint: "Anchor-5" 0 0 basechar 0
AnchorPoint: "Anchor-4" 392 0 basechar 0
LayerCount: 2
Fore
SplineSet
606 619 m 0,1,2
 606 601 606 601 594 586 c 0,3,4
 582 570 582 570 561 570 c 0,5,6
 547 570 547 570 534 577 c 0,7,8
 472 612 472 612 400 612 c 0,9,10
 325 612 325 612 267.5 579 c 128,-1,11
 210 546 210 546 178 486.5 c 128,-1,12
 146 427 146 427 146 350 c 0,13,14
 146 267 146 267 179 207 c 128,-1,15
 212 147 212 147 270 115.5 c 128,-1,16
 328 84 328 84 400 84 c 0,17,18
 474 84 474 84 534 120 c 0,19,20
 546 126 546 126 560 126 c 0,21,22
 582 126 582 126 595 109 c 0,23,24
 607 94 607 94 607 77 c 0,25,26
 607 65 607 65 600.5 54.5 c 128,-1,27
 594 44 594 44 583 38 c 0,28,29
 544 16 544 16 495.5 3 c 128,-1,30
 447 -10 447 -10 400 -10 c 0,31,32
 303 -10 303 -10 221.5 33 c 128,-1,33
 140 76 140 76 91.5 158 c 128,-1,34
 43 240 43 240 43 350 c 0,35,36
 43 451 43 451 89.5 532.5 c 128,-1,37
 136 614 136 614 217.5 660.5 c 128,-1,38
 299 707 299 707 400 707 c 0,39,40
 497 707 497 707 582 659 c 0,41,0
 606 646 606 646 606 619 c 0,1,2
EndSplineSet
EndChar

StartChar: Ccedilla
Encoding: 199 199 36
Width: 638
GlyphClass: 2
Flags: W
AnchorPoint: "Anchor-8" 0 0 basechar 0
AnchorPoint: "Anchor-7" 0 0 basechar 0
AnchorPoint: "Anchor-6" 0 0 basechar 0
AnchorPoint: "Anchor-5" 0 0 basechar 0
AnchorPoint: "Anchor-4" 364 -148 basechar 0
LayerCount: 2
Fore
SplineSet
607 77 m 0,1,2
 607 65 607 65 600.5 54.5 c 128,-1,3
 594 44 594 44 583 38 c 0,4,5
 547 18 547 18 502 5 c 128,-1,6
 457 -8 457 -8 412 -10 c 1,7,-1
 368 -121 l 2,8,9
 356 -148 356 -148 333 -148 c 0,10,11
 317 -148 317 -148 297 -136 c 128,-1,12
 277 -124 277 -124 277 -108 c 0,13,14
 277 -94 277 -94 287 -83 c 2,15,-1
 346 -6 l 1,16,17
 261 5 261 5 192 51 c 128,-1,18
 123 97 123 97 83 173.5 c 128,-1,19
 43 250 43 250 43 350 c 0,20,21
 43 451 43 451 89.5 532.5 c 128,-1,22
 136 614 136 614 217.5 660.5 c 128,-1,23
 299 707 299 707 400 707 c 0,24,25
 497 707 497 707 582 659 c 0,26,27
 606 646 606 646 606 619 c 0,28,29
 606 601 606 601 594 586 c 0,30,31
 582 570 582 570 561 570 c 0,32,33
 547 570 547 570 534 577 c 0,34,35
 472 612 472 612 400 612 c 0,36,37
 325 612 325 612 267.5 579 c 128,-1,38
 210 546 210 546 178 486.5 c 128,-1,39
 146 427 146 427 146 350 c 0,40,41
 146 267 146 267 179 207 c 128,-1,42
 212 147 212 147 270 115.5 c 128,-1,43
 328 84 328 84 400 84 c 0,44,45
 474 84 474 84 534 120 c 0,46,47
 546 126 546 126 560 126 c 0,48,49
 582 126 582 126 595 109 c 0,50,0
 607 94 607 94 607 77 c 0,1,2
EndSplineSet
EndChar

StartChar: uni1E08
Encoding: 7688 7688 37
Width: 638
GlyphClass: 2
Flags: W
AnchorPoint: "Anchor-8" 0 0 basechar 0
AnchorPoint: "Anchor-7" 0 0 basechar 0
AnchorPoint: "Anchor-6" 0 0 basechar 0
AnchorPoint: "Anchor-5" 0 0 basechar 0
AnchorPoint: "Anchor-4" 364 -148 basechar 0
LayerCount: 2
Fore
SplineSet
353 749 m 128,-1,1
 344 757 344 757 344 770 c 0,2,3
 344 781 344 781 357 793 c 2,4,-1
 444 866 l 2,5,6
 464 884 464 884 485 884 c 0,7,8
 501 884 501 884 514.5 872 c 128,-1,9
 528 860 528 860 528 843 c 0,10,11
 528 829 528 829 520.5 817.5 c 128,-1,12
 513 806 513 806 498 799 c 2,13,-1
 399 747 l 2,14,15
 389 741 389 741 377 741 c 0,16,0
 362 741 362 741 353 749 c 128,-1,1
607 77 m 0,18,19
 607 65 607 65 600.5 54.5 c 128,-1,20
 594 44 594 44 583 38 c 0,21,22
 547 18 547 18 502 5 c 128,-1,23
 457 -8 457 -8 412 -10 c 1,24,-1
 368 -121 l 2,25,26
 356 -148 356 -148 333 -148 c 0,27,28
 317 -148 317 -148 297 -136 c 128,-1,29
 277 -124 277 -124 277 -108 c 0,30,31
 277 -94 277 -94 287 -83 c 2,32,-1
 346 -6 l 1,33,34
 261 5 261 5 192 51 c 128,-1,35
 123 97 123 97 83 173.5 c 128,-1,36
 43 250 43 250 43 350 c 0,37,38
 43 451 43 451 89.5 532.5 c 128,-1,39
 136 614 136 614 217.5 660.5 c 128,-1,40
 299 707 299 707 400 707 c 0,41,42
 497 707 497 707 582 659 c 0,43,44
 606 646 606 646 606 619 c 0,45,46
 606 601 606 601 594 586 c 0,47,48
 582 570 582 570 561 570 c 0,49,50
 547 570 547 570 534 577 c 0,51,52
 472 612 472 612 400 612 c 0,53,54
 325 612 325 612 267.5 579 c 128,-1,55
 210 546 210 546 178 486.5 c 128,-1,56
 146 427 146 427 146 350 c 0,57,58
 146 267 146 267 179 207 c 128,-1,59
 212 147 212 147 270 115.5 c 128,-1,60
 328 84 328 84 400 84 c 0,61,62
 474 84 474 84 534 120 c 0,63,64
 546 126 546 126 560 126 c 0,65,66
 582 126 582 126 595 109 c 0,67,17
 607 94 607 94 607 77 c 0,18,19
EndSplineSet
EndChar

StartChar: D
Encoding: 68 68 40
Width: 717
GlyphClass: 2
Flags: W
AnchorPoint: "Anchor-8" 0 0 basechar 0
AnchorPoint: "Anchor-7" 131 350 basechar 0
AnchorPoint: "Anchor-6" 310 700 basechar 0
AnchorPoint: "Anchor-5" 0 0 basechar 0
AnchorPoint: "Anchor-4" 319 0 basechar 0
LayerCount: 2
Fore
SplineSet
538 653 m 128,-1,1
 605 606 605 606 639 526.5 c 128,-1,2
 673 447 673 447 673 350 c 0,3,4
 673 252 673 252 639 172.5 c 128,-1,5
 605 93 605 93 538 46.5 c 128,-1,6
 471 0 471 0 377 0 c 2,7,-1
 131 0 l 2,8,9
 111 0 111 0 97 14 c 128,-1,10
 83 28 83 28 83 48 c 2,11,-1
 83 652 l 2,12,13
 83 672 83 672 97 686 c 128,-1,14
 111 700 111 700 131 700 c 2,15,-1
 377 700 l 2,16,0
 471 700 471 700 538 653 c 128,-1,1
520 164.5 m 128,-1,18
 571 237 571 237 571 350 c 0,19,20
 571 462 571 462 519.5 535 c 128,-1,21
 468 608 468 608 367 608 c 2,22,-1
 182 608 l 1,23,-1
 182 92 l 1,24,-1
 367 92 l 2,25,17
 469 92 469 92 520 164.5 c 128,-1,18
EndSplineSet
EndChar

StartChar: Eth
Encoding: 208 208 42
Width: 717
GlyphClass: 2
Flags: W
AnchorPoint: "Anchor-8" 0 0 basechar 0
AnchorPoint: "Anchor-7" 131 350 basechar 0
AnchorPoint: "Anchor-6" 310 700 basechar 0
AnchorPoint: "Anchor-5" 0 0 basechar 0
AnchorPoint: "Anchor-4" 319 0 basechar 0
LayerCount: 2
Fore
SplineSet
538 653 m 128,-1,1
 605 606 605 606 639 526.5 c 128,-1,2
 673 447 673 447 673 350 c 0,3,4
 673 252 673 252 639 172.5 c 128,-1,5
 605 93 605 93 538 46.5 c 128,-1,6
 471 0 471 0 377 0 c 2,7,-1
 131 0 l 2,8,9
 111 0 111 0 97 14 c 128,-1,10
 83 28 83 28 83 48 c 2,11,-1
 83 308 l 1,12,-1
 53 308 l 2,13,14
 32 308 32 308 18.5 320.5 c 128,-1,15
 5 333 5 333 5 352 c 256,16,17
 5 371 5 371 18.5 383 c 128,-1,18
 32 395 32 395 53 395 c 2,19,-1
 83 395 l 1,20,-1
 83 652 l 2,21,22
 83 672 83 672 97 686 c 128,-1,23
 111 700 111 700 131 700 c 2,24,-1
 377 700 l 2,25,0
 471 700 471 700 538 653 c 128,-1,1
520 164.5 m 128,-1,27
 571 237 571 237 571 350 c 0,28,29
 571 462 571 462 519.5 535 c 128,-1,30
 468 608 468 608 367 608 c 2,31,-1
 182 608 l 1,32,-1
 182 395 l 1,33,-1
 223 395 l 2,34,35
 244 395 244 395 257.5 383 c 128,-1,36
 271 371 271 371 271 352 c 256,37,38
 271 333 271 333 257.5 320.5 c 128,-1,39
 244 308 244 308 223 308 c 2,40,-1
 182 308 l 1,41,-1
 182 92 l 1,42,-1
 367 92 l 2,43,26
 469 92 469 92 520 164.5 c 128,-1,27
EndSplineSet
EndChar

StartChar: E
Encoding: 69 69 49
Width: 570
GlyphClass: 2
Flags: W
AnchorPoint: "Anchor-8" 0 0 basechar 0
AnchorPoint: "Anchor-7" 0 0 basechar 0
AnchorPoint: "Anchor-6" 311 700 basechar 0
AnchorPoint: "Anchor-5" 452 10 basechar 0
AnchorPoint: "Anchor-4" 297 0 basechar 0
LayerCount: 2
Fore
SplineSet
513.5 78 m 128,-1,1
 527 64 527 64 527 45 c 0,2,3
 527 25 527 25 513.5 12.5 c 128,-1,4
 500 0 500 0 479 0 c 2,5,-1
 131 0 l 2,6,7
 111 0 111 0 97 14 c 128,-1,8
 83 28 83 28 83 48 c 2,9,-1
 83 652 l 2,10,11
 83 672 83 672 97 686 c 128,-1,12
 111 700 111 700 131 700 c 2,13,-1
 479 700 l 2,14,15
 500 700 500 700 513.5 687 c 128,-1,16
 527 674 527 674 527 653 c 0,17,18
 527 633 527 633 513.5 620.5 c 128,-1,19
 500 608 500 608 479 608 c 2,20,-1
 182 608 l 1,21,-1
 182 404 l 1,22,-1
 434 404 l 2,23,24
 455 404 455 404 468.5 391 c 128,-1,25
 482 378 482 378 482 358 c 0,26,27
 482 337 482 337 468.5 325 c 128,-1,28
 455 313 455 313 434 313 c 2,29,-1
 182 313 l 1,30,-1
 182 92 l 1,31,-1
 479 92 l 2,32,0
 500 92 500 92 513.5 78 c 128,-1,1
EndSplineSet
EndChar

StartChar: uni1E1C
Encoding: 7708 7708 53
Width: 570
GlyphClass: 2
Flags: W
AnchorPoint: "Anchor-8" 0 0 basechar 0
AnchorPoint: "Anchor-7" 0 0 basechar 0
AnchorPoint: "Anchor-6" 0 0 basechar 0
AnchorPoint: "Anchor-5" 452 10 basechar 0
AnchorPoint: "Anchor-4" 268 -148 basechar 0
LayerCount: 2
Fore
SplineSet
217.5 790 m 128,-1,1
 178 815 178 815 162 861 c 0,2,3
 158 870 158 870 158 879 c 0,4,5
 158 892 158 892 165.5 899 c 128,-1,6
 173 906 173 906 186 906 c 0,7,8
 202 906 202 906 211.5 899.5 c 128,-1,9
 221 893 221 893 234 876 c 0,10,11
 259 836 259 836 311 836 c 0,12,13
 366 836 366 836 388 876 c 0,14,15
 398 891 398 891 408.5 898 c 128,-1,16
 419 905 419 905 435 905 c 0,17,18
 449 905 449 905 456.5 898.5 c 128,-1,19
 464 892 464 892 464 879 c 0,20,21
 464 871 464 871 461 862 c 0,22,23
 445 816 445 816 405.5 790.5 c 128,-1,24
 366 765 366 765 311 765 c 0,25,0
 257 765 257 765 217.5 790 c 128,-1,1
513.5 78 m 128,-1,27
 527 64 527 64 527 45 c 0,28,29
 527 25 527 25 513.5 12.5 c 128,-1,30
 500 0 500 0 479 0 c 2,31,-1
 320 0 l 1,32,-1
 272 -121 l 2,33,34
 262 -148 262 -148 237 -148 c 0,35,36
 221 -148 221 -148 201 -136 c 128,-1,37
 181 -124 181 -124 181 -108 c 0,38,39
 181 -94 181 -94 191 -83 c 2,40,-1
 255 0 l 1,41,-1
 131 0 l 2,42,43
 111 0 111 0 97 14 c 128,-1,44
 83 28 83 28 83 48 c 2,45,-1
 83 652 l 2,46,47
 83 672 83 672 97 686 c 128,-1,48
 111 700 111 700 131 700 c 2,49,-1
 479 700 l 2,50,51
 500 700 500 700 513.5 687 c 128,-1,52
 527 674 527 674 527 653 c 0,53,54
 527 633 527 633 513.5 620.5 c 128,-1,55
 500 608 500 608 479 608 c 2,56,-1
 182 608 l 1,57,-1
 182 404 l 1,58,-1
 434 404 l 2,59,60
 455 404 455 404 468.5 391 c 128,-1,61
 482 378 482 378 482 358 c 0,62,63
 482 337 482 337 468.5 325 c 128,-1,64
 455 313 455 313 434 313 c 2,65,-1
 182 313 l 1,66,-1
 182 92 l 1,67,-1
 479 92 l 2,68,26
 500 92 500 92 513.5 78 c 128,-1,27
EndSplineSet
EndChar

StartChar: Eogonek
Encoding: 280 280 70
Width: 575
GlyphClass: 2
Flags: W
AnchorPoint: "Anchor-8" 0 0 basechar 0
AnchorPoint: "Anchor-7" 0 0 basechar 0
AnchorPoint: "Anchor-6" 294 700 basechar 0
AnchorPoint: "Anchor-5" 452 10 basechar 0
AnchorPoint: "Anchor-4" 297 0 basechar 0
LayerCount: 2
Fore
SplineSet
513.5 79 m 128,-1,1
 527 66 527 66 527 45 c 0,2,3
 527 26 527 26 514.5 15.5 c 128,-1,4
 502 5 502 5 479 0 c 0,5,6
 438 -8 438 -8 410.5 -30.5 c 128,-1,7
 383 -53 383 -53 383 -80 c 0,8,9
 383 -101 383 -101 394.5 -113 c 128,-1,10
 406 -125 406 -125 421 -125 c 0,11,12
 437 -125 437 -125 446 -113 c 0,13,14
 458 -96 458 -96 481 -96 c 0,15,16
 496 -96 496 -96 505.5 -106 c 128,-1,17
 515 -116 515 -116 515 -133 c 0,18,19
 515 -148 515 -148 500.5 -164 c 128,-1,20
 486 -180 486 -180 462.5 -190 c 128,-1,21
 439 -200 439 -200 413 -200 c 0,22,23
 366 -200 366 -200 334.5 -173.5 c 128,-1,24
 303 -147 303 -147 303 -98 c 0,25,26
 303 -41 303 -41 363 0 c 1,27,-1
 131 0 l 2,28,29
 111 0 111 0 97 14 c 128,-1,30
 83 28 83 28 83 48 c 2,31,-1
 83 652 l 2,32,33
 83 672 83 672 97 686 c 128,-1,34
 111 700 111 700 131 700 c 2,35,-1
 479 700 l 2,36,37
 500 700 500 700 513.5 687 c 128,-1,38
 527 674 527 674 527 653 c 0,39,40
 527 635 527 635 513.5 622 c 128,-1,41
 500 609 500 609 479 609 c 2,42,-1
 182 609 l 1,43,-1
 182 404 l 1,44,-1
 434 404 l 2,45,46
 455 404 455 404 468.5 391 c 128,-1,47
 482 378 482 378 482 358 c 0,48,49
 482 340 482 340 468 326.5 c 128,-1,50
 454 313 454 313 434 313 c 2,51,-1
 182 313 l 1,52,-1
 182 92 l 1,53,-1
 479 92 l 2,54,0
 500 92 500 92 513.5 79 c 128,-1,1
EndSplineSet
EndChar

StartChar: F
Encoding: 70 70 72
Width: 564
GlyphClass: 2
Flags: W
AnchorPoint: "Anchor-8" 0 0 basechar 0
AnchorPoint: "Anchor-7" 130 195 basechar 0
AnchorPoint: "Anchor-6" 282 700 basechar 0
AnchorPoint: "Anchor-5" 0 0 basechar 0
AnchorPoint: "Anchor-4" 282 0 basechar 0
LayerCount: 2
Fore
SplineSet
181 608 m 1,0,-1
 181 401 l 1,1,-1
 427 401 l 2,2,3
 448 401 448 401 461.5 388 c 128,-1,4
 475 375 475 375 475 354 c 0,5,6
 475 336 475 336 461.5 323 c 128,-1,7
 448 310 448 310 427 310 c 2,8,-1
 181 310 l 1,9,-1
 181 48 l 2,10,11
 181 28 181 28 166.5 14 c 128,-1,12
 152 0 152 0 132 0 c 0,13,14
 111 0 111 0 97 14 c 128,-1,15
 83 28 83 28 83 48 c 2,16,-1
 83 652 l 2,17,18
 83 672 83 672 97 686 c 128,-1,19
 111 700 111 700 131 700 c 2,20,-1
 472 700 l 2,21,22
 493 700 493 700 506.5 687 c 128,-1,23
 520 674 520 674 520 653 c 0,24,25
 520 635 520 635 506 621.5 c 128,-1,26
 492 608 492 608 472 608 c 2,27,-1
 181 608 l 1,0,-1
EndSplineSet
EndChar

StartChar: G
Encoding: 71 71 73
Width: 695
GlyphClass: 2
Flags: W
AnchorPoint: "Anchor-8" 0 0 basechar 0
AnchorPoint: "Anchor-7" 0 0 basechar 0
AnchorPoint: "Anchor-6" 385 700 basechar 0
AnchorPoint: "Anchor-5" 0 0 basechar 0
AnchorPoint: "Anchor-4" 398 0 basechar 0
LayerCount: 2
Fore
SplineSet
630.5 354 m 128,-1,1
 644 340 644 340 644 320 c 2,2,-1
 644 95 l 2,3,4
 644 68 644 68 620 53 c 0,5,6
 574 23 574 23 519 6.5 c 128,-1,7
 464 -10 464 -10 406 -10 c 0,8,9
 306 -10 306 -10 222.5 38 c 128,-1,10
 139 86 139 86 91 168.5 c 128,-1,11
 43 251 43 251 43 350 c 256,12,13
 43 449 43 449 91 531.5 c 128,-1,14
 139 614 139 614 222.5 662 c 128,-1,15
 306 710 306 710 406 710 c 0,16,17
 456 710 456 710 502.5 699 c 128,-1,18
 549 688 549 688 586 666 c 0,19,20
 598 659 598 659 604 649 c 128,-1,21
 610 639 610 639 610 627 c 0,22,23
 610 607 610 607 596.5 592.5 c 128,-1,24
 583 578 583 578 564 578 c 0,25,26
 549 578 549 578 538 585 c 0,27,28
 473 615 473 615 406 615 c 0,29,30
 334 615 334 615 274.5 580 c 128,-1,31
 215 545 215 545 180.5 484 c 128,-1,32
 146 423 146 423 146 350 c 256,33,34
 146 277 146 277 180.5 216.5 c 128,-1,35
 215 156 215 156 274.5 120.5 c 128,-1,36
 334 85 334 85 406 85 c 0,37,38
 440 85 440 85 477.5 93 c 128,-1,39
 515 101 515 101 542 114 c 1,40,-1
 542 273 l 1,41,-1
 421 273 l 2,42,43
 401 273 401 273 387 286.5 c 128,-1,44
 373 300 373 300 373 320 c 0,45,46
 373 341 373 341 387 354.5 c 128,-1,47
 401 368 401 368 421 368 c 2,48,-1
 597 368 l 2,49,0
 617 368 617 368 630.5 354 c 128,-1,1
EndSplineSet
EndChar

StartChar: H
Encoding: 72 72 80
Width: 719
GlyphClass: 2
Flags: W
AnchorPoint: "Anchor-8" 0 0 basechar 0
AnchorPoint: "Anchor-7" 360 350 basechar 0
AnchorPoint: "Anchor-6" 360 700 basechar 0
AnchorPoint: "Anchor-5" 0 0 basechar 0
AnchorPoint: "Anchor-4" 360 0 basechar 0
LayerCount: 2
Fore
SplineSet
623 686.5 m 128,-1,1
 637 673 637 673 637 652 c 2,2,-1
 637 49 l 2,3,4
 636 28 636 28 622 14 c 128,-1,5
 608 0 608 0 586 0 c 0,6,7
 566 0 566 0 551.5 14 c 128,-1,8
 537 28 537 28 537 49 c 2,9,-1
 537 308 l 1,10,-1
 182 308 l 1,11,-1
 182 49 l 2,12,13
 182 28 182 28 167 14 c 128,-1,14
 152 0 152 0 132 0 c 0,15,16
 110 0 110 0 96.5 14 c 128,-1,17
 83 28 83 28 83 49 c 2,18,-1
 83 652 l 2,19,20
 83 672 83 672 97 686 c 128,-1,21
 111 700 111 700 133 700 c 0,22,23
 153 700 153 700 167.5 686 c 128,-1,24
 182 672 182 672 182 652 c 2,25,-1
 182 400 l 1,26,-1
 537 400 l 1,27,-1
 537 652 l 2,28,29
 537 672 537 672 552 686 c 128,-1,30
 567 700 567 700 587 700 c 0,31,0
 609 700 609 700 623 686.5 c 128,-1,1
EndSplineSet
EndChar

StartChar: Hbar
Encoding: 294 294 81
Width: 816
GlyphClass: 2
Flags: W
AnchorPoint: "Anchor-8" 0 0 basechar 0
AnchorPoint: "Anchor-7" 408 350 basechar 0
AnchorPoint: "Anchor-6" 408 700 basechar 0
AnchorPoint: "Anchor-5" 0 0 basechar 0
AnchorPoint: "Anchor-4" 408 0 basechar 0
LayerCount: 2
Fore
SplineSet
746 559.5 m 128,-1,1
 758 548 758 548 758 530 c 0,2,3
 758 513 758 513 746 501.5 c 128,-1,4
 734 490 734 490 716 490 c 2,5,-1
 685 490 l 1,6,-1
 685 49 l 2,7,8
 685 28 685 28 670.5 14 c 128,-1,9
 656 0 656 0 634 0 c 0,10,11
 614 0 614 0 600 14 c 128,-1,12
 586 28 586 28 586 49 c 2,13,-1
 586 308 l 1,14,-1
 230 308 l 1,15,-1
 230 49 l 2,16,17
 230 28 230 28 215 14 c 128,-1,18
 200 0 200 0 180 0 c 0,19,20
 158 0 158 0 144.5 14 c 128,-1,21
 131 28 131 28 131 49 c 2,22,-1
 131 490 l 1,23,-1
 100 490 l 2,24,25
 82 490 82 490 70.5 501.5 c 128,-1,26
 59 513 59 513 59 531 c 0,27,28
 59 548 59 548 70.5 559.5 c 128,-1,29
 82 571 82 571 100 571 c 2,30,-1
 131 571 l 1,31,-1
 131 652 l 2,32,33
 131 672 131 672 145.5 686 c 128,-1,34
 160 700 160 700 182 700 c 0,35,36
 201 700 201 700 215.5 686 c 128,-1,37
 230 672 230 672 230 652 c 2,38,-1
 230 571 l 1,39,-1
 586 571 l 1,40,-1
 586 652 l 2,41,42
 586 672 586 672 601 686 c 128,-1,43
 616 700 616 700 636 700 c 0,44,45
 658 700 658 700 671.5 686.5 c 128,-1,46
 685 673 685 673 685 652 c 2,47,-1
 685 571 l 1,48,-1
 716 571 l 2,49,0
 734 571 734 571 746 559.5 c 128,-1,1
586 490 m 1,50,-1
 230 490 l 1,51,-1
 230 400 l 1,52,-1
 586 400 l 1,53,-1
 586 490 l 1,50,-1
EndSplineSet
EndChar

StartChar: I
Encoding: 73 73 85
Width: 265
GlyphClass: 2
Flags: W
AnchorPoint: "Anchor-8" 0 0 basechar 0
AnchorPoint: "Anchor-7" 0 0 basechar 0
AnchorPoint: "Anchor-6" 134 700 basechar 0
AnchorPoint: "Anchor-5" 241 10 basechar 0
AnchorPoint: "Anchor-4" 134 0 basechar 0
LayerCount: 2
Fore
SplineSet
167 14 m 128,-1,1
 152 0 152 0 132 0 c 0,2,3
 110 0 110 0 96.5 14 c 128,-1,4
 83 28 83 28 83 49 c 2,5,-1
 83 652 l 2,6,7
 83 672 83 672 97 686 c 128,-1,8
 111 700 111 700 133 700 c 0,9,10
 153 700 153 700 167.5 686 c 128,-1,11
 182 672 182 672 182 652 c 2,12,-1
 182 49 l 2,13,0
 182 28 182 28 167 14 c 128,-1,1
EndSplineSet
EndChar

StartChar: IJ
Encoding: 306 306 86
Width: 592
GlyphClass: 2
Flags: W
AnchorPoint: "Anchor-8" 0 0 basechar 0
AnchorPoint: "Anchor-7" 0 0 basechar 0
AnchorPoint: "Anchor-6" 79 700 basechar 0
AnchorPoint: "Anchor-5" 78 10 basechar 0
AnchorPoint: "Anchor-4" -29 164 basechar 0
LayerCount: 2
Fore
SplineSet
170.5 18 m 128,-1,1
 121 46 121 46 92 95 c 0,2,3
 83 109 83 109 83 122 c 0,4,5
 83 141 83 141 98 154.5 c 128,-1,6
 113 168 113 168 129 168 c 0,7,8
 152 168 152 168 173 143 c 0,9,10
 214 85 214 85 279 85 c 0,11,12
 334 85 334 85 372 122 c 128,-1,13
 410 159 410 159 410 213 c 2,14,-1
 410 652 l 2,15,16
 410 672 410 672 425 686 c 128,-1,17
 440 700 440 700 460 700 c 0,18,19
 482 700 482 700 495.5 686.5 c 128,-1,20
 509 673 509 673 509 652 c 2,21,-1
 509 213 l 2,22,23
 509 152 509 152 479 101 c 128,-1,24
 449 50 449 50 396 20 c 128,-1,25
 343 -10 343 -10 279 -10 c 0,26,0
 220 -10 220 -10 170.5 18 c 128,-1,1
176 261 m 128,-1,28
 161 247 161 247 141 247 c 0,29,30
 119 247 119 247 105.5 260.5 c 128,-1,31
 92 274 92 274 92 295 c 2,32,-1
 92 652 l 2,33,34
 92 672 92 672 106.5 686 c 128,-1,35
 121 700 121 700 143 700 c 0,36,37
 162 700 162 700 176.5 686 c 128,-1,38
 191 672 191 672 191 652 c 2,39,-1
 191 295 l 2,40,27
 191 275 191 275 176 261 c 128,-1,28
EndSplineSet
EndChar

StartChar: Iogonek
Encoding: 302 302 100
Width: 261
GlyphClass: 2
Flags: W
AnchorPoint: "Anchor-8" 0 0 basechar 0
AnchorPoint: "Anchor-7" 0 0 basechar 0
AnchorPoint: "Anchor-6" 133 700 basechar 0
AnchorPoint: "Anchor-5" 241 10 basechar 0
AnchorPoint: "Anchor-4" 134 0 basechar 0
LayerCount: 2
Fore
SplineSet
189 -106 m 128,-1,1
 199 -116 199 -116 199 -133 c 0,2,3
 199 -148 199 -148 184.5 -164 c 128,-1,4
 170 -180 170 -180 146.5 -190 c 128,-1,5
 123 -200 123 -200 97 -200 c 0,6,7
 50 -200 50 -200 18.5 -173.5 c 128,-1,8
 -13 -147 -13 -147 -13 -98 c 0,9,10
 -13 -13 -13 -13 82 31 c 1,11,-1
 82 652 l 2,12,13
 82 672 82 672 97 686 c 128,-1,14
 112 700 112 700 134 700 c 256,15,16
 156 700 156 700 170.5 686 c 128,-1,17
 185 672 185 672 185 652 c 2,18,-1
 185 33 l 2,19,20
 185 9 185 9 161 1 c 0,21,22
 120 -12 120 -12 93.5 -33 c 128,-1,23
 67 -54 67 -54 67 -80 c 0,24,25
 67 -101 67 -101 78.5 -113 c 128,-1,26
 90 -125 90 -125 105 -125 c 0,27,28
 114 -125 114 -125 121 -121 c 128,-1,29
 128 -117 128 -117 135 -110 c 0,30,31
 143 -103 143 -103 149 -99.5 c 128,-1,32
 155 -96 155 -96 164 -96 c 0,33,0
 179 -96 179 -96 189 -106 c 128,-1,1
EndSplineSet
EndChar

StartChar: J
Encoding: 74 74 102
Width: 560
GlyphClass: 2
Flags: W
AnchorPoint: "Anchor-8" 0 0 basechar 0
AnchorPoint: "Anchor-7" 0 0 basechar 0
AnchorPoint: "Anchor-6" 428 700 basechar 0
AnchorPoint: "Anchor-5" 0 0 basechar 0
AnchorPoint: "Anchor-4" 280 0 basechar 0
LayerCount: 2
Fore
SplineSet
138.5 18 m 128,-1,1
 89 46 89 46 60 95 c 0,2,3
 51 109 51 109 51 122 c 0,4,5
 51 141 51 141 66 154.5 c 128,-1,6
 81 168 81 168 97 168 c 0,7,8
 119 168 119 168 142 143 c 1,9,10
 181 85 181 85 247 85 c 0,11,12
 302 85 302 85 340 122 c 128,-1,13
 378 159 378 159 378 213 c 2,14,-1
 378 652 l 2,15,16
 378 672 378 672 393 686 c 128,-1,17
 408 700 408 700 428 700 c 0,18,19
 450 700 450 700 463.5 686.5 c 128,-1,20
 477 673 477 673 477 652 c 2,21,-1
 477 213 l 2,22,23
 477 152 477 152 447 101 c 128,-1,24
 417 50 417 50 364.5 20 c 128,-1,25
 312 -10 312 -10 247 -10 c 0,26,0
 188 -10 188 -10 138.5 18 c 128,-1,1
EndSplineSet
EndChar

StartChar: K
Encoding: 75 75 104
Width: 663
GlyphClass: 2
Flags: W
AnchorPoint: "Anchor-8" 0 0 basechar 0
AnchorPoint: "Anchor-7" 0 0 basechar 0
AnchorPoint: "Anchor-6" 332 700 basechar 0
AnchorPoint: "Anchor-5" 0 0 basechar 0
AnchorPoint: "Anchor-4" 319 0 basechar 0
LayerCount: 2
Fore
SplineSet
626 48 m 0,1,2
 626 26 626 26 609.5 12 c 128,-1,3
 593 -2 593 -2 572 -2 c 0,4,5
 552 -2 552 -2 537 16 c 2,6,-1
 294 329 l 1,7,-1
 182 223 l 1,8,-1
 182 49 l 2,9,10
 182 28 182 28 168 14 c 128,-1,11
 154 0 154 0 132 0 c 256,12,13
 110 0 110 0 96.5 14 c 128,-1,14
 83 28 83 28 83 49 c 2,15,-1
 83 652 l 2,16,17
 83 672 83 672 97 686 c 128,-1,18
 111 700 111 700 133 700 c 256,19,20
 155 700 155 700 168.5 686.5 c 128,-1,21
 182 673 182 673 182 652 c 2,22,-1
 182 341 l 1,23,-1
 537 685 l 2,24,25
 556 702 556 702 575 702 c 0,26,27
 593 702 593 702 606 687 c 128,-1,28
 619 672 619 672 619 655 c 0,29,30
 619 640 619 640 605 624 c 2,31,-1
 368 400 l 1,32,-1
 615 81 l 2,33,0
 626 67 626 67 626 48 c 0,1,2
EndSplineSet
EndChar

StartChar: L
Encoding: 76 76 106
Width: 550
GlyphClass: 2
Flags: W
AnchorPoint: "Anchor-8" 530 700 basechar 0
AnchorPoint: "Anchor-7" 275 350 basechar 0
AnchorPoint: "Anchor-6" 125 700 basechar 0
AnchorPoint: "Anchor-5" 0 0 basechar 0
AnchorPoint: "Anchor-4" 283 0 basechar 0
LayerCount: 2
Fore
SplineSet
503.5 80 m 128,-1,1
 517 67 517 67 517 46 c 0,2,3
 517 26 517 26 503.5 13 c 128,-1,4
 490 0 490 0 469 0 c 2,5,-1
 131 0 l 2,6,7
 110 0 110 0 96.5 14 c 128,-1,8
 83 28 83 28 83 48 c 2,9,-1
 83 652 l 2,10,11
 83 672 83 672 97 686 c 128,-1,12
 111 700 111 700 133 700 c 0,13,14
 153 700 153 700 167.5 686 c 128,-1,15
 182 672 182 672 182 652 c 2,16,-1
 182 93 l 1,17,-1
 469 93 l 2,18,0
 490 93 490 93 503.5 80 c 128,-1,1
EndSplineSet
EndChar

StartChar: Lcaron
Encoding: 317 317 109
Width: 550
Flags: W
LayerCount: 2
Fore
SplineSet
503.5 81 m 128,-1,1
 517 67 517 67 517 47 c 256,2,3
 517 27 517 27 503.5 13.5 c 128,-1,4
 490 0 490 0 469 0 c 2,5,-1
 131 0 l 2,6,7
 110 0 110 0 96.5 14 c 128,-1,8
 83 28 83 28 83 48 c 2,9,-1
 83 652 l 2,10,11
 83 672 83 672 97 686 c 128,-1,12
 111 700 111 700 131 700 c 256,13,14
 151 700 151 700 164.5 686 c 128,-1,15
 178 672 178 672 178 652 c 2,16,-1
 178 103 l 2,17,18
 178 95 178 95 186 95 c 2,19,-1
 469 95 l 2,20,0
 490 95 490 95 503.5 81 c 128,-1,1
500 543.5 m 128,-1,22
 484 511 484 511 459.5 488.5 c 128,-1,23
 435 466 435 466 409 466 c 0,24,25
 392 466 392 466 381 474.5 c 128,-1,26
 370 483 370 483 370 499 c 0,27,28
 370 512 370 512 377 518 c 128,-1,29
 384 524 384 524 393.5 527 c 128,-1,30
 403 530 403 530 408 532 c 0,31,32
 436 546 436 546 436 576 c 0,33,34
 436 587 436 587 427.5 595 c 128,-1,35
 419 603 419 603 405 603 c 0,36,37
 389 603 389 603 378 595 c 1,38,39
 368 600 368 600 363 607.5 c 128,-1,40
 358 615 358 615 358 628 c 0,41,42
 359 652 359 652 384 670.5 c 128,-1,43
 409 689 409 689 437 689 c 0,44,45
 474 689 474 689 495 666 c 128,-1,46
 516 643 516 643 516 602 c 0,47,21
 516 576 516 576 500 543.5 c 128,-1,22
EndSplineSet
EndChar

StartChar: Lslash
Encoding: 321 321 115
Width: 611
Flags: W
LayerCount: 2
Fore
SplineSet
564.5 81 m 128,-1,1
 578 67 578 67 578 47 c 256,2,3
 578 27 578 27 564.5 13.5 c 128,-1,4
 551 0 551 0 530 0 c 2,5,-1
 192 0 l 2,6,7
 171 0 171 0 157.5 14 c 128,-1,8
 144 28 144 28 144 48 c 2,9,-1
 144 318 l 1,10,-1
 98 298 l 2,11,12
 86 294 86 294 80 294 c 0,13,14
 61 294 61 294 50.5 307.5 c 128,-1,15
 40 321 40 321 40 337 c 0,16,17
 40 348 40 348 46.5 358 c 128,-1,18
 53 368 53 368 65 373 c 2,19,-1
 144 408 l 1,20,-1
 144 652 l 2,21,22
 144 672 144 672 158 686 c 128,-1,23
 172 700 172 700 192 700 c 256,24,25
 212 700 212 700 225.5 686 c 128,-1,26
 239 672 239 672 239 652 c 2,27,-1
 239 450 l 1,28,-1
 330 490 l 2,29,30
 338 494 338 494 349 494 c 0,31,32
 368 494 368 494 378.5 480.5 c 128,-1,33
 389 467 389 467 389 452 c 0,34,35
 389 428 389 428 363 415 c 2,36,-1
 239 360 l 1,37,-1
 239 95 l 1,38,-1
 530 95 l 2,39,0
 551 95 551 95 564.5 81 c 128,-1,1
EndSplineSet
EndChar

StartChar: M
Encoding: 77 77 116
Width: 822
GlyphClass: 2
Flags: W
AnchorPoint: "Anchor-8" 0 0 basechar 0
AnchorPoint: "Anchor-7" 0 0 basechar 0
AnchorPoint: "Anchor-6" 412 700 basechar 0
AnchorPoint: "Anchor-5" 0 0 basechar 0
AnchorPoint: "Anchor-4" 412 0 basechar 0
LayerCount: 2
Fore
SplineSet
725 686.5 m 128,-1,1
 739 673 739 673 739 653 c 2,2,-1
 739 48 l 2,3,4
 739 28 739 28 725.5 14 c 128,-1,5
 712 0 712 0 690 0 c 256,6,7
 668 0 668 0 654 13.5 c 128,-1,8
 640 27 640 27 640 48 c 2,9,-1
 640 511 l 1,10,-1
 446 217 l 2,11,12
 439 208 439 208 428.5 202 c 128,-1,13
 418 196 418 196 407 197 c 0,14,15
 397 196 397 196 386.5 202 c 128,-1,16
 376 208 376 208 369 217 c 2,17,-1
 174 520 l 1,18,-1
 174 48 l 2,19,20
 174 27 174 27 161.5 13.5 c 128,-1,21
 149 0 149 0 128 0 c 0,22,23
 108 0 108 0 95.5 13.5 c 128,-1,24
 83 27 83 27 83 48 c 2,25,-1
 83 653 l 2,26,27
 83 672 83 672 97 686.5 c 128,-1,28
 111 701 111 701 132 701 c 0,29,30
 144 701 144 701 155.5 695 c 128,-1,31
 167 689 167 689 174 679 c 2,32,-1
 411 320 l 1,33,-1
 651 679 l 2,34,35
 667 701 667 701 691 701 c 0,36,0
 711 700 711 700 725 686.5 c 128,-1,1
EndSplineSet
EndChar

StartChar: N
Encoding: 78 78 118
Width: 732
GlyphClass: 2
Flags: W
AnchorPoint: "Anchor-8" 0 0 basechar 0
AnchorPoint: "Anchor-7" 0 0 basechar 0
AnchorPoint: "Anchor-6" 366 700 basechar 0
AnchorPoint: "Anchor-5" 0 0 basechar 0
AnchorPoint: "Anchor-4" 366 0 basechar 0
LayerCount: 2
Fore
SplineSet
637 687.5 m 128,-1,1
 649 675 649 675 649 656 c 2,2,-1
 649 49 l 2,3,4
 649 28 649 28 635.5 14 c 128,-1,5
 622 0 622 0 601 0 c 0,6,7
 590 0 590 0 579.5 3.5 c 128,-1,8
 569 7 569 7 563 14 c 2,9,-1
 170 526 l 1,10,-1
 170 44 l 2,11,12
 170 25 170 25 157.5 12.5 c 128,-1,13
 145 0 145 0 126 0 c 256,14,15
 107 0 107 0 95 12.5 c 128,-1,16
 83 25 83 25 83 44 c 2,17,-1
 83 652 l 2,18,19
 83 673 83 673 96.5 686.5 c 128,-1,20
 110 700 110 700 130 700 c 0,21,22
 142 700 142 700 153 695.5 c 128,-1,23
 164 691 164 691 170 683 c 2,24,-1
 562 170 l 1,25,-1
 562 656 l 2,26,27
 562 675 562 675 574.5 687.5 c 128,-1,28
 587 700 587 700 606 700 c 256,29,0
 625 700 625 700 637 687.5 c 128,-1,1
EndSplineSet
EndChar

StartChar: Eng
Encoding: 330 330 125
Width: 752
Flags: W
LayerCount: 2
Fore
SplineSet
655.5 685 m 128,-1,1
 669 671 669 671 669 651 c 2,2,-1
 669 -23 l 2,3,4
 669 -111 669 -111 622.5 -155.5 c 128,-1,5
 576 -200 576 -200 496 -200 c 0,6,7
 472 -200 472 -200 457 -189 c 128,-1,8
 442 -178 442 -178 442 -158 c 0,9,10
 442 -139 442 -139 455 -126 c 128,-1,11
 468 -113 468 -113 488 -112 c 0,12,13
 535 -111 535 -111 554.5 -90.5 c 128,-1,14
 574 -70 574 -70 574 -27 c 2,15,-1
 574 29 l 1,16,-1
 178 524 l 1,17,-1
 178 48 l 2,18,19
 178 28 178 28 164 14 c 128,-1,20
 150 0 150 0 130 0 c 256,21,22
 110 0 110 0 96.5 14 c 128,-1,23
 83 28 83 28 83 48 c 2,24,-1
 83 652 l 2,25,26
 83 673 83 673 97 686.5 c 128,-1,27
 111 700 111 700 131 700 c 0,28,29
 155 700 155 700 171 679 c 2,30,-1
 574 174 l 1,31,-1
 574 651 l 2,32,33
 574 671 574 671 588 685 c 128,-1,34
 602 699 602 699 622 699 c 256,35,0
 642 699 642 699 655.5 685 c 128,-1,1
EndSplineSet
EndChar

StartChar: uni019D
Encoding: 413 413 126
Width: 732
GlyphClass: 2
Flags: W
AnchorPoint: "Anchor-8" 0 0 basechar 0
AnchorPoint: "Anchor-7" 0 0 basechar 0
AnchorPoint: "Anchor-6" 320 700 basechar 0
AnchorPoint: "Anchor-5" 0 0 basechar 0
AnchorPoint: "Anchor-4" 320 0 basechar 0
LayerCount: 2
Fore
SplineSet
636.5 687.5 m 128,-1,1
 649 675 649 675 649 656 c 2,2,-1
 649 49 l 2,3,4
 649 28 649 28 635.5 14 c 128,-1,5
 622 0 622 0 601 0 c 0,6,7
 590 0 590 0 579.5 3.5 c 128,-1,8
 569 7 569 7 563 14 c 2,9,-1
 173 522 l 1,10,-1
 173 -25 l 2,11,12
 173 -123 173 -123 123 -157.5 c 128,-1,13
 73 -192 73 -192 22 -197 c 0,14,15
 3 -197 3 -197 -10 -184 c 128,-1,16
 -23 -171 -23 -171 -23 -153 c 0,17,18
 -23 -129 -23 -129 -13 -118 c 128,-1,19
 -3 -107 -3 -107 18 -101 c 0,20,21
 83 -84 83 -84 83 -1 c 2,22,-1
 83 652 l 2,23,24
 83 673 83 673 96.5 686.5 c 128,-1,25
 110 700 110 700 130 700 c 0,26,27
 142 700 142 700 153 695.5 c 128,-1,28
 164 691 164 691 170 683 c 2,29,-1
 559 174 l 1,30,-1
 559 656 l 2,31,32
 559 675 559 675 572 687.5 c 128,-1,33
 585 700 585 700 605 700 c 0,34,0
 624 700 624 700 636.5 687.5 c 128,-1,1
EndSplineSet
EndChar

StartChar: O
Encoding: 79 79 130
Width: 762
GlyphClass: 2
Flags: W
AnchorPoint: "Anchor-8" 383 706 basechar 0
AnchorPoint: "Anchor-7" 381 350 basechar 0
AnchorPoint: "Anchor-6" 381 700 basechar 0
AnchorPoint: "Anchor-5" 686 10 basechar 0
AnchorPoint: "Anchor-4" 381 0 basechar 0
LayerCount: 2
Fore
SplineSet
675.5 167 m 128,-1,1
 632 85 632 85 555 37.5 c 128,-1,2
 478 -10 478 -10 381 -10 c 256,3,4
 284 -10 284 -10 207 37.5 c 128,-1,5
 130 85 130 85 86.5 167 c 128,-1,6
 43 249 43 249 43 350 c 256,7,8
 43 451 43 451 86.5 533 c 128,-1,9
 130 615 130 615 207 662.5 c 128,-1,10
 284 710 284 710 381 710 c 256,11,12
 478 710 478 710 555 662.5 c 128,-1,13
 632 615 632 615 675.5 533 c 128,-1,14
 719 451 719 451 719 350 c 256,15,0
 719 249 719 249 675.5 167 c 128,-1,1
586 485.5 m 128,-1,17
 556 546 556 546 502.5 580.5 c 128,-1,18
 449 615 449 615 381 615 c 256,19,20
 313 615 313 615 259.5 581 c 128,-1,21
 206 547 206 547 176 486.5 c 128,-1,22
 146 426 146 426 146 350 c 0,23,24
 146 275 146 275 176 214.5 c 128,-1,25
 206 154 206 154 259.5 119.5 c 128,-1,26
 313 85 313 85 381 85 c 256,27,28
 449 85 449 85 502.5 119.5 c 128,-1,29
 556 154 556 154 586 214.5 c 128,-1,30
 616 275 616 275 616 350 c 256,31,16
 616 425 616 425 586 485.5 c 128,-1,17
EndSplineSet
Substitution2: "Single Substitution lookup 20 subtable" ordmasculine
EndChar

StartChar: Ohorn
Encoding: 416 416 147
Width: 762
GlyphClass: 2
Flags: W
AnchorPoint: "Anchor-8" 383 706 basechar 0
AnchorPoint: "Anchor-7" 381 350 basechar 0
AnchorPoint: "Anchor-6" 381 700 basechar 0
AnchorPoint: "Anchor-5" 686 10 basechar 0
AnchorPoint: "Anchor-4" 381 0 basechar 0
LayerCount: 2
Fore
SplineSet
680 523 m 128,-1,1
 719 444 719 444 719 350 c 0,2,3
 719 249 719 249 675.5 167 c 128,-1,4
 632 85 632 85 555 37.5 c 128,-1,5
 478 -10 478 -10 381 -10 c 256,6,7
 284 -10 284 -10 207 37.5 c 128,-1,8
 130 85 130 85 86.5 167 c 128,-1,9
 43 249 43 249 43 350 c 256,10,11
 43 451 43 451 86.5 533 c 128,-1,12
 130 615 130 615 207 662.5 c 128,-1,13
 284 710 284 710 381 710 c 0,14,15
 427 710 427 710 471 698 c 1,16,17
 546 704 546 704 546 766 c 0,18,19
 546 784 546 784 556.5 798 c 128,-1,20
 567 812 567 812 586 812 c 0,21,22
 607 812 607 812 616.5 798 c 128,-1,23
 626 784 626 784 626 766 c 0,24,25
 626 730 626 730 612.5 700 c 128,-1,26
 599 670 599 670 573 650 c 1,27,0
 641 602 641 602 680 523 c 128,-1,1
502.5 119.5 m 128,-1,29
 556 154 556 154 586 214.5 c 128,-1,30
 616 275 616 275 616 350 c 256,31,32
 616 425 616 425 586 485.5 c 128,-1,33
 556 546 556 546 502.5 580.5 c 128,-1,34
 449 615 449 615 381 615 c 256,35,36
 313 615 313 615 259.5 581 c 128,-1,37
 206 547 206 547 176 486.5 c 128,-1,38
 146 426 146 426 146 350 c 0,39,40
 146 275 146 275 176 214.5 c 128,-1,41
 206 154 206 154 259.5 119.5 c 128,-1,42
 313 85 313 85 381 85 c 256,43,28
 449 85 449 85 502.5 119.5 c 128,-1,29
EndSplineSet
EndChar

StartChar: uni01EA
Encoding: 490 490 158
Width: 762
GlyphClass: 2
Flags: W
AnchorPoint: "Anchor-8" 383 706 basechar 0
AnchorPoint: "Anchor-7" 381 350 basechar 0
AnchorPoint: "Anchor-6" 381 700 basechar 0
AnchorPoint: "Anchor-5" 686 10 basechar 0
AnchorPoint: "Anchor-4" 381 0 basechar 0
LayerCount: 2
Fore
SplineSet
402.5 -36 m 128,-1,1
 385 -57 385 -57 385 -80 c 0,2,3
 385 -101 385 -101 396 -113 c 128,-1,4
 407 -125 407 -125 423 -125 c 0,5,6
 438 -125 438 -125 446 -114 c 0,7,8
 460 -96 460 -96 482 -96 c 0,9,10
 497 -96 497 -96 507 -106 c 128,-1,11
 517 -116 517 -116 517 -133 c 0,12,13
 517 -148 517 -148 502.5 -164 c 128,-1,14
 488 -180 488 -180 464.5 -190 c 128,-1,15
 441 -200 441 -200 415 -200 c 0,16,17
 368 -200 368 -200 336.5 -173.5 c 128,-1,18
 305 -147 305 -147 305 -98 c 0,19,20
 305 -46 305 -46 340 -8 c 1,21,22
 254 2 254 2 186 51.5 c 128,-1,23
 118 101 118 101 80.5 179 c 128,-1,24
 43 257 43 257 43 350 c 0,25,26
 43 451 43 451 86.5 533 c 128,-1,27
 130 615 130 615 207 662.5 c 128,-1,28
 284 710 284 710 381 710 c 256,29,30
 478 710 478 710 555 662.5 c 128,-1,31
 632 615 632 615 675.5 533 c 128,-1,32
 719 451 719 451 719 350 c 0,33,34
 719 263 719 263 685.5 188.5 c 128,-1,35
 652 114 652 114 591.5 64 c 128,-1,36
 531 14 531 14 453 -3 c 1,37,0
 420 -15 420 -15 402.5 -36 c 128,-1,1
176 214.5 m 128,-1,39
 206 154 206 154 259.5 119.5 c 128,-1,40
 313 85 313 85 381 85 c 256,41,42
 449 85 449 85 502.5 119.5 c 128,-1,43
 556 154 556 154 586 214.5 c 128,-1,44
 616 275 616 275 616 350 c 256,45,46
 616 425 616 425 586 485.5 c 128,-1,47
 556 546 556 546 502.5 580.5 c 128,-1,48
 449 615 449 615 381 615 c 256,49,50
 313 615 313 615 259.5 581 c 128,-1,51
 206 547 206 547 176 486.5 c 128,-1,52
 146 426 146 426 146 350 c 0,53,38
 146 275 146 275 176 214.5 c 128,-1,39
EndSplineSet
EndChar

StartChar: Oslash
Encoding: 216 216 159
Width: 733
GlyphClass: 2
Flags: W
AnchorPoint: "Anchor-8" 383 706 basechar 0
AnchorPoint: "Anchor-7" 381 350 basechar 0
AnchorPoint: "Anchor-6" 367 700 basechar 0
AnchorPoint: "Anchor-5" 686 10 basechar 0
AnchorPoint: "Anchor-4" 367 0 basechar 0
LayerCount: 2
Fore
SplineSet
694 491 m 128,-1,1
 719 425 719 425 719 350 c 0,2,3
 719 249 719 249 675.5 167 c 128,-1,4
 632 85 632 85 555 37.5 c 128,-1,5
 478 -10 478 -10 381 -10 c 0,6,7
 264 -10 264 -10 176 59 c 1,8,-1
 121 -9 l 2,9,10
 105 -28 105 -28 86 -28 c 0,11,12
 71 -28 71 -28 58.5 -16 c 128,-1,13
 46 -4 46 -4 46 12 c 0,14,15
 46 27 46 27 55 39 c 2,16,-1
 119 117 l 1,17,18
 82 164 82 164 62.5 223.5 c 128,-1,19
 43 283 43 283 43 350 c 0,20,21
 43 451 43 451 86.5 533 c 128,-1,22
 130 615 130 615 207 662.5 c 128,-1,23
 284 710 284 710 381 710 c 0,24,25
 482 710 482 710 562 658 c 1,26,-1
 615 723 l 2,27,28
 628 739 628 739 648 739 c 0,29,30
 664 739 664 739 676.5 728 c 128,-1,31
 689 717 689 717 689 701 c 0,32,33
 689 686 689 686 679 673 c 2,34,-1
 624 606 l 1,35,0
 669 557 669 557 694 491 c 128,-1,1
185 198 m 1,37,-1
 500 582 l 1,38,39
 447 615 447 615 381 615 c 0,40,41
 313 615 313 615 259.5 581 c 128,-1,42
 206 547 206 547 176 486.5 c 128,-1,43
 146 426 146 426 146 350 c 0,44,36
 146 264 146 264 185 198 c 1,37,-1
502.5 119.5 m 128,-1,46
 556 154 556 154 586 214.5 c 128,-1,47
 616 275 616 275 616 350 c 0,48,49
 616 455 616 455 560 528 c 1,50,-1
 238 134 l 1,51,52
 300 85 300 85 381 85 c 0,53,45
 449 85 449 85 502.5 119.5 c 128,-1,46
EndSplineSet
EndChar

StartChar: OE
Encoding: 338 338 165
Width: 977
GlyphClass: 2
Flags: W
AnchorPoint: "Anchor-8" 0 0 basechar 0
AnchorPoint: "Anchor-7" 0 0 basechar 0
AnchorPoint: "Anchor-6" 487 700 basechar 0
AnchorPoint: "Anchor-5" 0 0 basechar 0
AnchorPoint: "Anchor-4" 487 0 basechar 0
LayerCount: 2
Fore
SplineSet
920 81 m 128,-1,1
 934 67 934 67 934 47 c 256,2,3
 934 27 934 27 920 13.5 c 128,-1,4
 906 0 906 0 885 0 c 2,5,-1
 340 0 l 2,6,7
 246 0 246 0 178.5 46.5 c 128,-1,8
 111 93 111 93 77 172.5 c 128,-1,9
 43 252 43 252 43 350 c 0,10,11
 43 447 43 447 77.5 526.5 c 128,-1,12
 112 606 112 606 179 653 c 128,-1,13
 246 700 246 700 340 700 c 2,14,-1
 885 700 l 2,15,16
 906 700 906 700 920 686 c 128,-1,17
 934 672 934 672 934 652 c 256,18,19
 934 632 934 632 920 618.5 c 128,-1,20
 906 605 906 605 885 605 c 2,21,-1
 594 605 l 1,22,-1
 594 398 l 1,23,-1
 840 398 l 2,24,25
 861 398 861 398 875 384.5 c 128,-1,26
 889 371 889 371 889 350 c 0,27,28
 889 330 889 330 875 316.5 c 128,-1,29
 861 303 861 303 840 303 c 2,30,-1
 594 303 l 1,31,-1
 594 95 l 1,32,-1
 885 95 l 2,33,0
 906 95 906 95 920 81 c 128,-1,1
189 166 m 128,-1,35
 240 95 240 95 343 95 c 2,36,-1
 499 95 l 1,37,-1
 499 605 l 1,38,-1
 343 605 l 2,39,40
 241 605 241 605 189.5 533 c 128,-1,41
 138 461 138 461 138 350 c 0,42,34
 138 237 138 237 189 166 c 128,-1,35
EndSplineSet
EndChar

StartChar: P
Encoding: 80 80 166
Width: 600
GlyphClass: 2
Flags: W
AnchorPoint: "Anchor-8" 0 0 basechar 0
AnchorPoint: "Anchor-7" 134 162 basechar 0
AnchorPoint: "Anchor-6" 300 700 basechar 0
AnchorPoint: "Anchor-5" 0 0 basechar 0
AnchorPoint: "Anchor-4" 300 0 basechar 0
LayerCount: 2
Fore
SplineSet
461 671.5 m 128,-1,1
 506 643 506 643 532.5 594 c 128,-1,2
 559 545 559 545 559 486 c 256,3,4
 559 427 559 427 532.5 377 c 128,-1,5
 506 327 506 327 461 298 c 128,-1,6
 416 269 416 269 363 269 c 2,7,-1
 175 269 l 1,8,-1
 175 48 l 2,9,10
 175 28 175 28 162 14 c 128,-1,11
 149 0 149 0 129 0 c 0,12,13
 108 0 108 0 95.5 13.5 c 128,-1,14
 83 27 83 27 83 48 c 2,15,-1
 83 652 l 2,16,17
 83 672 83 672 97 686 c 128,-1,18
 111 700 111 700 131 700 c 2,19,-1
 363 700 l 2,20,0
 416 700 416 700 461 671.5 c 128,-1,1
413 377.5 m 128,-1,22
 436 395 436 395 449.5 424 c 128,-1,23
 463 453 463 453 463 486 c 0,24,25
 463 537 463 537 433.5 572.5 c 128,-1,26
 404 608 404 608 363 608 c 2,27,-1
 175 608 l 1,28,-1
 175 360 l 1,29,-1
 363 360 l 2,30,21
 390 360 390 360 413 377.5 c 128,-1,22
EndSplineSet
EndChar

StartChar: Thorn
Encoding: 222 222 167
Width: 597
GlyphClass: 2
Flags: W
AnchorPoint: "Anchor-8" 0 0 basechar 0
AnchorPoint: "Anchor-7" 0 0 basechar 0
AnchorPoint: "Anchor-6" 269 700 basechar 0
AnchorPoint: "Anchor-5" 0 0 basechar 0
AnchorPoint: "Anchor-4" 269 0 basechar 0
LayerCount: 2
Fore
SplineSet
457 574.5 m 128,-1,1
 502 546 502 546 528.5 497 c 128,-1,2
 555 448 555 448 555 388 c 0,3,4
 555 329 555 329 528 279.5 c 128,-1,5
 501 230 501 230 456 201 c 128,-1,6
 411 172 411 172 359 172 c 2,7,-1
 178 172 l 1,8,-1
 178 48 l 2,9,10
 178 28 178 28 164 14 c 128,-1,11
 150 0 150 0 130 0 c 0,12,13
 109 0 109 0 96 13.5 c 128,-1,14
 83 27 83 27 83 48 c 2,15,-1
 83 692 l 2,16,17
 83 712 83 712 97 726 c 128,-1,18
 111 740 111 740 131 740 c 0,19,20
 152 740 152 740 165 726.5 c 128,-1,21
 178 713 178 713 178 692 c 2,22,-1
 178 603 l 1,23,-1
 359 603 l 2,24,0
 412 603 412 603 457 574.5 c 128,-1,1
430 302.5 m 128,-1,26
 460 338 460 338 460 388 c 0,27,28
 460 439 460 439 430.5 473.5 c 128,-1,29
 401 508 401 508 359 508 c 2,30,-1
 178 508 l 1,31,-1
 178 267 l 1,32,-1
 359 267 l 2,33,25
 400 267 400 267 430 302.5 c 128,-1,26
EndSplineSet
EndChar

StartChar: Q
Encoding: 81 81 168
Width: 763
GlyphClass: 2
Flags: W
AnchorPoint: "Anchor-8" 0 0 basechar 0
AnchorPoint: "Anchor-7" 0 0 basechar 0
AnchorPoint: "Anchor-6" 382 700 basechar 0
AnchorPoint: "Anchor-5" 0 0 basechar 0
AnchorPoint: "Anchor-4" 382 0 basechar 0
LayerCount: 2
Fore
SplineSet
771.5 -53.5 m 128,-1,1
 785 -67 785 -67 785 -85 c 0,2,3
 785 -111 785 -111 753 -135 c 128,-1,4
 721 -159 721 -159 675 -174 c 128,-1,5
 629 -189 629 -189 591 -189 c 0,6,7
 530 -189 530 -189 492 -177 c 128,-1,8
 454 -165 454 -165 413 -142 c 0,9,10
 382 -125 382 -125 362 -117.5 c 128,-1,11
 342 -110 342 -110 315 -110 c 0,12,13
 303 -110 303 -110 292.5 -113.5 c 128,-1,14
 282 -117 282 -117 272 -122 c 0,15,16
 248 -134 248 -134 227 -134 c 0,17,18
 208 -134 208 -134 194.5 -119.5 c 128,-1,19
 181 -105 181 -105 181 -87 c 0,20,21
 181 -56 181 -56 208 -46 c 2,22,-1
 320 -5 l 1,23,24
 239 9 239 9 176 59 c 128,-1,25
 113 109 113 109 78 185 c 128,-1,26
 43 261 43 261 43 350 c 0,27,28
 43 451 43 451 86.5 533 c 128,-1,29
 130 615 130 615 207 662.5 c 128,-1,30
 284 710 284 710 381 710 c 256,31,32
 478 710 478 710 555 662.5 c 128,-1,33
 632 615 632 615 675.5 533 c 128,-1,34
 719 451 719 451 719 350 c 0,35,36
 719 262 719 262 685.5 188 c 128,-1,37
 652 114 652 114 592 64 c 128,-1,38
 532 14 532 14 454 -2 c 1,39,-1
 378 -30 l 1,40,41
 403 -33 403 -33 423.5 -41.5 c 128,-1,42
 444 -50 444 -50 473 -65 c 0,43,44
 509 -83 509 -83 536 -92.5 c 128,-1,45
 563 -102 563 -102 596 -102 c 0,46,47
 625 -102 625 -102 646 -94 c 128,-1,48
 667 -86 667 -86 686 -72 c 0,49,50
 694 -66 694 -66 704.5 -57.5 c 128,-1,51
 715 -49 715 -49 723.5 -44.5 c 128,-1,52
 732 -40 732 -40 741 -40 c 0,53,0
 758 -40 758 -40 771.5 -53.5 c 128,-1,1
176 214.5 m 128,-1,55
 206 154 206 154 259.5 119.5 c 128,-1,56
 313 85 313 85 381 85 c 256,57,58
 449 85 449 85 502.5 119.5 c 128,-1,59
 556 154 556 154 586 214.5 c 128,-1,60
 616 275 616 275 616 350 c 256,61,62
 616 425 616 425 586 485.5 c 128,-1,63
 556 546 556 546 502.5 580.5 c 128,-1,64
 449 615 449 615 381 615 c 256,65,66
 313 615 313 615 259.5 581 c 128,-1,67
 206 547 206 547 176 486.5 c 128,-1,68
 146 426 146 426 146 350 c 0,69,54
 146 275 146 275 176 214.5 c 128,-1,55
EndSplineSet
EndChar

StartChar: R
Encoding: 82 82 169
Width: 680
GlyphClass: 2
Flags: W
AnchorPoint: "Anchor-8" 0 0 basechar 0
AnchorPoint: "Anchor-7" 0 0 basechar 0
AnchorPoint: "Anchor-6" 339 700 basechar 0
AnchorPoint: "Anchor-5" 0 0 basechar 0
AnchorPoint: "Anchor-4" 339 0 basechar 0
LayerCount: 2
Fore
SplineSet
632 62.5 m 128,-1,1
 638 52 638 52 638 41 c 0,2,3
 638 20 638 20 624.5 10 c 128,-1,4
 611 0 611 0 592 0 c 256,5,6
 573 0 573 0 560 8 c 0,7,8
 530 25 530 25 511 63 c 128,-1,9
 492 101 492 101 492 175 c 0,10,11
 492 225 492 225 462 249 c 128,-1,12
 432 273 432 273 384 273 c 2,13,-1
 182 273 l 1,14,-1
 182 48 l 2,15,16
 182 27 182 27 170 13.5 c 128,-1,17
 158 0 158 0 139 0 c 0,18,19
 116 0 116 0 99.5 14 c 128,-1,20
 83 28 83 28 83 48 c 2,21,-1
 83 652 l 2,22,23
 83 672 83 672 97 686 c 128,-1,24
 111 700 111 700 131 700 c 2,25,-1
 412 700 l 2,26,27
 466 700 466 700 511 673.5 c 128,-1,28
 556 647 556 647 583 600.5 c 128,-1,29
 610 554 610 554 610 496 c 0,30,31
 610 440 610 440 580 391.5 c 128,-1,32
 550 343 550 343 503 319 c 1,33,34
 540 300 540 300 561.5 266 c 128,-1,35
 583 232 583 232 585 187 c 0,36,37
 589 130 589 130 594 109.5 c 128,-1,38
 599 89 599 89 616 80 c 0,39,0
 626 73 626 73 632 62.5 c 128,-1,1
457.5 376 m 128,-1,41
 480 394 480 394 494 424.5 c 128,-1,42
 508 455 508 455 508 493 c 0,43,44
 508 541 508 541 478.5 574.5 c 128,-1,45
 449 608 449 608 407 608 c 2,46,-1
 182 608 l 1,47,-1
 182 356 l 1,48,-1
 410 356 l 2,49,40
 435 358 435 358 457.5 376 c 128,-1,41
EndSplineSet
EndChar

StartChar: S
Encoding: 83 83 177
Width: 582
GlyphClass: 2
Flags: W
AnchorPoint: "Anchor-8" 0 0 basechar 0
AnchorPoint: "Anchor-7" 0 0 basechar 0
AnchorPoint: "Anchor-6" 292 700 basechar 0
AnchorPoint: "Anchor-5" 0 0 basechar 0
AnchorPoint: "Anchor-4" 292 0 basechar 0
LayerCount: 2
Fore
SplineSet
166 10.5 m 128,-1,1
 110 31 110 31 59 77 c 0,2,3
 38 95 38 95 38 118 c 0,4,5
 38 136 38 136 52 150.5 c 128,-1,6
 66 165 66 165 85 165 c 0,7,8
 102 165 102 165 114 154 c 0,9,10
 154 117 154 117 196.5 99.5 c 128,-1,11
 239 82 239 82 293 82 c 0,12,13
 356 82 356 82 399.5 111 c 128,-1,14
 443 140 443 140 443 184 c 0,15,16
 442 236 442 236 399.5 264.5 c 128,-1,17
 357 293 357 293 270 312 c 0,18,19
 167 333 167 333 111.5 381 c 128,-1,20
 56 429 56 429 56 514 c 0,21,22
 56 573 56 573 87 617.5 c 128,-1,23
 118 662 118 662 173 686 c 128,-1,24
 228 710 228 710 297 710 c 0,25,26
 359 710 359 710 414 690 c 128,-1,27
 469 670 469 670 503 637 c 0,28,29
 526 617 526 617 526 594 c 0,30,31
 526 576 526 576 512.5 562 c 128,-1,32
 499 548 499 548 480 548 c 0,33,34
 466 548 466 548 457 556 c 0,35,36
 431 582 431 582 385 600 c 128,-1,37
 339 618 339 618 297 618 c 0,38,39
 230 618 230 618 190.5 590.5 c 128,-1,40
 151 563 151 563 151 518 c 0,41,42
 151 469 151 469 190.5 443 c 128,-1,43
 230 417 230 417 308 399 c 0,44,45
 386 382 386 382 435.5 359 c 128,-1,46
 485 336 485 336 512 295 c 128,-1,47
 539 254 539 254 539 188 c 0,48,49
 539 130 539 130 506.5 85 c 128,-1,50
 474 40 474 40 418 15 c 128,-1,51
 362 -10 362 -10 295 -10 c 0,52,0
 222 -10 222 -10 166 10.5 c 128,-1,1
EndSplineSet
EndChar

StartChar: Scedilla
Encoding: 350 350 182
Width: 582
GlyphClass: 2
Flags: W
AnchorPoint: "Anchor-8" 0 0 basechar 0
AnchorPoint: "Anchor-7" 0 0 basechar 0
AnchorPoint: "Anchor-6" 0 0 basechar 0
AnchorPoint: "Anchor-5" 0 0 basechar 0
AnchorPoint: "Anchor-4" 263 -148 basechar 0
LayerCount: 2
Fore
SplineSet
509 89 m 128,-1,1
 479 45 479 45 427 19.5 c 128,-1,2
 375 -6 375 -6 312 -10 c 1,3,-1
 267 -121 l 2,4,5
 257 -148 257 -148 232 -148 c 0,6,7
 216 -148 216 -148 196 -136 c 128,-1,8
 176 -124 176 -124 176 -108 c 0,9,10
 176 -94 176 -94 186 -83 c 2,11,-1
 244 -7 l 1,12,13
 190 -2 190 -2 145 18.5 c 128,-1,14
 100 39 100 39 59 77 c 0,15,16
 38 95 38 95 38 118 c 0,17,18
 38 136 38 136 52 150.5 c 128,-1,19
 66 165 66 165 85 165 c 0,20,21
 102 165 102 165 114 154 c 0,22,23
 154 117 154 117 196.5 99.5 c 128,-1,24
 239 82 239 82 293 82 c 0,25,26
 356 82 356 82 399.5 111 c 128,-1,27
 443 140 443 140 443 184 c 0,28,29
 442 236 442 236 399.5 264.5 c 128,-1,30
 357 293 357 293 270 312 c 0,31,32
 167 333 167 333 111.5 381 c 128,-1,33
 56 429 56 429 56 514 c 0,34,35
 56 573 56 573 87 617.5 c 128,-1,36
 118 662 118 662 173 686 c 128,-1,37
 228 710 228 710 297 710 c 0,38,39
 359 710 359 710 414 690 c 128,-1,40
 469 670 469 670 503 637 c 0,41,42
 526 617 526 617 526 594 c 0,43,44
 526 576 526 576 512.5 562 c 128,-1,45
 499 548 499 548 480 548 c 0,46,47
 466 548 466 548 457 556 c 0,48,49
 431 582 431 582 385 600 c 128,-1,50
 339 618 339 618 297 618 c 0,51,52
 230 618 230 618 190.5 590.5 c 128,-1,53
 151 563 151 563 151 518 c 0,54,55
 151 469 151 469 190.5 443 c 128,-1,56
 230 417 230 417 308 399 c 0,57,58
 386 382 386 382 435.5 359 c 128,-1,59
 485 336 485 336 512 295 c 128,-1,60
 539 254 539 254 539 188 c 0,61,0
 539 133 539 133 509 89 c 128,-1,1
EndSplineSet
Substitution2: "'locl' Localized Forms in Latin lookup 2 subtable" uni0218
Substitution2: "'locl' Localized Forms in Latin lookup 1 subtable" uni0218
EndChar

StartChar: uni1E9E
Encoding: 7838 7838 188
Width: 729
Flags: W
LayerCount: 2
Fore
SplineSet
607 342.5 m 128,-1,1
 639 323 639 323 662.5 284 c 128,-1,2
 686 245 686 245 686 183 c 0,3,4
 686 131 686 131 656 86.5 c 128,-1,5
 626 42 626 42 576 16 c 128,-1,6
 526 -10 526 -10 469 -10 c 0,7,8
 413 -10 413 -10 360 12.5 c 128,-1,9
 307 35 307 35 276 75 c 0,10,11
 263 95 263 95 263 117 c 0,12,13
 263 136 263 136 275.5 152 c 128,-1,14
 288 168 288 168 308 168 c 0,15,16
 316 168 316 168 325.5 164.5 c 128,-1,17
 335 161 335 161 341 154 c 0,18,19
 366 124 366 124 400.5 104.5 c 128,-1,20
 435 85 435 85 468 85 c 0,21,22
 521 85 521 85 552 108 c 128,-1,23
 583 131 583 131 583 171 c 0,24,25
 583 200 583 200 568 219.5 c 128,-1,26
 553 239 553 239 531 252 c 128,-1,27
 509 265 509 265 471 282 c 0,28,29
 464 286 464 286 450 292 c 0,30,31
 389 321 389 321 354 358 c 128,-1,32
 319 395 319 395 319 461 c 0,33,34
 319 534 319 534 363 578 c 128,-1,35
 407 622 407 622 478 637 c 1,36,37
 447 644 447 644 395 644 c 0,38,39
 299 644 299 644 243 590 c 128,-1,40
 187 536 187 536 187 443 c 2,41,-1
 185 49 l 2,42,43
 185 28 185 28 170.5 14.5 c 128,-1,44
 156 1 156 1 133 1 c 0,45,46
 111 1 111 1 97 14.5 c 128,-1,47
 83 28 83 28 83 49 c 2,48,-1
 85 421 l 2,49,50
 85 505 85 505 119.5 574 c 128,-1,51
 154 643 154 643 222.5 684.5 c 128,-1,52
 291 726 291 726 388 726 c 0,53,54
 448 726 448 726 498.5 714.5 c 128,-1,55
 549 703 549 703 584 685 c 0,56,57
 609 674 609 674 620.5 659.5 c 128,-1,58
 632 645 632 645 632 626 c 0,59,60
 632 608 632 608 620 601 c 128,-1,61
 608 594 608 594 582 588 c 0,62,63
 573 587 573 587 560 583 c 0,64,65
 492 571 492 571 458 549.5 c 128,-1,66
 424 528 424 528 424 486 c 0,67,68
 424 450 424 450 450 426.5 c 128,-1,69
 476 403 476 403 524 383 c 0,70,0
 575 362 575 362 607 342.5 c 128,-1,1
EndSplineSet
EndChar

StartChar: uni018F
Encoding: 399 399 189
Width: 769
Flags: W
LayerCount: 2
Fore
SplineSet
554 661.5 m 128,-1,1
 633 613 633 613 679.5 530.5 c 128,-1,2
 726 448 726 448 726 350 c 256,3,4
 726 252 726 252 680 169.5 c 128,-1,5
 634 87 634 87 555.5 38.5 c 128,-1,6
 477 -10 477 -10 384 -10 c 0,7,8
 299 -10 299 -10 222 31 c 128,-1,9
 145 72 145 72 96.5 146 c 128,-1,10
 48 220 48 220 43 314 c 1,11,-1
 43 336 l 2,12,13
 43 362 43 362 60 377 c 128,-1,14
 77 392 77 392 101 392 c 2,15,-1
 623 392 l 1,16,17
 611 499 611 499 544.5 557 c 128,-1,18
 478 615 478 615 382 615 c 0,19,20
 321 615 321 615 270.5 596.5 c 128,-1,21
 220 578 220 578 177 536 c 0,22,23
 161 523 161 523 144 523 c 256,24,25
 127 523 127 523 113 535 c 0,26,27
 95 549 95 549 95 571 c 0,28,29
 95 592 95 592 111 605 c 0,30,31
 167 661 167 661 231.5 685.5 c 128,-1,32
 296 710 296 710 382 710 c 0,33,0
 475 710 475 710 554 661.5 c 128,-1,1
493 110.5 m 128,-1,35
 543 136 543 136 577 184 c 128,-1,36
 611 232 611 232 621 297 c 1,37,-1
 145 297 l 1,38,39
 155 238 155 238 189.5 189.5 c 128,-1,40
 224 141 224 141 275 113 c 128,-1,41
 326 85 326 85 384 85 c 0,42,34
 443 85 443 85 493 110.5 c 128,-1,35
EndSplineSet
EndChar

StartChar: T
Encoding: 84 84 190
Width: 617
GlyphClass: 2
Flags: W
AnchorPoint: "Anchor-8" 0 0 basechar 0
AnchorPoint: "Anchor-7" 308 350 basechar 0
AnchorPoint: "Anchor-6" 308 700 basechar 0
AnchorPoint: "Anchor-5" 0 0 basechar 0
AnchorPoint: "Anchor-4" 308 0 basechar 0
LayerCount: 2
Fore
SplineSet
571.5 687.5 m 128,-1,1
 585 675 585 675 585 654 c 256,2,3
 585 633 585 633 571.5 621 c 128,-1,4
 558 609 558 609 537 609 c 2,5,-1
 359 609 l 1,6,-1
 359 48 l 2,7,8
 359 28 359 28 344.5 14 c 128,-1,9
 330 0 330 0 308 0 c 256,10,11
 286 0 286 0 271.5 14 c 128,-1,12
 257 28 257 28 257 48 c 2,13,-1
 257 609 l 1,14,-1
 80 609 l 2,15,16
 59 609 59 609 45.5 621.5 c 128,-1,17
 32 634 32 634 32 655 c 0,18,19
 32 675 32 675 45.5 687.5 c 128,-1,20
 59 700 59 700 80 700 c 2,21,-1
 537 700 l 2,22,0
 558 700 558 700 571.5 687.5 c 128,-1,1
EndSplineSet
EndChar

StartChar: Tbar
Encoding: 358 358 191
Width: 617
GlyphClass: 2
Flags: W
AnchorPoint: "Anchor-8" 0 0 basechar 0
AnchorPoint: "Anchor-7" 308 350 basechar 0
AnchorPoint: "Anchor-6" 308 700 basechar 0
AnchorPoint: "Anchor-5" 0 0 basechar 0
AnchorPoint: "Anchor-4" 308 0 basechar 0
LayerCount: 2
Fore
SplineSet
571.5 687.5 m 128,-1,1
 585 675 585 675 585 654 c 256,2,3
 585 633 585 633 571.5 621 c 128,-1,4
 558 609 558 609 537 609 c 2,5,-1
 359 609 l 1,6,-1
 359 387 l 1,7,-1
 400 387 l 2,8,9
 421 387 421 387 435 374.5 c 128,-1,10
 449 362 449 362 449 343 c 256,11,12
 449 324 449 324 435 311.5 c 128,-1,13
 421 299 421 299 400 299 c 2,14,-1
 359 299 l 1,15,-1
 359 48 l 2,16,17
 359 28 359 28 344.5 14 c 128,-1,18
 330 0 330 0 308 0 c 256,19,20
 286 0 286 0 271.5 14 c 128,-1,21
 257 28 257 28 257 48 c 2,22,-1
 257 299 l 1,23,-1
 231 299 l 2,24,25
 210 299 210 299 196.5 311.5 c 128,-1,26
 183 324 183 324 183 344 c 0,27,28
 183 363 183 363 196.5 375 c 128,-1,29
 210 387 210 387 231 387 c 2,30,-1
 257 387 l 1,31,-1
 257 609 l 1,32,-1
 80 609 l 2,33,34
 59 609 59 609 45.5 621.5 c 128,-1,35
 32 634 32 634 32 655 c 0,36,37
 32 675 32 675 45.5 687.5 c 128,-1,38
 59 700 59 700 80 700 c 2,39,-1
 537 700 l 2,40,0
 558 700 558 700 571.5 687.5 c 128,-1,1
EndSplineSet
EndChar

StartChar: uni0162
Encoding: 354 354 193
Width: 617
GlyphClass: 2
Flags: W
AnchorPoint: "Anchor-8" 0 0 basechar 0
AnchorPoint: "Anchor-7" 308 350 basechar 0
AnchorPoint: "Anchor-6" 0 0 basechar 0
AnchorPoint: "Anchor-5" 0 0 basechar 0
AnchorPoint: "Anchor-4" 280 -148 basechar 0
LayerCount: 2
Fore
SplineSet
571.5 687.5 m 128,-1,1
 585 675 585 675 585 654 c 256,2,3
 585 633 585 633 571.5 621 c 128,-1,4
 558 609 558 609 537 609 c 2,5,-1
 359 609 l 1,6,-1
 359 48 l 2,7,8
 359 35 359 35 352.5 24 c 128,-1,9
 346 13 346 13 335 7 c 1,10,-1
 283 -121 l 2,11,12
 273 -148 273 -148 249 -148 c 0,13,14
 233 -148 233 -148 213 -136 c 128,-1,15
 193 -124 193 -124 193 -108 c 0,16,17
 193 -94 193 -94 203 -83 c 2,18,-1
 275 11 l 1,19,20
 267 17 267 17 262 27 c 128,-1,21
 257 37 257 37 257 48 c 2,22,-1
 257 609 l 1,23,-1
 80 609 l 2,24,25
 59 609 59 609 45.5 621.5 c 128,-1,26
 32 634 32 634 32 655 c 0,27,28
 32 675 32 675 45.5 687.5 c 128,-1,29
 59 700 59 700 80 700 c 2,30,-1
 537 700 l 2,31,0
 558 700 558 700 571.5 687.5 c 128,-1,1
EndSplineSet
Substitution2: "'locl' Localized Forms in Latin lookup 2 subtable" uni021A
Substitution2: "'locl' Localized Forms in Latin lookup 1 subtable" uni021A
EndChar

StartChar: U
Encoding: 85 85 197
Width: 708
GlyphClass: 2
Flags: W
AnchorPoint: "Anchor-8" 497 708 basechar 0
AnchorPoint: "Anchor-7" 0 0 basechar 0
AnchorPoint: "Anchor-6" 355 700 basechar 0
AnchorPoint: "Anchor-5" 637 10 basechar 0
AnchorPoint: "Anchor-4" 355 0 basechar 0
LayerCount: 2
Fore
SplineSet
612.5 687.5 m 128,-1,1
 625 674 625 674 625 653 c 2,2,-1
 625 269 l 2,3,4
 625 190 625 190 590 127 c 128,-1,5
 555 64 555 64 493.5 28.5 c 128,-1,6
 432 -7 432 -7 355 -7 c 0,7,8
 277 -7 277 -7 215 28.5 c 128,-1,9
 153 64 153 64 118 127 c 128,-1,10
 83 190 83 190 83 269 c 2,11,-1
 83 653 l 2,12,13
 83 674 83 674 97 687.5 c 128,-1,14
 111 701 111 701 133 701 c 0,15,16
 152 701 152 701 166.5 687 c 128,-1,17
 181 673 181 673 181 653 c 2,18,-1
 181 269 l 2,19,20
 181 217 181 217 205 175.5 c 128,-1,21
 229 134 229 134 269 111 c 128,-1,22
 309 88 309 88 355 88 c 0,23,24
 403 88 403 88 444 111 c 128,-1,25
 485 134 485 134 509.5 175.5 c 128,-1,26
 534 217 534 217 534 269 c 2,27,-1
 534 653 l 2,28,29
 534 674 534 674 546 687.5 c 128,-1,30
 558 701 558 701 579 701 c 256,31,0
 600 701 600 701 612.5 687.5 c 128,-1,1
EndSplineSet
EndChar

StartChar: Uhorn
Encoding: 431 431 207
Width: 708
GlyphClass: 2
Flags: W
AnchorPoint: "Anchor-8" 497 708 basechar 0
AnchorPoint: "Anchor-7" 0 0 basechar 0
AnchorPoint: "Anchor-6" 360 700 basechar 0
AnchorPoint: "Anchor-5" 637 10 basechar 0
AnchorPoint: "Anchor-4" 359 0 basechar 0
LayerCount: 2
Fore
SplineSet
711 675.5 m 128,-1,1
 682 637 682 637 625 625 c 1,2,-1
 625 269 l 2,3,4
 625 190 625 190 590 127 c 128,-1,5
 555 64 555 64 493.5 28.5 c 128,-1,6
 432 -7 432 -7 355 -7 c 0,7,8
 277 -7 277 -7 215 28.5 c 128,-1,9
 153 64 153 64 118 127 c 128,-1,10
 83 190 83 190 83 269 c 2,11,-1
 83 653 l 2,12,13
 83 674 83 674 97 687.5 c 128,-1,14
 111 701 111 701 133 701 c 0,15,16
 152 701 152 701 166.5 687 c 128,-1,17
 181 673 181 673 181 653 c 2,18,-1
 181 269 l 2,19,20
 181 217 181 217 205 175.5 c 128,-1,21
 229 134 229 134 269 111 c 128,-1,22
 309 88 309 88 355 88 c 0,23,24
 403 88 403 88 444 111 c 128,-1,25
 485 134 485 134 509.5 175.5 c 128,-1,26
 534 217 534 217 534 269 c 2,27,-1
 534 653 l 2,28,29
 534 674 534 674 546 687.5 c 128,-1,30
 558 701 558 701 579 701 c 2,31,-1
 586 701 l 1,32,33
 660 706 660 706 660 768 c 0,34,35
 660 786 660 786 670.5 800 c 128,-1,36
 681 814 681 814 700 814 c 0,37,38
 721 814 721 814 730.5 800 c 128,-1,39
 740 786 740 786 740 768 c 0,40,0
 740 714 740 714 711 675.5 c 128,-1,1
EndSplineSet
EndChar

StartChar: Uogonek
Encoding: 370 370 217
Width: 708
GlyphClass: 2
Flags: W
AnchorPoint: "Anchor-8" 688 700 basechar 0
AnchorPoint: "Anchor-7" 0 0 basechar 0
AnchorPoint: "Anchor-6" 355 700 basechar 0
AnchorPoint: "Anchor-5" 637 10 basechar 0
AnchorPoint: "Anchor-4" 355 0 basechar 0
LayerCount: 2
Fore
SplineSet
612.5 687.5 m 128,-1,1
 625 674 625 674 625 653 c 2,2,-1
 625 269 l 2,3,4
 625 200 625 200 595 135.5 c 128,-1,5
 565 71 565 71 507 37 c 0,6,7
 407 -26 407 -26 407 -80 c 0,8,9
 407 -101 407 -101 418.5 -113 c 128,-1,10
 430 -125 430 -125 446 -125 c 0,11,12
 461 -125 461 -125 470 -113 c 0,13,14
 482 -96 482 -96 505 -96 c 0,15,16
 520 -96 520 -96 530 -106 c 128,-1,17
 540 -116 540 -116 540 -133 c 0,18,19
 540 -148 540 -148 525.5 -164 c 128,-1,20
 511 -180 511 -180 487 -190 c 128,-1,21
 463 -200 463 -200 437 -200 c 0,22,23
 390 -200 390 -200 358.5 -173.5 c 128,-1,24
 327 -147 327 -147 327 -98 c 256,25,26
 327 -49 327 -49 359 -7 c 1,27,-1
 355 -7 l 2,28,29
 277 -7 277 -7 215 28.5 c 128,-1,30
 153 64 153 64 118 127 c 128,-1,31
 83 190 83 190 83 269 c 2,32,-1
 83 653 l 2,33,34
 83 674 83 674 97 687.5 c 128,-1,35
 111 701 111 701 133 701 c 256,36,37
 155 701 155 701 168 687.5 c 128,-1,38
 181 674 181 674 181 653 c 2,39,-1
 181 269 l 2,40,41
 181 217 181 217 205 175.5 c 128,-1,42
 229 134 229 134 269 111 c 128,-1,43
 309 88 309 88 355 88 c 0,44,45
 403 88 403 88 444 111 c 128,-1,46
 485 134 485 134 509.5 175.5 c 128,-1,47
 534 217 534 217 534 269 c 2,48,-1
 534 653 l 2,49,50
 534 673 534 673 547.5 687 c 128,-1,51
 561 701 561 701 579 701 c 0,52,0
 600 701 600 701 612.5 687.5 c 128,-1,1
EndSplineSet
EndChar

StartChar: V
Encoding: 86 86 221
Width: 672
GlyphClass: 2
Flags: W
AnchorPoint: "Anchor-8" 0 0 basechar 0
AnchorPoint: "Anchor-7" 0 0 basechar 0
AnchorPoint: "Anchor-6" 336 700 basechar 0
AnchorPoint: "Anchor-5" 0 0 basechar 0
AnchorPoint: "Anchor-4" 336 0 basechar 0
LayerCount: 2
Fore
SplineSet
626.5 688 m 128,-1,1
 641 675 641 675 641 656 c 0,2,3
 641 646 641 646 636 634 c 2,4,-1
 381 31 l 2,5,6
 374 16 374 16 361 8 c 128,-1,7
 348 0 348 0 334 0 c 0,8,9
 321 1 321 1 309.5 8.5 c 128,-1,10
 298 16 298 16 291 30 c 2,11,-1
 36 634 l 2,12,13
 32 642 32 642 32 655 c 0,14,15
 32 676 32 676 47 689 c 128,-1,16
 62 702 62 702 80 702 c 0,17,18
 110 702 110 702 124 670 c 2,19,-1
 342 155 l 1,20,-1
 548 671 l 2,21,22
 555 685 555 685 566.5 693 c 128,-1,23
 578 701 578 701 592 701 c 0,24,0
 612 701 612 701 626.5 688 c 128,-1,1
EndSplineSet
EndChar

StartChar: W
Encoding: 87 87 222
Width: 953
GlyphClass: 2
Flags: W
AnchorPoint: "Anchor-8" 0 0 basechar 0
AnchorPoint: "Anchor-7" 0 0 basechar 0
AnchorPoint: "Anchor-6" 477 700 basechar 0
AnchorPoint: "Anchor-5" 0 0 basechar 0
AnchorPoint: "Anchor-4" 477 0 basechar 0
LayerCount: 2
Fore
SplineSet
915 689 m 128,-1,1
 931 675 931 675 931 652 c 0,2,3
 931 644 931 644 928 635 c 2,4,-1
 721 30 l 2,5,6
 717 16 717 16 704.5 8.5 c 128,-1,7
 692 1 692 1 678 0 c 0,8,9
 664 0 664 0 651 8 c 128,-1,10
 638 16 638 16 632 31 c 2,11,-1
 476 396 l 1,12,-1
 321 31 l 2,13,14
 315 16 315 16 302 8 c 128,-1,15
 289 0 289 0 274 0 c 0,16,17
 260 1 260 1 248 9 c 128,-1,18
 236 17 236 17 232 30 c 2,19,-1
 25 635 l 2,20,21
 22 644 22 644 22 652 c 0,22,23
 22 674 22 674 38.5 688.5 c 128,-1,24
 55 703 55 703 74 703 c 0,25,26
 90 703 90 703 103 694.5 c 128,-1,27
 116 686 116 686 120 672 c 2,28,-1
 289 171 l 1,29,-1
 434 527 l 2,30,31
 440 541 440 541 452 549 c 128,-1,32
 464 557 464 557 479 557 c 256,33,34
 494 557 494 557 506 549 c 128,-1,35
 518 541 518 541 524 527 c 2,36,-1
 665 171 l 1,37,-1
 833 672 l 2,38,39
 837 687 837 687 850 695 c 128,-1,40
 863 703 863 703 880 703 c 0,41,0
 899 703 899 703 915 689 c 128,-1,1
EndSplineSet
EndChar

StartChar: X
Encoding: 88 88 227
Width: 634
GlyphClass: 2
Flags: W
AnchorPoint: "Anchor-8" 0 0 basechar 0
AnchorPoint: "Anchor-7" 0 0 basechar 0
AnchorPoint: "Anchor-6" 318 700 basechar 0
AnchorPoint: "Anchor-5" 0 0 basechar 0
AnchorPoint: "Anchor-4" 318 0 basechar 0
LayerCount: 2
Fore
SplineSet
584 72 m 2,0,1
 593 60 593 60 593 43 c 0,2,3
 593 22 593 22 578.5 9 c 128,-1,4
 564 -4 564 -4 546 -4 c 0,5,6
 521 -4 521 -4 507 16 c 2,7,-1
 313 276 l 1,8,-1
 123 17 l 2,9,10
 108 -4 108 -4 84 -4 c 0,11,12
 66 -4 66 -4 53.5 8.5 c 128,-1,13
 41 21 41 21 41 37 c 0,14,15
 41 54 41 54 53 70 c 2,16,-1
 258 349 l 1,17,-1
 52 626 l 2,18,19
 42 639 42 639 42 655 c 0,20,21
 42 675 42 675 56.5 689 c 128,-1,22
 71 703 71 703 90 703 c 0,23,24
 101 703 101 703 111.5 698 c 128,-1,25
 122 693 122 693 129 683 c 2,26,-1
 321 425 l 1,27,-1
 511 680 l 2,28,29
 528 702 528 702 549 702 c 0,30,31
 567 702 567 702 580.5 688.5 c 128,-1,32
 594 675 594 675 594 658 c 0,33,34
 594 643 594 643 584 629 c 2,35,-1
 376 351 l 1,36,-1
 584 72 l 2,0,1
EndSplineSet
EndChar

StartChar: Y
Encoding: 89 89 228
Width: 581
GlyphClass: 2
Flags: W
AnchorPoint: "Anchor-8" 0 0 basechar 0
AnchorPoint: "Anchor-7" 0 0 basechar 0
AnchorPoint: "Anchor-6" 291 700 basechar 0
AnchorPoint: "Anchor-5" 0 0 basechar 0
AnchorPoint: "Anchor-4" 294 -1 basechar 0
LayerCount: 2
Fore
SplineSet
555 625 m 2,1,-1
 340 322 l 1,2,-1
 340 48 l 2,3,4
 340 28 340 28 326.5 14 c 128,-1,5
 313 0 313 0 294 0 c 0,6,7
 274 0 274 0 260 14 c 128,-1,8
 246 28 246 28 246 48 c 2,9,-1
 246 330 l 1,10,-1
 32 619 l 2,11,12
 18 637 18 637 18 655 c 0,13,14
 18 675 18 675 34 689 c 128,-1,15
 50 703 50 703 69 703 c 0,16,17
 92 703 92 703 108 681 c 2,18,-1
 296 421 l 1,19,-1
 477 680 l 2,20,21
 493 703 493 703 517 703 c 0,22,23
 536 703 536 703 550 689 c 128,-1,24
 564 675 564 675 564 655 c 0,25,0
 564 640 564 640 555 625 c 2,1,-1
EndSplineSet
EndChar

StartChar: Z
Encoding: 90 90 238
Width: 646
GlyphClass: 2
Flags: W
AnchorPoint: "Anchor-8" 0 0 basechar 0
AnchorPoint: "Anchor-7" 0 0 basechar 0
AnchorPoint: "Anchor-6" 323 700 basechar 0
AnchorPoint: "Anchor-5" 0 0 basechar 0
AnchorPoint: "Anchor-4" 323 0 basechar 0
LayerCount: 2
Fore
SplineSet
583.5 78.5 m 128,-1,1
 597 66 597 66 597 46 c 256,2,3
 597 26 597 26 583 13 c 128,-1,4
 569 0 569 0 549 0 c 2,5,-1
 93 0 l 2,6,7
 72 0 72 0 57.5 14.5 c 128,-1,8
 43 29 43 29 43 47 c 0,9,10
 43 63 43 63 54 77 c 2,11,-1
 462 609 l 1,12,-1
 127 609 l 2,13,14
 106 609 106 609 92.5 622 c 128,-1,15
 79 635 79 635 79 655 c 256,16,17
 79 675 79 675 92.5 687.5 c 128,-1,18
 106 700 106 700 127 700 c 2,19,-1
 555 700 l 2,20,21
 575 700 575 700 591 686.5 c 128,-1,22
 607 673 607 673 607 653 c 0,23,24
 607 639 607 639 596 623 c 2,25,-1
 188 91 l 1,26,-1
 549 91 l 2,27,0
 570 91 570 91 583.5 78.5 c 128,-1,1
EndSplineSet
EndChar

StartChar: a
Encoding: 97 97 243
Width: 614
GlyphClass: 2
Flags: W
AnchorPoint: "Anchor-8" 0 0 basechar 0
AnchorPoint: "Anchor-7" 0 0 basechar 0
AnchorPoint: "Anchor-6" 298 510 basechar 0
AnchorPoint: "Anchor-5" 550 3 basechar 0
AnchorPoint: "Anchor-4" 301 0 basechar 0
LayerCount: 2
Fore
SplineSet
530.5 517.5 m 128,-1,1
 544 504 544 504 544 482 c 2,2,-1
 544 48 l 2,3,4
 544 28 544 28 530.5 14 c 128,-1,5
 517 0 517 0 496 0 c 256,6,7
 475 0 475 0 462 13.5 c 128,-1,8
 449 27 449 27 449 48 c 2,9,-1
 449 74 l 1,10,11
 423 39 423 39 378 14.5 c 128,-1,12
 333 -10 333 -10 281 -10 c 0,13,14
 213 -10 213 -10 157.5 25 c 128,-1,15
 102 60 102 60 70.5 122.5 c 128,-1,16
 39 185 39 185 39 263 c 256,17,18
 39 341 39 341 70.5 403.5 c 128,-1,19
 102 466 102 466 157 501 c 128,-1,20
 212 536 212 536 278 536 c 0,21,22
 331 536 331 536 376.5 514 c 128,-1,23
 422 492 422 492 449 458 c 1,24,-1
 449 482 l 2,25,26
 449 503 449 503 462 517 c 128,-1,27
 475 531 475 531 496 531 c 256,28,0
 517 531 517 531 530.5 517.5 c 128,-1,1
375.5 102 m 128,-1,30
 412 126 412 126 432.5 168 c 128,-1,31
 453 210 453 210 453 263 c 0,32,33
 453 315 453 315 432.5 357 c 128,-1,34
 412 399 412 399 375.5 423.5 c 128,-1,35
 339 448 339 448 292 448 c 256,36,37
 245 448 245 448 208.5 424 c 128,-1,38
 172 400 172 400 151.5 358 c 128,-1,39
 131 316 131 316 131 263 c 256,40,41
 131 210 131 210 151.5 168 c 128,-1,42
 172 126 172 126 208.5 102 c 128,-1,43
 245 78 245 78 292 78 c 256,44,29
 339 78 339 78 375.5 102 c 128,-1,30
EndSplineSet
Substitution2: "Single Substitution lookup 20 subtable" ordfeminine
Substitution2: "'ss01' Style Set 1 lookup 17 subtable" a.ss01
Substitution2: "'salt' Stylistic Alternatives lookup 16 subtable" a.ss01
EndChar

StartChar: aogonek
Encoding: 261 261 265
Width: 614
GlyphClass: 2
Flags: W
AnchorPoint: "Anchor-8" 0 0 basechar 0
AnchorPoint: "Anchor-7" 0 0 basechar 0
AnchorPoint: "Anchor-6" 308 510 basechar 0
AnchorPoint: "Anchor-5" 550 3 basechar 0
AnchorPoint: "Anchor-4" 308 0 basechar 0
LayerCount: 2
Fore
SplineSet
548 -113 m 128,-1,1
 558 -123 558 -123 558 -140 c 0,2,3
 558 -155 558 -155 543.5 -171 c 128,-1,4
 529 -187 529 -187 505 -197 c 128,-1,5
 481 -207 481 -207 455 -207 c 0,6,7
 408 -207 408 -207 376.5 -180.5 c 128,-1,8
 345 -154 345 -154 345 -105 c 0,9,10
 345 -16 345 -16 449 26 c 1,11,-1
 449 74 l 1,12,13
 423 39 423 39 378 14.5 c 128,-1,14
 333 -10 333 -10 281 -10 c 0,15,16
 213 -10 213 -10 157.5 25 c 128,-1,17
 102 60 102 60 70.5 122.5 c 128,-1,18
 39 185 39 185 39 263 c 256,19,20
 39 341 39 341 70.5 403.5 c 128,-1,21
 102 466 102 466 157 501 c 128,-1,22
 212 536 212 536 278 536 c 0,23,24
 331 536 331 536 376.5 514 c 128,-1,25
 422 492 422 492 449 458 c 1,26,-1
 449 482 l 2,27,28
 449 503 449 503 462 517 c 128,-1,29
 475 531 475 531 496 531 c 256,30,31
 517 531 517 531 530.5 517.5 c 128,-1,32
 544 504 544 504 544 482 c 2,33,-1
 544 23 l 2,34,35
 544 -2 544 -2 516 -11 c 0,36,37
 476 -23 476 -23 450.5 -43 c 128,-1,38
 425 -63 425 -63 425 -87 c 0,39,40
 425 -108 425 -108 436.5 -120 c 128,-1,41
 448 -132 448 -132 464 -132 c 0,42,43
 479 -132 479 -132 488 -120 c 0,44,45
 500 -103 500 -103 523 -103 c 0,46,0
 538 -103 538 -103 548 -113 c 128,-1,1
375.5 102 m 128,-1,48
 412 126 412 126 432.5 168 c 128,-1,49
 453 210 453 210 453 263 c 0,50,51
 453 315 453 315 432.5 357 c 128,-1,52
 412 399 412 399 375.5 423.5 c 128,-1,53
 339 448 339 448 292 448 c 256,54,55
 245 448 245 448 208.5 424 c 128,-1,56
 172 400 172 400 151.5 358 c 128,-1,57
 131 316 131 316 131 263 c 256,58,59
 131 210 131 210 151.5 168 c 128,-1,60
 172 126 172 126 208.5 102 c 128,-1,61
 245 78 245 78 292 78 c 256,62,47
 339 78 339 78 375.5 102 c 128,-1,48
EndSplineSet
Substitution2: "'ss01' Style Set 1 lookup 17 subtable" aogonek.ss01
Substitution2: "'salt' Stylistic Alternatives lookup 16 subtable" aogonek.ss01
EndChar

StartChar: ae
Encoding: 230 230 269
Width: 907
GlyphClass: 2
Flags: W
AnchorPoint: "Anchor-8" 0 0 basechar 0
AnchorPoint: "Anchor-7" 0 0 basechar 0
AnchorPoint: "Anchor-6" 429 515 basechar 0
AnchorPoint: "Anchor-5" 852 10 basechar 0
AnchorPoint: "Anchor-4" 413 0 basechar 0
LayerCount: 2
Fore
SplineSet
853 251.5 m 128,-1,1
 839 239 839 239 820 239 c 2,2,-1
 468 239 l 1,3,4
 475 166 475 166 523.5 122 c 128,-1,5
 572 78 572 78 642 78 c 0,6,7
 690 78 690 78 720 92 c 128,-1,8
 750 106 750 106 773 128 c 0,9,10
 788 137 788 137 802 137 c 0,11,12
 819 137 819 137 830.5 125 c 128,-1,13
 842 113 842 113 842 97 c 0,14,15
 842 76 842 76 822 59 c 0,16,17
 793 30 793 30 745 10 c 128,-1,18
 697 -10 697 -10 646 -10 c 0,19,20
 574 -10 574 -10 516.5 18 c 128,-1,21
 459 46 459 46 424 96 c 1,22,23
 390 53 390 53 338 21.5 c 128,-1,24
 286 -10 286 -10 219 -10 c 0,25,26
 175 -10 175 -10 134 7.5 c 128,-1,27
 93 25 93 25 67 60.5 c 128,-1,28
 41 96 41 96 41 148 c 0,29,30
 41 229 41 229 98.5 274 c 128,-1,31
 156 319 156 319 274 319 c 2,32,-1
 377 319 l 1,33,-1
 377 357 l 2,34,35
 377 410 377 410 344 429 c 128,-1,36
 311 448 311 448 265 448 c 0,37,38
 178 448 178 448 120 373 c 0,39,40
 105 356 105 356 84 356 c 0,41,42
 68 356 68 356 55.5 367 c 128,-1,43
 43 378 43 378 43 394 c 0,44,45
 43 411 43 411 54 426 c 0,46,47
 91 472 91 472 144.5 504 c 128,-1,48
 198 536 198 536 267 536 c 0,49,50
 327 536 327 536 376 517.5 c 128,-1,51
 425 499 425 499 449 459 c 1,52,53
 483 496 483 496 528.5 516 c 128,-1,54
 574 536 574 536 623 536 c 0,55,56
 687 536 687 536 743 503 c 128,-1,57
 799 470 799 470 833 412 c 128,-1,58
 867 354 867 354 868 282 c 0,59,0
 867 264 867 264 853 251.5 c 128,-1,1
526 416.5 m 128,-1,61
 485 385 485 385 472 319 c 1,62,-1
 767 319 l 1,63,-1
 767 327 l 1,64,65
 762 380 762 380 719.5 414 c 128,-1,66
 677 448 677 448 623 448 c 0,67,60
 567 448 567 448 526 416.5 c 128,-1,61
376 239 m 1,69,-1
 266 239 l 2,70,71
 199 239 199 239 167.5 214 c 128,-1,72
 136 189 136 189 136 151 c 0,73,74
 136 115 136 115 162 95.5 c 128,-1,75
 188 76 188 76 223 76 c 0,76,77
 281 76 281 76 324.5 105.5 c 128,-1,78
 368 135 368 135 388 171 c 1,79,68
 379 202 379 202 376 239 c 1,69,-1
EndSplineSet
EndChar

StartChar: b
Encoding: 98 98 271
Width: 614
GlyphClass: 2
Flags: W
AnchorPoint: "Anchor-8" 0 0 basechar 0
AnchorPoint: "Anchor-7" 0 0 basechar 0
AnchorPoint: "Anchor-6" 308 510 basechar 0
AnchorPoint: "Anchor-5" 0 0 basechar 0
AnchorPoint: "Anchor-4" 308 0 basechar 0
LayerCount: 2
Fore
SplineSet
457 501 m 128,-1,1
 512 466 512 466 543.5 404 c 128,-1,2
 575 342 575 342 575 264 c 256,3,4
 575 186 575 186 543.5 123 c 128,-1,5
 512 60 512 60 457 25 c 128,-1,6
 402 -10 402 -10 336 -10 c 0,7,8
 284 -10 284 -10 239 13 c 128,-1,9
 194 36 194 36 166 70 c 1,10,-1
 166 41 l 2,11,12
 166 21 166 21 152.5 7 c 128,-1,13
 139 -7 139 -7 118 -7 c 0,14,15
 98 -7 98 -7 84.5 6.5 c 128,-1,16
 71 20 71 20 71 41 c 2,17,-1
 71 692 l 2,18,19
 71 713 71 713 84 726.5 c 128,-1,20
 97 740 97 740 118 740 c 256,21,22
 139 740 139 740 152.5 726 c 128,-1,23
 166 712 166 712 166 692 c 2,24,-1
 166 448 l 1,25,26
 190 484 190 484 236 510 c 128,-1,27
 282 536 282 536 334 536 c 0,28,0
 402 536 402 536 457 501 c 128,-1,1
406 102.5 m 128,-1,30
 443 127 443 127 463.5 169.5 c 128,-1,31
 484 212 484 212 484 264 c 256,32,33
 484 316 484 316 463.5 358 c 128,-1,34
 443 400 443 400 406 424 c 128,-1,35
 369 448 369 448 323 448 c 0,36,37
 276 448 276 448 239 424 c 128,-1,38
 202 400 202 400 181.5 358.5 c 128,-1,39
 161 317 161 317 161 264 c 256,40,41
 161 211 161 211 181.5 169 c 128,-1,42
 202 127 202 127 239 102.5 c 128,-1,43
 276 78 276 78 323 78 c 0,44,29
 369 78 369 78 406 102.5 c 128,-1,30
EndSplineSet
EndChar

StartChar: c
Encoding: 99 99 272
Width: 514
GlyphClass: 2
Flags: W
AnchorPoint: "Anchor-8" 0 0 basechar 0
AnchorPoint: "Anchor-7" 0 0 basechar 0
AnchorPoint: "Anchor-6" 298 510 basechar 0
AnchorPoint: "Anchor-5" 0 0 basechar 0
AnchorPoint: "Anchor-4" 258 0 basechar 0
LayerCount: 2
Fore
SplineSet
430.5 511 m 128,-1,1
 483 486 483 486 483 447 c 0,2,3
 483 430 483 430 472 416.5 c 128,-1,4
 461 403 461 403 444 403 c 0,5,6
 431 403 431 403 423.5 407 c 128,-1,7
 416 411 416 411 403 420 c 0,8,9
 397 426 397 426 384 434 c 0,10,11
 372 440 372 440 350 444 c 128,-1,12
 328 448 328 448 310 448 c 0,13,14
 258 448 258 448 218 424 c 128,-1,15
 178 400 178 400 156 357.5 c 128,-1,16
 134 315 134 315 134 263 c 0,17,18
 134 210 134 210 155.5 168 c 128,-1,19
 177 126 177 126 216 102 c 128,-1,20
 255 78 255 78 305 78 c 0,21,22
 357 78 357 78 389 94 c 0,23,24
 396 98 396 98 408 107 c 0,25,26
 418 115 418 115 425.5 119 c 128,-1,27
 433 123 433 123 444 123 c 0,28,29
 464 123 464 123 475.5 110.5 c 128,-1,30
 487 98 487 98 487 78 c 0,31,32
 487 57 487 57 460.5 36.5 c 128,-1,33
 434 16 434 16 389.5 3 c 128,-1,34
 345 -10 345 -10 294 -10 c 0,35,36
 218 -10 218 -10 160 25.5 c 128,-1,37
 102 61 102 61 70.5 123.5 c 128,-1,38
 39 186 39 186 39 263 c 256,39,40
 39 340 39 340 72 402.5 c 128,-1,41
 105 465 105 465 164 500.5 c 128,-1,42
 223 536 223 536 299 536 c 0,43,0
 378 536 378 536 430.5 511 c 128,-1,1
EndSplineSet
EndChar

StartChar: ccedilla
Encoding: 231 231 275
Width: 514
GlyphClass: 2
Flags: W
AnchorPoint: "Anchor-8" 0 0 basechar 0
AnchorPoint: "Anchor-7" 0 0 basechar 0
AnchorPoint: "Anchor-6" 0 0 basechar 0
AnchorPoint: "Anchor-5" 0 0 basechar 0
AnchorPoint: "Anchor-4" 258 -148 basechar 0
LayerCount: 2
Fore
SplineSet
464.5 39.5 m 128,-1,1
 442 20 442 20 403 7 c 128,-1,2
 364 -6 364 -6 318 -9 c 1,3,-1
 273 -121 l 2,4,5
 263 -148 263 -148 239 -148 c 0,6,7
 222 -148 222 -148 202.5 -136.5 c 128,-1,8
 183 -125 183 -125 183 -108 c 0,9,10
 183 -94 183 -94 193 -83 c 2,11,-1
 251 -7 l 1,12,13
 187 3 187 3 139 40.5 c 128,-1,14
 91 78 91 78 65 135.5 c 128,-1,15
 39 193 39 193 39 263 c 0,16,17
 39 340 39 340 72 402.5 c 128,-1,18
 105 465 105 465 164 500.5 c 128,-1,19
 223 536 223 536 299 536 c 0,20,21
 378 536 378 536 430.5 511 c 128,-1,22
 483 486 483 486 483 447 c 0,23,24
 483 430 483 430 472 416.5 c 128,-1,25
 461 403 461 403 444 403 c 0,26,27
 431 403 431 403 423.5 407 c 128,-1,28
 416 411 416 411 403 420 c 0,29,30
 397 426 397 426 384 434 c 0,31,32
 372 440 372 440 350 444 c 128,-1,33
 328 448 328 448 310 448 c 0,34,35
 258 448 258 448 218 424 c 128,-1,36
 178 400 178 400 156 357.5 c 128,-1,37
 134 315 134 315 134 263 c 0,38,39
 134 210 134 210 155.5 168 c 128,-1,40
 177 126 177 126 216 102 c 128,-1,41
 255 78 255 78 305 78 c 0,42,43
 357 78 357 78 389 94 c 0,44,45
 396 98 396 98 408 107 c 0,46,47
 418 115 418 115 425.5 119 c 128,-1,48
 433 123 433 123 444 123 c 0,49,50
 464 123 464 123 475.5 110.5 c 128,-1,51
 487 98 487 98 487 78 c 0,52,0
 487 59 487 59 464.5 39.5 c 128,-1,1
EndSplineSet
EndChar

StartChar: uni1E09
Encoding: 7689 7689 276
Width: 514
GlyphClass: 2
Flags: W
AnchorPoint: "Anchor-8" 0 0 basechar 0
AnchorPoint: "Anchor-7" 0 0 basechar 0
AnchorPoint: "Anchor-6" 0 0 basechar 0
AnchorPoint: "Anchor-5" 0 0 basechar 0
AnchorPoint: "Anchor-4" 258 -148 basechar 0
LayerCount: 2
Fore
SplineSet
278 569 m 128,-1,1
 269 576 269 576 270 588 c 0,2,3
 270 596 270 596 276 605 c 2,4,-1
 335 705 l 2,5,6
 355 737 355 737 381 737 c 0,7,8
 403 737 403 737 414.5 725.5 c 128,-1,9
 426 714 426 714 426 695 c 0,10,11
 424 676 424 676 410 660 c 2,12,-1
 335 578 l 2,13,14
 319 562 319 562 296 562 c 0,15,0
 287 562 287 562 278 569 c 128,-1,1
464.5 39.5 m 128,-1,17
 442 20 442 20 403 7 c 128,-1,18
 364 -6 364 -6 318 -9 c 1,19,-1
 273 -121 l 2,20,21
 263 -148 263 -148 239 -148 c 0,22,23
 222 -148 222 -148 202.5 -136.5 c 128,-1,24
 183 -125 183 -125 183 -108 c 0,25,26
 183 -94 183 -94 193 -83 c 2,27,-1
 251 -7 l 1,28,29
 187 3 187 3 139 40.5 c 128,-1,30
 91 78 91 78 65 135.5 c 128,-1,31
 39 193 39 193 39 263 c 0,32,33
 39 340 39 340 72 402.5 c 128,-1,34
 105 465 105 465 164 500.5 c 128,-1,35
 223 536 223 536 299 536 c 0,36,37
 378 536 378 536 430.5 511 c 128,-1,38
 483 486 483 486 483 447 c 0,39,40
 483 430 483 430 472 416.5 c 128,-1,41
 461 403 461 403 444 403 c 0,42,43
 431 403 431 403 423.5 407 c 128,-1,44
 416 411 416 411 403 420 c 0,45,46
 397 426 397 426 384 434 c 0,47,48
 372 440 372 440 350 444 c 128,-1,49
 328 448 328 448 310 448 c 0,50,51
 258 448 258 448 218 424 c 128,-1,52
 178 400 178 400 156 357.5 c 128,-1,53
 134 315 134 315 134 263 c 0,54,55
 134 210 134 210 155.5 168 c 128,-1,56
 177 126 177 126 216 102 c 128,-1,57
 255 78 255 78 305 78 c 0,58,59
 357 78 357 78 389 94 c 0,60,61
 396 98 396 98 408 107 c 0,62,63
 418 115 418 115 425.5 119 c 128,-1,64
 433 123 433 123 444 123 c 0,65,66
 464 123 464 123 475.5 110.5 c 128,-1,67
 487 98 487 98 487 78 c 0,68,16
 487 59 487 59 464.5 39.5 c 128,-1,17
EndSplineSet
EndChar

StartChar: d
Encoding: 100 100 279
Width: 614
GlyphClass: 2
Flags: W
AnchorPoint: "Anchor-8" 594 510 basechar 0
AnchorPoint: "Anchor-7" 473 614 basechar 0
AnchorPoint: "Anchor-6" 308 510 basechar 0
AnchorPoint: "Anchor-5" 0 0 basechar 0
AnchorPoint: "Anchor-4" 308 0 basechar 0
LayerCount: 2
Fore
SplineSet
530.5 726.5 m 128,-1,1
 544 713 544 713 544 692 c 2,2,-1
 544 48 l 2,3,4
 544 28 544 28 530.5 14 c 128,-1,5
 517 0 517 0 496 0 c 256,6,7
 475 0 475 0 462 13.5 c 128,-1,8
 449 27 449 27 449 48 c 2,9,-1
 449 76 l 1,10,11
 424 40 424 40 378.5 15 c 128,-1,12
 333 -10 333 -10 281 -10 c 0,13,14
 213 -10 213 -10 158 25 c 128,-1,15
 103 60 103 60 71 122.5 c 128,-1,16
 39 185 39 185 39 263 c 256,17,18
 39 341 39 341 70.5 403.5 c 128,-1,19
 102 466 102 466 157 501 c 128,-1,20
 212 536 212 536 278 536 c 0,21,22
 331 536 331 536 376 514 c 128,-1,23
 421 492 421 492 449 457 c 1,24,-1
 449 692 l 2,25,26
 449 713 449 713 462 726.5 c 128,-1,27
 475 740 475 740 496 740 c 256,28,0
 517 740 517 740 530.5 726.5 c 128,-1,1
375.5 102 m 128,-1,30
 412 126 412 126 432.5 168 c 128,-1,31
 453 210 453 210 453 263 c 0,32,33
 453 315 453 315 432.5 357.5 c 128,-1,34
 412 400 412 400 375.5 424 c 128,-1,35
 339 448 339 448 292 448 c 256,36,37
 245 448 245 448 208.5 424 c 128,-1,38
 172 400 172 400 151.5 357.5 c 128,-1,39
 131 315 131 315 131 263 c 0,40,41
 131 210 131 210 151.5 168 c 128,-1,42
 172 126 172 126 208.5 102 c 128,-1,43
 245 78 245 78 292 78 c 256,44,29
 339 78 339 78 375.5 102 c 128,-1,30
EndSplineSet
EndChar

StartChar: eth
Encoding: 240 240 280
Width: 571
Flags: W
LayerCount: 2
Fore
SplineSet
507 451 m 128,-1,1
 532 367 532 367 532 282 c 0,2,3
 532 195 532 195 499.5 129.5 c 128,-1,4
 467 64 467 64 411 28.5 c 128,-1,5
 355 -7 355 -7 286 -7 c 0,6,7
 218 -7 218 -7 161.5 29 c 128,-1,8
 105 65 105 65 72 126.5 c 128,-1,9
 39 188 39 188 39 262 c 0,10,11
 39 334 39 334 72.5 395 c 128,-1,12
 106 456 106 456 160.5 491.5 c 128,-1,13
 215 527 215 527 275 527 c 0,14,15
 350 527 350 527 402 477 c 1,16,17
 384 534 384 534 346 574 c 1,18,-1
 193 536 l 2,19,20
 183 534 183 534 177 534 c 0,21,22
 162 534 162 534 152.5 542.5 c 128,-1,23
 143 551 143 551 143 568 c 0,24,25
 143 595 143 595 175 601 c 2,26,-1
 270 625 l 1,27,28
 241 637 241 637 209 646 c 0,29,30
 191 651 191 651 179.5 664 c 128,-1,31
 168 677 168 677 168 693 c 0,32,33
 168 712 168 712 178.5 726 c 128,-1,34
 189 740 189 740 209 740 c 0,35,36
 220 740 220 740 233 737 c 0,37,38
 316 716 316 716 380 658 c 1,39,-1
 450 674 l 2,40,41
 460 676 460 676 465 676 c 0,42,43
 480 676 480 676 490 667 c 128,-1,44
 500 658 500 658 500 642 c 0,45,46
 500 629 500 629 491.5 620 c 128,-1,47
 483 611 483 611 468 609 c 2,48,-1
 433 601 l 1,49,0
 482 535 482 535 507 451 c 128,-1,1
362.5 110.5 m 128,-1,51
 397 134 397 134 417 174 c 128,-1,52
 437 214 437 214 437 262 c 0,53,54
 437 308 437 308 417 347.5 c 128,-1,55
 397 387 397 387 362.5 410 c 128,-1,56
 328 433 328 433 286 433 c 256,57,58
 244 433 244 433 209 410.5 c 128,-1,59
 174 388 174 388 154 349 c 128,-1,60
 134 310 134 310 134 262 c 256,61,62
 134 214 134 214 154 174 c 128,-1,63
 174 134 174 134 209 110.5 c 128,-1,64
 244 87 244 87 286 87 c 256,65,50
 328 87 328 87 362.5 110.5 c 128,-1,51
EndSplineSet
EndChar

StartChar: dcroat
Encoding: 273 273 282
Width: 614
GlyphClass: 2
Flags: W
AnchorPoint: "Anchor-8" 594 510 basechar 0
AnchorPoint: "Anchor-7" 473 614 basechar 0
AnchorPoint: "Anchor-6" 308 510 basechar 0
AnchorPoint: "Anchor-5" 0 0 basechar 0
AnchorPoint: "Anchor-4" 308 0 basechar 0
LayerCount: 2
Fore
SplineSet
599.5 647 m 128,-1,1
 613 635 613 635 613 616 c 256,2,3
 613 597 613 597 599.5 584.5 c 128,-1,4
 586 572 586 572 565 572 c 2,5,-1
 544 572 l 1,6,-1
 544 48 l 2,7,8
 544 28 544 28 530.5 14 c 128,-1,9
 517 0 517 0 496 0 c 256,10,11
 475 0 475 0 462 13.5 c 128,-1,12
 449 27 449 27 449 48 c 2,13,-1
 449 76 l 1,14,15
 424 40 424 40 378.5 15 c 128,-1,16
 333 -10 333 -10 281 -10 c 0,17,18
 213 -10 213 -10 158 25 c 128,-1,19
 103 60 103 60 71 122.5 c 128,-1,20
 39 185 39 185 39 263 c 256,21,22
 39 341 39 341 70.5 403.5 c 128,-1,23
 102 466 102 466 157 501 c 128,-1,24
 212 536 212 536 278 536 c 0,25,26
 331 536 331 536 376 514 c 128,-1,27
 421 492 421 492 449 457 c 1,28,-1
 449 572 l 1,29,-1
 395 572 l 2,30,31
 374 572 374 572 360.5 584.5 c 128,-1,32
 347 597 347 597 347 616 c 256,33,34
 347 635 347 635 360.5 647 c 128,-1,35
 374 659 374 659 395 659 c 2,36,-1
 449 659 l 1,37,-1
 449 692 l 2,38,39
 449 713 449 713 462 726.5 c 128,-1,40
 475 740 475 740 496 740 c 256,41,42
 517 740 517 740 530.5 726.5 c 128,-1,43
 544 713 544 713 544 692 c 2,44,-1
 544 659 l 1,45,-1
 565 659 l 2,46,0
 586 659 586 659 599.5 647 c 128,-1,1
375.5 102 m 128,-1,48
 412 126 412 126 432.5 168 c 128,-1,49
 453 210 453 210 453 263 c 0,50,51
 453 315 453 315 432.5 357.5 c 128,-1,52
 412 400 412 400 375.5 424 c 128,-1,53
 339 448 339 448 292 448 c 256,54,55
 245 448 245 448 208.5 424 c 128,-1,56
 172 400 172 400 151.5 357.5 c 128,-1,57
 131 315 131 315 131 263 c 0,58,59
 131 210 131 210 151.5 168 c 128,-1,60
 172 126 172 126 208.5 102 c 128,-1,61
 245 78 245 78 292 78 c 256,62,47
 339 78 339 78 375.5 102 c 128,-1,48
EndSplineSet
EndChar

StartChar: e
Encoding: 101 101 286
Width: 570
GlyphClass: 2
Flags: W
AnchorPoint: "Anchor-8" 0 0 basechar 0
AnchorPoint: "Anchor-7" 0 0 basechar 0
AnchorPoint: "Anchor-6" 286 510 basechar 0
AnchorPoint: "Anchor-5" 513 10 basechar 0
AnchorPoint: "Anchor-4" 285 0 basechar 0
LayerCount: 2
Fore
SplineSet
516 251.5 m 128,-1,1
 502 239 502 239 483 239 c 2,2,-1
 131 239 l 1,3,4
 138 166 138 166 186.5 122 c 128,-1,5
 235 78 235 78 305 78 c 0,6,7
 353 78 353 78 383 92 c 128,-1,8
 413 106 413 106 436 128 c 0,9,10
 451 137 451 137 465 137 c 0,11,12
 482 137 482 137 493.5 125 c 128,-1,13
 505 113 505 113 505 97 c 0,14,15
 505 76 505 76 485 59 c 0,16,17
 456 30 456 30 408 10 c 128,-1,18
 360 -10 360 -10 310 -10 c 0,19,20
 229 -10 229 -10 167.5 24 c 128,-1,21
 106 58 106 58 72.5 119 c 128,-1,22
 39 180 39 180 39 257 c 0,23,24
 39 341 39 341 73.5 404.5 c 128,-1,25
 108 468 108 468 164.5 502 c 128,-1,26
 221 536 221 536 286 536 c 0,27,28
 350 536 350 536 406 503 c 128,-1,29
 462 470 462 470 496 412 c 128,-1,30
 530 354 530 354 531 282 c 0,31,0
 530 264 530 264 516 251.5 c 128,-1,1
189 416.5 m 128,-1,33
 148 385 148 385 135 319 c 1,34,-1
 430 319 l 1,35,-1
 430 327 l 1,36,37
 425 380 425 380 382.5 414 c 128,-1,38
 340 448 340 448 286 448 c 0,39,32
 230 448 230 448 189 416.5 c 128,-1,33
EndSplineSet
EndChar

StartChar: uni1E1D
Encoding: 7709 7709 290
Width: 570
GlyphClass: 2
Flags: W
AnchorPoint: "Anchor-8" 0 0 basechar 0
AnchorPoint: "Anchor-7" 0 0 basechar 0
AnchorPoint: "Anchor-6" 0 0 basechar 0
AnchorPoint: "Anchor-5" 513 10 basechar 0
AnchorPoint: "Anchor-4" 285 -148 basechar 0
LayerCount: 2
Fore
SplineSet
189 600.5 m 128,-1,1
 149 629 149 629 136 676 c 0,2,3
 133 684 133 684 133 691 c 0,4,5
 133 704 133 704 141 712 c 128,-1,6
 149 720 149 720 162 720 c 0,7,8
 178 720 178 720 188.5 712.5 c 128,-1,9
 199 705 199 705 210 689 c 1,10,11
 219 666 219 666 238 654 c 128,-1,12
 257 642 257 642 283 642 c 256,13,14
 309 642 309 642 327.5 654 c 128,-1,15
 346 666 346 666 355 689 c 1,16,17
 366 705 366 705 376.5 712.5 c 128,-1,18
 387 720 387 720 403 720 c 0,19,20
 416 720 416 720 424.5 712.5 c 128,-1,21
 433 705 433 705 433 692 c 0,22,23
 433 686 433 686 430 678 c 0,24,25
 417 630 417 630 377 601 c 128,-1,26
 337 572 337 572 283 572 c 256,27,0
 229 572 229 572 189 600.5 c 128,-1,1
516 251.5 m 128,-1,29
 502 239 502 239 483 239 c 2,30,-1
 131 239 l 1,31,32
 138 166 138 166 186.5 122 c 128,-1,33
 235 78 235 78 305 78 c 0,34,35
 353 78 353 78 383 92 c 128,-1,36
 413 106 413 106 436 128 c 0,37,38
 451 137 451 137 465 137 c 0,39,40
 482 137 482 137 493.5 125 c 128,-1,41
 505 113 505 113 505 97 c 0,42,43
 505 76 505 76 485 59 c 0,44,45
 461 35 461 35 424.5 17 c 128,-1,46
 388 -1 388 -1 347 -7 c 1,47,-1
 301 -121 l 2,48,49
 291 -148 291 -148 266 -148 c 0,50,51
 249 -148 249 -148 229.5 -136.5 c 128,-1,52
 210 -125 210 -125 210 -108 c 0,53,54
 210 -94 210 -94 220 -83 c 2,55,-1
 277 -8 l 1,56,57
 205 -2 205 -2 151 34 c 128,-1,58
 97 70 97 70 68 127.5 c 128,-1,59
 39 185 39 185 39 257 c 0,60,61
 39 341 39 341 73.5 404.5 c 128,-1,62
 108 468 108 468 164.5 502 c 128,-1,63
 221 536 221 536 286 536 c 0,64,65
 350 536 350 536 406 503 c 128,-1,66
 462 470 462 470 496 412 c 128,-1,67
 530 354 530 354 531 282 c 0,68,28
 530 264 530 264 516 251.5 c 128,-1,29
189 416.5 m 128,-1,70
 148 385 148 385 135 319 c 1,71,-1
 430 319 l 1,72,-1
 430 327 l 1,73,74
 425 380 425 380 382.5 414 c 128,-1,75
 340 448 340 448 286 448 c 0,76,69
 230 448 230 448 189 416.5 c 128,-1,70
EndSplineSet
EndChar

StartChar: eogonek
Encoding: 281 281 307
Width: 570
GlyphClass: 2
Flags: W
AnchorPoint: "Anchor-8" 0 0 basechar 0
AnchorPoint: "Anchor-7" 0 0 basechar 0
AnchorPoint: "Anchor-6" 290 510 basechar 0
AnchorPoint: "Anchor-5" 513 10 basechar 0
AnchorPoint: "Anchor-4" 285 0 basechar 0
LayerCount: 2
Fore
SplineSet
516 251.5 m 128,-1,1
 502 239 502 239 483 239 c 2,2,-1
 131 239 l 1,3,4
 138 166 138 166 186.5 122 c 128,-1,5
 235 78 235 78 305 78 c 0,6,7
 353 78 353 78 383 92 c 128,-1,8
 413 106 413 106 436 128 c 0,9,10
 449 137 449 137 465 137 c 0,11,12
 483 137 483 137 495 123 c 128,-1,13
 507 109 507 109 507 94 c 0,14,15
 507 73 507 73 486 58 c 0,16,17
 479 52 479 52 446.5 24 c 128,-1,18
 414 -4 414 -4 398.5 -29.5 c 128,-1,19
 383 -55 383 -55 383 -81 c 0,20,21
 383 -101 383 -101 394 -113 c 128,-1,22
 405 -125 405 -125 422 -125 c 0,23,24
 438 -125 438 -125 447 -113 c 0,25,26
 459 -96 459 -96 481 -96 c 0,27,28
 496 -96 496 -96 506 -106 c 128,-1,29
 516 -116 516 -116 516 -133 c 0,30,31
 516 -148 516 -148 501 -163.5 c 128,-1,32
 486 -179 486 -179 462.5 -189.5 c 128,-1,33
 439 -200 439 -200 414 -200 c 0,34,35
 367 -200 367 -200 335 -173.5 c 128,-1,36
 303 -147 303 -147 303 -98 c 0,37,38
 303 -45 303 -45 342 -8 c 1,39,40
 320 -10 320 -10 310 -10 c 0,41,42
 229 -10 229 -10 167.5 24 c 128,-1,43
 106 58 106 58 72.5 119 c 128,-1,44
 39 180 39 180 39 257 c 0,45,46
 39 341 39 341 73.5 404.5 c 128,-1,47
 108 468 108 468 164.5 502 c 128,-1,48
 221 536 221 536 286 536 c 0,49,50
 350 536 350 536 406 503 c 128,-1,51
 462 470 462 470 496 412 c 128,-1,52
 530 354 530 354 531 282 c 0,53,0
 530 264 530 264 516 251.5 c 128,-1,1
187.5 416.5 m 128,-1,55
 147 385 147 385 135 319 c 1,56,-1
 430 319 l 1,57,-1
 430 327 l 1,58,59
 425 380 425 380 382.5 414 c 128,-1,60
 340 448 340 448 286 448 c 0,61,54
 228 448 228 448 187.5 416.5 c 128,-1,55
EndSplineSet
EndChar

StartChar: uni0259
Encoding: 601 601 309
Width: 570
GlyphClass: 2
Flags: W
AnchorPoint: "Anchor-8" 0 0 basechar 0
AnchorPoint: "Anchor-7" 0 0 basechar 0
AnchorPoint: "Anchor-6" 285 511 basechar 0
AnchorPoint: "Anchor-5" 57 501 basechar 0
AnchorPoint: "Anchor-4" 284 1 basechar 0
LayerCount: 2
Fore
SplineSet
403 487 m 128,-1,1
 464 453 464 453 497.5 392.5 c 128,-1,2
 531 332 531 332 531 254 c 0,3,4
 531 170 531 170 496.5 106.5 c 128,-1,5
 462 43 462 43 405.5 9.5 c 128,-1,6
 349 -24 349 -24 284 -24 c 0,7,8
 220 -24 220 -24 164 8.5 c 128,-1,9
 108 41 108 41 74 99 c 128,-1,10
 40 157 40 157 39 229 c 0,11,12
 40 248 40 248 54 260.5 c 128,-1,13
 68 273 68 273 87 273 c 2,14,-1
 439 273 l 1,15,16
 431 346 431 346 382.5 390 c 128,-1,17
 334 434 334 434 265 434 c 0,18,19
 218 434 218 434 188 420 c 128,-1,20
 158 406 158 406 134 384 c 0,21,22
 119 375 119 375 105 375 c 0,23,24
 88 375 88 375 76.5 387 c 128,-1,25
 65 399 65 399 65 415 c 0,26,27
 65 436 65 436 85 452 c 0,28,29
 114 481 114 481 162 501 c 128,-1,30
 210 521 210 521 261 521 c 0,31,0
 342 521 342 521 403 487 c 128,-1,1
381 95 m 128,-1,33
 422 126 422 126 435 192 c 1,34,-1
 140 192 l 1,35,-1
 140 185 l 1,36,37
 145 132 145 132 187.5 98 c 128,-1,38
 230 64 230 64 284 64 c 0,39,32
 340 64 340 64 381 95 c 128,-1,33
EndSplineSet
EndChar

StartChar: f
Encoding: 102 102 310
Width: 390
GlyphClass: 2
Flags: W
AnchorPoint: "Anchor-8" 0 0 basechar 0
AnchorPoint: "Anchor-7" 0 0 basechar 0
AnchorPoint: "Anchor-6" 196 510 basechar 0
AnchorPoint: "Anchor-5" 0 0 basechar 0
AnchorPoint: "Anchor-4" 196 0 basechar 0
LayerCount: 2
Fore
SplineSet
246.5 634 m 128,-1,1
 231 614 231 614 231 585 c 2,2,-1
 231 515 l 1,3,-1
 330 515 l 2,4,5
 350 515 350 515 362.5 502.5 c 128,-1,6
 375 490 375 490 375 471 c 256,7,8
 375 452 375 452 362.5 440 c 128,-1,9
 350 428 350 428 330 428 c 2,10,-1
 231 428 l 1,11,-1
 231 48 l 2,12,13
 231 28 231 28 217.5 14 c 128,-1,14
 204 0 204 0 183 0 c 0,15,16
 163 0 163 0 149.5 14 c 128,-1,17
 136 28 136 28 136 48 c 2,18,-1
 136 428 l 1,19,-1
 74 428 l 2,20,21
 55 428 55 428 42 440 c 128,-1,22
 29 452 29 452 29 471 c 256,23,24
 29 490 29 490 42 502.5 c 128,-1,25
 55 515 55 515 74 515 c 2,26,-1
 136 515 l 1,27,-1
 136 585 l 2,28,29
 136 655 136 655 181 696.5 c 128,-1,30
 226 738 226 738 308 738 c 0,31,32
 342 738 342 738 368 725.5 c 128,-1,33
 394 713 394 713 394 688 c 0,34,35
 394 669 394 669 382.5 656.5 c 128,-1,36
 371 644 371 644 355 644 c 0,37,38
 351 644 351 644 333 648 c 0,39,40
 311 654 311 654 295 654 c 0,41,0
 262 654 262 654 246.5 634 c 128,-1,1
EndSplineSet
EndChar

StartChar: g
Encoding: 103 103 311
Width: 627
GlyphClass: 2
Flags: W
AnchorPoint: "Anchor-8" 0 0 basechar 0
AnchorPoint: "Anchor-7" 0 0 basechar 0
AnchorPoint: "Anchor-6" 314 510 basechar 0
AnchorPoint: "Anchor-5" 0 0 basechar 0
AnchorPoint: "Anchor-4" 314 0 basechar 0
LayerCount: 2
Fore
SplineSet
543.5 517.5 m 128,-1,1
 557 504 557 504 557 482 c 2,2,-1
 557 42 l 2,3,4
 557 -39 557 -39 522.5 -93.5 c 128,-1,5
 488 -148 488 -148 429 -174 c 128,-1,6
 370 -200 370 -200 296 -200 c 0,7,8
 256 -200 256 -200 202.5 -186 c 128,-1,9
 149 -172 149 -172 134 -157 c 1,10,11
 103 -141 103 -141 103 -117 c 0,12,13
 103 -111 103 -111 107 -101 c 0,14,15
 118 -76 118 -76 144 -76 c 0,16,17
 157 -76 157 -76 172 -82 c 0,18,19
 252 -113 252 -113 297 -113 c 0,20,21
 377 -113 377 -113 419.5 -74.5 c 128,-1,22
 462 -36 462 -36 462 31 c 2,23,-1
 462 85 l 1,24,25
 441 46 441 46 391.5 18 c 128,-1,26
 342 -10 342 -10 287 -10 c 0,27,28
 218 -10 218 -10 161 25 c 128,-1,29
 104 60 104 60 71.5 122.5 c 128,-1,30
 39 185 39 185 39 263 c 256,31,32
 39 341 39 341 71.5 403.5 c 128,-1,33
 104 466 104 466 160.5 501 c 128,-1,34
 217 536 217 536 285 536 c 0,35,36
 340 536 340 536 387.5 511 c 128,-1,37
 435 486 435 486 462 450 c 1,38,-1
 462 482 l 2,39,40
 462 503 462 503 475 517 c 128,-1,41
 488 531 488 531 509 531 c 256,42,0
 530 531 530 531 543.5 517.5 c 128,-1,1
385 101.5 m 128,-1,44
 423 125 423 125 444.5 167.5 c 128,-1,45
 466 210 466 210 466 263 c 256,46,47
 466 316 466 316 444.5 358 c 128,-1,48
 423 400 423 400 385 424 c 128,-1,49
 347 448 347 448 298 448 c 0,50,51
 250 448 250 448 212 424 c 128,-1,52
 174 400 174 400 152.5 357.5 c 128,-1,53
 131 315 131 315 131 263 c 256,54,55
 131 211 131 211 152.5 168.5 c 128,-1,56
 174 126 174 126 212 102 c 128,-1,57
 250 78 250 78 298 78 c 0,58,43
 347 78 347 78 385 101.5 c 128,-1,44
EndSplineSet
Substitution2: "'ss01' Style Set 1 lookup 17 subtable" g.ss01
Substitution2: "'salt' Stylistic Alternatives lookup 16 subtable" g.ss01
EndChar

StartChar: uni0123
Encoding: 291 291 315
Width: 627
GlyphClass: 2
Flags: W
AnchorPoint: "Anchor-8" 0 0 basechar 0
AnchorPoint: "Anchor-7" 0 0 basechar 0
AnchorPoint: "Anchor-6" 314 510 basechar 0
AnchorPoint: "Anchor-5" 0 0 basechar 0
AnchorPoint: "Anchor-4" 314 0 basechar 0
LayerCount: 2
Fore
SplineSet
273.5 605.5 m 128,-1,1
 252 629 252 629 252 670 c 0,2,3
 252 695 252 695 268 727.5 c 128,-1,4
 284 760 284 760 309 782.5 c 128,-1,5
 334 805 334 805 360 805 c 0,6,7
 377 805 377 805 387.5 797 c 128,-1,8
 398 789 398 789 398 773 c 0,9,10
 398 759 398 759 391 753.5 c 128,-1,11
 384 748 384 748 374.5 745 c 128,-1,12
 365 742 365 742 360 740 c 0,13,14
 347 733 347 733 339.5 721.5 c 128,-1,15
 332 710 332 710 332 696 c 0,16,17
 332 685 332 685 341 677 c 128,-1,18
 350 669 350 669 364 669 c 0,19,20
 380 669 380 669 391 677 c 1,21,22
 401 671 401 671 406 663.5 c 128,-1,23
 411 656 411 656 411 644 c 0,24,25
 410 620 410 620 384.5 601 c 128,-1,26
 359 582 359 582 332 582 c 0,27,0
 295 582 295 582 273.5 605.5 c 128,-1,1
543.5 517.5 m 128,-1,29
 557 504 557 504 557 482 c 2,30,-1
 557 42 l 2,31,32
 557 -39 557 -39 522.5 -93.5 c 128,-1,33
 488 -148 488 -148 429 -174 c 128,-1,34
 370 -200 370 -200 296 -200 c 0,35,36
 256 -200 256 -200 202.5 -186 c 128,-1,37
 149 -172 149 -172 134 -157 c 1,38,39
 103 -141 103 -141 103 -117 c 0,40,41
 103 -111 103 -111 107 -101 c 0,42,43
 118 -76 118 -76 144 -76 c 0,44,45
 157 -76 157 -76 172 -82 c 0,46,47
 252 -113 252 -113 297 -113 c 0,48,49
 377 -113 377 -113 419.5 -74.5 c 128,-1,50
 462 -36 462 -36 462 31 c 2,51,-1
 462 85 l 1,52,53
 441 46 441 46 391.5 18 c 128,-1,54
 342 -10 342 -10 287 -10 c 0,55,56
 218 -10 218 -10 161 25 c 128,-1,57
 104 60 104 60 71.5 122.5 c 128,-1,58
 39 185 39 185 39 263 c 256,59,60
 39 341 39 341 71.5 403.5 c 128,-1,61
 104 466 104 466 160.5 501 c 128,-1,62
 217 536 217 536 285 536 c 0,63,64
 340 536 340 536 387.5 511 c 128,-1,65
 435 486 435 486 462 450 c 1,66,-1
 462 482 l 2,67,68
 462 503 462 503 475 517 c 128,-1,69
 488 531 488 531 509 531 c 256,70,28
 530 531 530 531 543.5 517.5 c 128,-1,29
385 101.5 m 128,-1,72
 423 125 423 125 444.5 167.5 c 128,-1,73
 466 210 466 210 466 263 c 256,74,75
 466 316 466 316 444.5 358 c 128,-1,76
 423 400 423 400 385 424 c 128,-1,77
 347 448 347 448 298 448 c 0,78,79
 250 448 250 448 212 424 c 128,-1,80
 174 400 174 400 152.5 357.5 c 128,-1,81
 131 315 131 315 131 263 c 256,82,83
 131 211 131 211 152.5 168.5 c 128,-1,84
 174 126 174 126 212 102 c 128,-1,85
 250 78 250 78 298 78 c 0,86,71
 347 78 347 78 385 101.5 c 128,-1,72
EndSplineSet
Substitution2: "'ss01' Style Set 1 lookup 17 subtable" uni0123.ss01
Substitution2: "'salt' Stylistic Alternatives lookup 16 subtable" uni0123.ss01
EndChar

StartChar: h
Encoding: 104 104 318
Width: 579
GlyphClass: 2
Flags: W
AnchorPoint: "Anchor-8" 0 0 basechar 0
AnchorPoint: "Anchor-7" 120 592 basechar 0
AnchorPoint: "Anchor-6" 118 728 basechar 0
AnchorPoint: "Anchor-5" 0 0 basechar 0
AnchorPoint: "Anchor-4" 289 0 basechar 0
LayerCount: 2
Fore
SplineSet
508 315 m 2,1,-1
 508 48 l 2,2,3
 508 28 508 28 494.5 14 c 128,-1,4
 481 0 481 0 460 0 c 0,5,6
 440 0 440 0 426.5 14 c 128,-1,7
 413 28 413 28 413 48 c 2,8,-1
 413 315 l 2,9,10
 413 445 413 445 303 445 c 0,11,12
 244 445 244 445 205 407.5 c 128,-1,13
 166 370 166 370 166 315 c 2,14,-1
 166 48 l 2,15,16
 166 28 166 28 152.5 14 c 128,-1,17
 139 0 139 0 118 0 c 256,18,19
 97 0 97 0 84 13.5 c 128,-1,20
 71 27 71 27 71 48 c 2,21,-1
 71 692 l 2,22,23
 71 712 71 712 84.5 726 c 128,-1,24
 98 740 98 740 118 740 c 0,25,26
 139 740 139 740 152.5 726 c 128,-1,27
 166 712 166 712 166 692 c 2,28,-1
 166 439 l 1,29,30
 191 478 191 478 236 505.5 c 128,-1,31
 281 533 281 533 332 533 c 0,32,0
 508 533 508 533 508 315 c 2,1,-1
EndSplineSet
EndChar

StartChar: hbar
Encoding: 295 295 319
Width: 579
GlyphClass: 2
Flags: W
AnchorPoint: "Anchor-8" 0 0 basechar 0
AnchorPoint: "Anchor-7" 120 592 basechar 0
AnchorPoint: "Anchor-6" 118 728 basechar 0
AnchorPoint: "Anchor-5" 0 0 basechar 0
AnchorPoint: "Anchor-4" 289 0 basechar 0
LayerCount: 2
Fore
SplineSet
508 315 m 2,1,-1
 508 48 l 2,2,3
 508 28 508 28 494.5 14 c 128,-1,4
 481 0 481 0 460 0 c 0,5,6
 440 0 440 0 426.5 14 c 128,-1,7
 413 28 413 28 413 48 c 2,8,-1
 413 315 l 2,9,10
 413 445 413 445 303 445 c 0,11,12
 244 445 244 445 205 407.5 c 128,-1,13
 166 370 166 370 166 315 c 2,14,-1
 166 48 l 2,15,16
 166 28 166 28 152.5 14 c 128,-1,17
 139 0 139 0 118 0 c 256,18,19
 97 0 97 0 84 13.5 c 128,-1,20
 71 27 71 27 71 48 c 2,21,-1
 71 550 l 1,22,-1
 42 550 l 2,23,24
 21 550 21 550 7.5 562.5 c 128,-1,25
 -6 575 -6 575 -6 595 c 0,26,27
 -6 614 -6 614 7.5 626 c 128,-1,28
 21 638 21 638 42 638 c 2,29,-1
 71 638 l 1,30,-1
 71 692 l 2,31,32
 71 712 71 712 84.5 726 c 128,-1,33
 98 740 98 740 118 740 c 0,34,35
 139 740 139 740 152.5 726 c 128,-1,36
 166 712 166 712 166 692 c 2,37,-1
 166 638 l 1,38,-1
 212 638 l 2,39,40
 233 638 233 638 246.5 626 c 128,-1,41
 260 614 260 614 260 595 c 0,42,43
 260 575 260 575 246.5 562.5 c 128,-1,44
 233 550 233 550 212 550 c 2,45,-1
 166 550 l 1,46,-1
 166 439 l 1,47,48
 191 478 191 478 236 505.5 c 128,-1,49
 281 533 281 533 332 533 c 0,50,0
 508 533 508 533 508 315 c 2,1,-1
EndSplineSet
EndChar

StartChar: dotlessi
Encoding: 305 305 324
Width: 227
GlyphClass: 2
Flags: W
AnchorPoint: "Anchor-8" 0 0 basechar 0
AnchorPoint: "Anchor-7" 0 0 basechar 0
AnchorPoint: "Anchor-6" 113 510 basechar 0
AnchorPoint: "Anchor-5" 197 10 basechar 0
AnchorPoint: "Anchor-4" 113 0 basechar 0
LayerCount: 2
Fore
SplineSet
147.5 14 m 128,-1,1
 134 0 134 0 113 0 c 0,2,3
 93 0 93 0 79.5 14 c 128,-1,4
 66 28 66 28 66 48 c 2,5,-1
 66 481 l 2,6,7
 66 501 66 501 79.5 515 c 128,-1,8
 93 529 93 529 113 529 c 0,9,10
 134 529 134 529 147.5 515 c 128,-1,11
 161 501 161 501 161 481 c 2,12,-1
 161 48 l 2,13,0
 161 28 161 28 147.5 14 c 128,-1,1
EndSplineSet
EndChar

StartChar: iogonek
Encoding: 303 303 339
Width: 227
GlyphClass: 2
Flags: W
AnchorPoint: "Anchor-8" 0 0 basechar 0
AnchorPoint: "Anchor-7" 0 0 basechar 0
AnchorPoint: "Anchor-6" 113 510 basechar 0
AnchorPoint: "Anchor-5" 197 10 basechar 0
AnchorPoint: "Anchor-4" 114 0 basechar 0
LayerCount: 2
Fore
SplineSet
71.5 605.5 m 128,-1,1
 59 616 59 616 59 639 c 2,2,-1
 59 655 l 2,3,4
 59 678 59 678 72.5 688.5 c 128,-1,5
 86 699 86 699 114 699 c 256,6,7
 142 699 142 699 154.5 688.5 c 128,-1,8
 167 678 167 678 167 655 c 2,9,-1
 167 639 l 2,10,11
 167 615 167 615 154 605 c 128,-1,12
 141 595 141 595 113 595 c 0,13,0
 84 595 84 595 71.5 605.5 c 128,-1,1
185 -106 m 128,-1,15
 195 -116 195 -116 195 -133 c 0,16,17
 195 -148 195 -148 180.5 -164 c 128,-1,18
 166 -180 166 -180 142.5 -190 c 128,-1,19
 119 -200 119 -200 93 -200 c 0,20,21
 46 -200 46 -200 14.5 -173.5 c 128,-1,22
 -17 -147 -17 -147 -17 -98 c 0,23,24
 -17 -55 -17 -55 5 -28 c 128,-1,25
 27 -1 27 -1 66 16 c 1,26,-1
 66 481 l 2,27,28
 66 501 66 501 79.5 515 c 128,-1,29
 93 529 93 529 113 529 c 0,30,31
 134 529 134 529 147.5 515 c 128,-1,32
 161 501 161 501 161 481 c 2,33,-1
 161 53 l 2,34,35
 161 27 161 27 148.5 13 c 128,-1,36
 136 -1 136 -1 111 -15 c 0,37,38
 87 -29 87 -29 75 -42 c 128,-1,39
 63 -55 63 -55 63 -80 c 0,40,41
 63 -101 63 -101 74 -113 c 128,-1,42
 85 -125 85 -125 101 -125 c 256,43,44
 117 -125 117 -125 124 -114 c 0,45,46
 138 -96 138 -96 160 -96 c 0,47,14
 175 -96 175 -96 185 -106 c 128,-1,15
EndSplineSet
EndChar

StartChar: uni0237
Encoding: 567 567 342
Width: 261
GlyphClass: 2
Flags: W
AnchorPoint: "Anchor-8" 0 0 basechar 0
AnchorPoint: "Anchor-7" 0 0 basechar 0
AnchorPoint: "Anchor-6" 132 510 basechar 0
AnchorPoint: "Anchor-5" 0 0 basechar 0
AnchorPoint: "Anchor-4" 150 0 basechar 0
LayerCount: 2
Fore
SplineSet
-7.5 -184 m 128,-1,1
 -20 -171 -20 -171 -20 -153 c 2,2,-1
 -20 -144 l 2,3,4
 -20 -111 -20 -111 21 -101 c 0,5,6
 85 -83 85 -83 85 -1 c 2,7,-1
 85 476 l 2,8,9
 85 496 85 496 98.5 510 c 128,-1,10
 112 524 112 524 133 524 c 0,11,12
 153 524 153 524 166.5 510 c 128,-1,13
 180 496 180 496 180 476 c 2,14,-1
 180 -25 l 2,15,16
 180 -77 180 -77 158.5 -116 c 128,-1,17
 137 -155 137 -155 101 -176 c 128,-1,18
 65 -197 65 -197 24 -197 c 0,19,0
 5 -197 5 -197 -7.5 -184 c 128,-1,1
EndSplineSet
EndChar

StartChar: k
Encoding: 107 107 344
Width: 555
GlyphClass: 2
Flags: W
AnchorPoint: "Anchor-8" 0 0 basechar 0
AnchorPoint: "Anchor-7" 0 0 basechar 0
AnchorPoint: "Anchor-6" 278 510 basechar 0
AnchorPoint: "Anchor-5" 0 0 basechar 0
AnchorPoint: "Anchor-4" 278 0 basechar 0
LayerCount: 2
Fore
SplineSet
514 48 m 0,1,2
 514 28 514 28 498.5 14.5 c 128,-1,3
 483 1 483 1 466 1 c 0,4,5
 444 1 444 1 431 17 c 2,6,-1
 234 226 l 1,7,-1
 174 172 l 1,8,-1
 174 48 l 2,9,10
 174 28 174 28 160.5 14 c 128,-1,11
 147 0 147 0 127 0 c 0,12,13
 106 0 106 0 92.5 14 c 128,-1,14
 79 28 79 28 79 48 c 2,15,-1
 79 692 l 2,16,17
 79 712 79 712 92.5 726 c 128,-1,18
 106 740 106 740 127 740 c 0,19,20
 147 740 147 740 160.5 726 c 128,-1,21
 174 712 174 712 174 692 c 2,22,-1
 174 286 l 1,23,-1
 419 511 l 2,24,25
 436 526 436 526 454 526 c 0,26,27
 471 526 471 526 485 511.5 c 128,-1,28
 499 497 499 497 499 481 c 0,29,30
 499 461 499 461 480 445 c 2,31,-1
 307 291 l 1,32,-1
 499 83 l 2,33,0
 514 67 514 67 514 48 c 0,1,2
EndSplineSet
EndChar

StartChar: kgreenlandic
Encoding: 312 312 346
Width: 555
GlyphClass: 2
Flags: W
AnchorPoint: "Anchor-8" 0 0 basechar 0
AnchorPoint: "Anchor-7" 0 0 basechar 0
AnchorPoint: "Anchor-6" 300 510 basechar 0
AnchorPoint: "Anchor-5" 0 0 basechar 0
AnchorPoint: "Anchor-4" 300 0 basechar 0
LayerCount: 2
Fore
SplineSet
514 48 m 0,1,2
 514 28 514 28 498 14.5 c 128,-1,3
 482 1 482 1 466 1 c 0,4,5
 444 1 444 1 431 17 c 2,6,-1
 234 226 l 1,7,-1
 174 172 l 1,8,-1
 174 48 l 2,9,10
 174 28 174 28 160.5 14 c 128,-1,11
 147 0 147 0 127 0 c 0,12,13
 106 0 106 0 92.5 14 c 128,-1,14
 79 28 79 28 79 48 c 2,15,-1
 79 476 l 2,16,17
 79 496 79 496 92.5 510 c 128,-1,18
 106 524 106 524 127 524 c 0,19,20
 147 524 147 524 160.5 510 c 128,-1,21
 174 496 174 496 174 476 c 2,22,-1
 174 286 l 1,23,-1
 419 511 l 2,24,25
 436 526 436 526 454 526 c 0,26,27
 471 526 471 526 485 511.5 c 128,-1,28
 499 497 499 497 499 481 c 0,29,30
 499 461 499 461 480 445 c 2,31,-1
 307 291 l 1,32,-1
 499 83 l 2,33,0
 514 67 514 67 514 48 c 0,1,2
EndSplineSet
EndChar

StartChar: l
Encoding: 108 108 347
Width: 253
GlyphClass: 2
Flags: W
AnchorPoint: "Anchor-8" 233 585 basechar 0
AnchorPoint: "Anchor-7" 127 292 basechar 0
AnchorPoint: "Anchor-6" 127 740 basechar 0
AnchorPoint: "Anchor-5" 0 0 basechar 0
AnchorPoint: "Anchor-4" 127 0 basechar 0
LayerCount: 2
Fore
SplineSet
160 14 m 128,-1,1
 146 0 146 0 126 0 c 256,2,3
 106 0 106 0 92.5 14 c 128,-1,4
 79 28 79 28 79 48 c 2,5,-1
 79 692 l 2,6,7
 79 712 79 712 93 726 c 128,-1,8
 107 740 107 740 127 740 c 256,9,10
 147 740 147 740 160.5 726 c 128,-1,11
 174 712 174 712 174 692 c 2,12,-1
 174 48 l 2,13,0
 174 28 174 28 160 14 c 128,-1,1
EndSplineSet
EndChar

StartChar: lcaron
Encoding: 318 318 349
Width: 378
Flags: W
LayerCount: 2
Fore
SplineSet
159 14 m 128,-1,1
 145 0 145 0 124 0 c 0,2,3
 104 0 104 0 91 14 c 128,-1,4
 78 28 78 28 78 48 c 2,5,-1
 78 692 l 2,6,7
 78 712 78 712 91.5 726 c 128,-1,8
 105 740 105 740 126 740 c 0,9,10
 146 740 146 740 159.5 726 c 128,-1,11
 173 712 173 712 173 692 c 2,12,-1
 173 48 l 2,13,0
 173 28 173 28 159 14 c 128,-1,1
374 532.5 m 128,-1,15
 358 500 358 500 333 477.5 c 128,-1,16
 308 455 308 455 282 455 c 0,17,18
 265 455 265 455 254.5 463 c 128,-1,19
 244 471 244 471 244 487 c 0,20,21
 244 501 244 501 251 506.5 c 128,-1,22
 258 512 258 512 267.5 515 c 128,-1,23
 277 518 277 518 282 520 c 0,24,25
 295 527 295 527 302.5 538.5 c 128,-1,26
 310 550 310 550 310 564 c 0,27,28
 310 575 310 575 301 583 c 128,-1,29
 292 591 292 591 278 591 c 0,30,31
 262 591 262 591 251 583 c 1,32,33
 241 589 241 589 236 596.5 c 128,-1,34
 231 604 231 604 231 616 c 0,35,36
 232 640 232 640 257.5 658.5 c 128,-1,37
 283 677 283 677 310 677 c 0,38,39
 347 677 347 677 368.5 654 c 128,-1,40
 390 631 390 631 390 590 c 0,41,14
 390 565 390 565 374 532.5 c 128,-1,15
EndSplineSet
EndChar

StartChar: lslash
Encoding: 322 322 355
Width: 254
GlyphClass: 2
Flags: W
AnchorPoint: "Anchor-8" 233 585 basechar 0
AnchorPoint: "Anchor-7" 127 292 basechar 0
AnchorPoint: "Anchor-6" 127 740 basechar 0
AnchorPoint: "Anchor-5" 0 0 basechar 0
AnchorPoint: "Anchor-4" 127 0 basechar 0
LayerCount: 2
Fore
SplineSet
264 458 m 128,-1,1
 275 445 275 445 275 431 c 0,2,3
 275 419 275 419 268 409 c 128,-1,4
 261 399 261 399 249 394 c 2,5,-1
 174 359 l 1,6,-1
 174 48 l 2,7,8
 174 28 174 28 160 14 c 128,-1,9
 146 0 146 0 126 0 c 256,10,11
 106 0 106 0 92.5 14 c 128,-1,12
 79 28 79 28 79 48 c 2,13,-1
 79 316 l 1,14,-1
 43 299 l 2,15,16
 34 295 34 295 23 295 c 0,17,18
 6 295 6 295 -4.5 308 c 128,-1,19
 -15 321 -15 321 -15 336 c 0,20,21
 -15 347 -15 347 -8.5 357 c 128,-1,22
 -2 367 -2 367 10 372 c 2,23,-1
 79 404 l 1,24,-1
 79 692 l 2,25,26
 79 712 79 712 93 726 c 128,-1,27
 107 740 107 740 127 740 c 256,28,29
 147 740 147 740 160.5 726 c 128,-1,30
 174 712 174 712 174 692 c 2,31,-1
 174 448 l 1,32,-1
 216 467 l 2,33,34
 228 471 228 471 236 471 c 0,35,0
 253 471 253 471 264 458 c 128,-1,1
EndSplineSet
EndChar

StartChar: m
Encoding: 109 109 356
Width: 918
GlyphClass: 2
Flags: W
AnchorPoint: "Anchor-8" 0 0 basechar 0
AnchorPoint: "Anchor-7" 0 0 basechar 0
AnchorPoint: "Anchor-6" 459 510 basechar 0
AnchorPoint: "Anchor-5" 0 0 basechar 0
AnchorPoint: "Anchor-4" 459 0 basechar 0
LayerCount: 2
Fore
SplineSet
847 315 m 2,1,-1
 847 48 l 2,2,3
 847 27 847 27 834 13.5 c 128,-1,4
 821 0 821 0 800 0 c 256,5,6
 779 0 779 0 765.5 14 c 128,-1,7
 752 28 752 28 752 48 c 2,8,-1
 752 314 l 2,9,10
 752 445 752 445 642 445 c 0,11,12
 603 445 603 445 571.5 427.5 c 128,-1,13
 540 410 540 410 522.5 380 c 128,-1,14
 505 350 505 350 505 314 c 2,15,-1
 505 48 l 2,16,17
 505 28 505 28 491.5 14 c 128,-1,18
 478 0 478 0 457 0 c 256,19,20
 436 0 436 0 423 13.5 c 128,-1,21
 410 27 410 27 410 48 c 2,22,-1
 410 315 l 2,23,24
 410 374 410 374 385 409.5 c 128,-1,25
 360 445 360 445 302 445 c 0,26,27
 243 445 243 445 204.5 407.5 c 128,-1,28
 166 370 166 370 166 315 c 2,29,-1
 166 48 l 2,30,31
 166 28 166 28 152.5 14 c 128,-1,32
 139 0 139 0 118 0 c 256,33,34
 97 0 97 0 84 13.5 c 128,-1,35
 71 27 71 27 71 48 c 2,36,-1
 71 476 l 2,37,38
 71 496 71 496 84.5 510 c 128,-1,39
 98 524 98 524 118 524 c 0,40,41
 139 524 139 524 152.5 510 c 128,-1,42
 166 496 166 496 166 476 c 2,43,-1
 166 441 l 1,44,45
 192 480 192 480 235.5 506.5 c 128,-1,46
 279 533 279 533 330 533 c 0,47,48
 454 533 454 533 491 423 c 1,49,50
 513 465 513 465 564 499 c 128,-1,51
 615 533 615 533 672 533 c 0,52,0
 847 533 847 533 847 315 c 2,1,-1
EndSplineSet
EndChar

StartChar: n
Encoding: 110 110 358
Width: 589
GlyphClass: 2
Flags: W
AnchorPoint: "Anchor-8" 0 0 basechar 0
AnchorPoint: "Anchor-7" 0 0 basechar 0
AnchorPoint: "Anchor-6" 294 510 basechar 0
AnchorPoint: "Anchor-5" 0 0 basechar 0
AnchorPoint: "Anchor-4" 294 0 basechar 0
LayerCount: 2
Fore
SplineSet
518 320 m 2,1,-1
 518 48 l 2,2,3
 518 28 518 28 504.5 14 c 128,-1,4
 491 0 491 0 470 0 c 0,5,6
 450 0 450 0 436.5 14 c 128,-1,7
 423 28 423 28 423 48 c 2,8,-1
 423 319 l 2,9,10
 423 378 423 378 396 413 c 128,-1,11
 369 448 369 448 308 448 c 0,12,13
 268 448 268 448 235.5 430.5 c 128,-1,14
 203 413 203 413 184.5 383.5 c 128,-1,15
 166 354 166 354 166 319 c 2,16,-1
 166 48 l 2,17,18
 166 28 166 28 152.5 14 c 128,-1,19
 139 0 139 0 118 0 c 256,20,21
 97 0 97 0 84 13.5 c 128,-1,22
 71 27 71 27 71 48 c 2,23,-1
 71 476 l 2,24,25
 71 496 71 496 84.5 510 c 128,-1,26
 98 524 98 524 118 524 c 0,27,28
 139 524 139 524 152.5 510 c 128,-1,29
 166 496 166 496 166 476 c 2,30,-1
 166 441 l 1,31,32
 192 481 192 481 238.5 508.5 c 128,-1,33
 285 536 285 536 338 536 c 0,34,0
 518 536 518 536 518 320 c 2,1,-1
EndSplineSet
EndChar

StartChar: eng
Encoding: 331 331 365
Width: 589
GlyphClass: 2
Flags: W
AnchorPoint: "Anchor-8" 0 0 basechar 0
AnchorPoint: "Anchor-7" 0 0 basechar 0
AnchorPoint: "Anchor-6" 294 510 basechar 0
AnchorPoint: "Anchor-5" 0 0 basechar 0
AnchorPoint: "Anchor-4" 286 0 basechar 0
LayerCount: 2
Fore
SplineSet
518 320 m 2,1,-1
 518 -23 l 2,2,3
 518 -111 518 -111 470.5 -155.5 c 128,-1,4
 423 -200 423 -200 344 -200 c 0,5,6
 320 -200 320 -200 305 -189 c 128,-1,7
 290 -178 290 -178 290 -158 c 0,8,9
 290 -139 290 -139 303 -126 c 128,-1,10
 316 -113 316 -113 336 -112 c 0,11,12
 383 -111 383 -111 403 -90.5 c 128,-1,13
 423 -70 423 -70 423 -27 c 2,14,-1
 423 319 l 2,15,16
 423 378 423 378 396 413 c 128,-1,17
 369 448 369 448 308 448 c 0,18,19
 268 448 268 448 235.5 430.5 c 128,-1,20
 203 413 203 413 184.5 383.5 c 128,-1,21
 166 354 166 354 166 319 c 2,22,-1
 166 48 l 2,23,24
 166 28 166 28 152.5 14 c 128,-1,25
 139 0 139 0 118 0 c 256,26,27
 97 0 97 0 84 13.5 c 128,-1,28
 71 27 71 27 71 48 c 2,29,-1
 71 476 l 2,30,31
 71 496 71 496 84.5 510 c 128,-1,32
 98 524 98 524 118 524 c 0,33,34
 139 524 139 524 152.5 510 c 128,-1,35
 166 496 166 496 166 476 c 2,36,-1
 166 441 l 1,37,38
 192 481 192 481 238.5 508.5 c 128,-1,39
 285 536 285 536 338 536 c 0,40,0
 518 536 518 536 518 320 c 2,1,-1
EndSplineSet
EndChar

StartChar: uni0272
Encoding: 626 626 366
Width: 591
Flags: W
LayerCount: 2
Fore
SplineSet
518 320 m 2,1,-1
 518 48 l 2,2,3
 518 28 518 28 504.5 14 c 128,-1,4
 491 0 491 0 470 0 c 0,5,6
 450 0 450 0 436.5 14 c 128,-1,7
 423 28 423 28 423 48 c 2,8,-1
 423 319 l 2,9,10
 423 378 423 378 396 413 c 128,-1,11
 369 448 369 448 308 448 c 0,12,13
 268 448 268 448 235.5 430.5 c 128,-1,14
 203 413 203 413 184.5 383.5 c 128,-1,15
 166 354 166 354 166 319 c 2,16,-1
 166 -25 l 2,17,18
 166 -130 166 -130 112 -163.5 c 128,-1,19
 58 -197 58 -197 7 -197 c 0,20,21
 -11 -197 -11 -197 -22.5 -184 c 128,-1,22
 -34 -171 -34 -171 -34 -153 c 0,23,24
 -34 -129 -34 -129 -24.5 -118 c 128,-1,25
 -15 -107 -15 -107 6 -101 c 0,26,27
 40 -91 40 -91 55.5 -66 c 128,-1,28
 71 -41 71 -41 71 -1 c 2,29,-1
 71 476 l 2,30,31
 71 496 71 496 84.5 510 c 128,-1,32
 98 524 98 524 118 524 c 0,33,34
 139 524 139 524 152.5 510 c 128,-1,35
 166 496 166 496 166 476 c 2,36,-1
 166 441 l 1,37,38
 192 481 192 481 238.5 508.5 c 128,-1,39
 285 536 285 536 338 536 c 0,40,0
 518 536 518 536 518 320 c 2,1,-1
EndSplineSet
EndChar

StartChar: o
Encoding: 111 111 370
Width: 606
GlyphClass: 2
Flags: W
AnchorPoint: "Anchor-8" 318 530 basechar 0
AnchorPoint: "Anchor-7" 303 256 basechar 0
AnchorPoint: "Anchor-6" 303 513 basechar 0
AnchorPoint: "Anchor-5" 546 10 basechar 0
AnchorPoint: "Anchor-4" 303 0 basechar 0
LayerCount: 2
Fore
SplineSet
532 122 m 128,-1,1
 497 60 497 60 436.5 25 c 128,-1,2
 376 -10 376 -10 303 -10 c 256,3,4
 230 -10 230 -10 169.5 25 c 128,-1,5
 109 60 109 60 74 122 c 128,-1,6
 39 184 39 184 39 262 c 256,7,8
 39 340 39 340 74 403 c 128,-1,9
 109 466 109 466 169.5 501 c 128,-1,10
 230 536 230 536 303 536 c 256,11,12
 376 536 376 536 436.5 501 c 128,-1,13
 497 466 497 466 532 403 c 128,-1,14
 567 340 567 340 567 262 c 256,15,0
 567 184 567 184 532 122 c 128,-1,1
449.5 358.5 m 128,-1,17
 427 401 427 401 388.5 424.5 c 128,-1,18
 350 448 350 448 303 448 c 256,19,20
 256 448 256 448 217.5 424.5 c 128,-1,21
 179 401 179 401 156.5 358.5 c 128,-1,22
 134 316 134 316 134 262 c 0,23,24
 134 209 134 209 156.5 167 c 128,-1,25
 179 125 179 125 217.5 101.5 c 128,-1,26
 256 78 256 78 303 78 c 256,27,28
 350 78 350 78 388.5 101.5 c 128,-1,29
 427 125 427 125 449.5 167 c 128,-1,30
 472 209 472 209 472 262 c 0,31,16
 472 316 472 316 449.5 358.5 c 128,-1,17
EndSplineSet
Substitution2: "Single Substitution lookup 20 subtable" ordmasculine
EndChar

StartChar: ohorn
Encoding: 417 417 387
Width: 606
GlyphClass: 2
Flags: W
AnchorPoint: "Anchor-8" 318 530 basechar 0
AnchorPoint: "Anchor-7" 303 256 basechar 0
AnchorPoint: "Anchor-6" 300 510 basechar 0
AnchorPoint: "Anchor-5" 546 10 basechar 0
AnchorPoint: "Anchor-4" 300 0 basechar 0
LayerCount: 2
Fore
SplineSet
546 373.5 m 128,-1,1
 567 322 567 322 567 262 c 0,2,3
 567 184 567 184 532 122 c 128,-1,4
 497 60 497 60 436.5 25 c 128,-1,5
 376 -10 376 -10 303 -10 c 256,6,7
 230 -10 230 -10 169.5 25 c 128,-1,8
 109 60 109 60 74 122 c 128,-1,9
 39 184 39 184 39 262 c 256,10,11
 39 340 39 340 74 403 c 128,-1,12
 109 466 109 466 169.5 501 c 128,-1,13
 230 536 230 536 303 536 c 0,14,15
 350 536 350 536 392 521 c 1,16,-1
 392 522 l 1,17,18
 481 522 481 522 481 590 c 0,19,20
 481 608 481 608 492 622 c 128,-1,21
 503 636 503 636 522 636 c 0,22,23
 542 636 542 636 551.5 621.5 c 128,-1,24
 561 607 561 607 561 590 c 0,25,26
 561 547 561 547 542.5 513.5 c 128,-1,27
 524 480 524 480 488 462 c 1,28,0
 525 425 525 425 546 373.5 c 128,-1,1
388.5 101.5 m 128,-1,30
 427 125 427 125 449.5 167 c 128,-1,31
 472 209 472 209 472 262 c 0,32,33
 472 316 472 316 449.5 358.5 c 128,-1,34
 427 401 427 401 388.5 424.5 c 128,-1,35
 350 448 350 448 303 448 c 256,36,37
 256 448 256 448 217.5 424.5 c 128,-1,38
 179 401 179 401 156.5 358.5 c 128,-1,39
 134 316 134 316 134 262 c 0,40,41
 134 209 134 209 156.5 167 c 128,-1,42
 179 125 179 125 217.5 101.5 c 128,-1,43
 256 78 256 78 303 78 c 256,44,29
 350 78 350 78 388.5 101.5 c 128,-1,30
EndSplineSet
EndChar

StartChar: uni01EB
Encoding: 491 491 398
Width: 606
Flags: W
LayerCount: 2
Fore
SplineSet
330 -73 m 0,1,2
 330 -97 330 -97 342 -111 c 128,-1,3
 354 -125 354 -125 372 -125 c 0,4,5
 386 -125 386 -125 395 -114 c 0,6,7
 409 -96 409 -96 431 -96 c 0,8,9
 446 -96 446 -96 455.5 -106 c 128,-1,10
 465 -116 465 -116 465 -133 c 0,11,12
 465 -148 465 -148 450.5 -164 c 128,-1,13
 436 -180 436 -180 412.5 -190 c 128,-1,14
 389 -200 389 -200 363 -200 c 0,15,16
 315 -200 315 -200 282.5 -171.5 c 128,-1,17
 250 -143 250 -143 250 -91 c 0,18,19
 250 -44 250 -44 274 -9 c 1,20,21
 207 -2 207 -2 153.5 34.5 c 128,-1,22
 100 71 100 71 69.5 130 c 128,-1,23
 39 189 39 189 39 262 c 0,24,25
 39 340 39 340 74 403 c 128,-1,26
 109 466 109 466 169.5 501 c 128,-1,27
 230 536 230 536 303 536 c 256,28,29
 376 536 376 536 436.5 501 c 128,-1,30
 497 466 497 466 532 403 c 128,-1,31
 567 340 567 340 567 262 c 0,32,33
 567 178 567 178 526.5 113 c 128,-1,34
 486 48 486 48 418 18 c 0,35,0
 330 -24 330 -24 330 -73 c 0,1,2
156.5 167 m 128,-1,37
 179 125 179 125 217.5 101.5 c 128,-1,38
 256 78 256 78 303 78 c 256,39,40
 350 78 350 78 388.5 101.5 c 128,-1,41
 427 125 427 125 449.5 167 c 128,-1,42
 472 209 472 209 472 262 c 0,43,44
 472 316 472 316 449.5 358.5 c 128,-1,45
 427 401 427 401 388.5 424.5 c 128,-1,46
 350 448 350 448 303 448 c 256,47,48
 256 448 256 448 217.5 424.5 c 128,-1,49
 179 401 179 401 156.5 358.5 c 128,-1,50
 134 316 134 316 134 262 c 0,51,36
 134 209 134 209 156.5 167 c 128,-1,37
EndSplineSet
EndChar

StartChar: oslash
Encoding: 248 248 399
Width: 609
GlyphClass: 2
Flags: W
AnchorPoint: "Anchor-8" 318 530 basechar 0
AnchorPoint: "Anchor-7" 303 256 basechar 0
AnchorPoint: "Anchor-6" 305 510 basechar 0
AnchorPoint: "Anchor-5" 546 10 basechar 0
AnchorPoint: "Anchor-4" 303 0 basechar 0
LayerCount: 2
Fore
SplineSet
567 262 m 0,1,2
 567 184 567 184 532 122 c 128,-1,3
 497 60 497 60 436.5 25 c 128,-1,4
 376 -10 376 -10 303 -10 c 0,5,6
 222 -10 222 -10 158 32 c 1,7,-1
 117 -16 l 2,8,9
 104 -31 104 -31 86 -31 c 0,10,11
 69 -31 69 -31 57 -18.5 c 128,-1,12
 45 -6 45 -6 45 9 c 0,13,14
 45 26 45 26 55 37 c 2,15,-1
 97 87 l 1,16,17
 39 161 39 161 39 262 c 0,18,19
 39 340 39 340 74 403 c 128,-1,20
 109 466 109 466 169.5 501 c 128,-1,21
 230 536 230 536 303 536 c 0,22,23
 381 536 381 536 446 495 c 1,24,-1
 475 530 l 2,25,26
 488 545 488 545 506 545 c 0,27,28
 523 545 523 545 535 533 c 128,-1,29
 547 521 547 521 547 504 c 256,30,31
 547 487 547 487 537 477 c 2,32,-1
 506 441 l 1,33,0
 567 366 567 366 567 262 c 0,1,2
160 160 m 1,35,-1
 386 426 l 1,36,37
 348 448 348 448 303 448 c 0,38,39
 256 448 256 448 217.5 424.5 c 128,-1,40
 179 401 179 401 156.5 358.5 c 128,-1,41
 134 316 134 316 134 262 c 0,42,34
 134 207 134 207 160 160 c 1,35,-1
388.5 101.5 m 128,-1,44
 427 125 427 125 449.5 167 c 128,-1,45
 472 209 472 209 472 262 c 0,46,47
 472 323 472 323 444 368 c 1,48,-1
 217 102 l 1,49,50
 255 78 255 78 303 78 c 0,51,43
 350 78 350 78 388.5 101.5 c 128,-1,44
EndSplineSet
EndChar

StartChar: oe
Encoding: 339 339 405
Width: 1004
GlyphClass: 2
Flags: W
AnchorPoint: "Anchor-8" 318 530 basechar 0
AnchorPoint: "Anchor-7" 303 256 basechar 0
AnchorPoint: "Anchor-6" 580 510 basechar 0
AnchorPoint: "Anchor-5" 947 10 basechar 0
AnchorPoint: "Anchor-4" 580 0 basechar 0
LayerCount: 2
Fore
SplineSet
566 239 m 1,0,-1
 566 234 l 1,1,2
 575 163 575 163 623 120.5 c 128,-1,3
 671 78 671 78 739 78 c 0,4,5
 787 78 787 78 817 92 c 128,-1,6
 847 106 847 106 870 128 c 0,7,8
 885 137 885 137 899 137 c 0,9,10
 915 137 915 137 927 124.5 c 128,-1,11
 939 112 939 112 939 97 c 0,12,13
 939 76 939 76 919 59 c 0,14,15
 890 30 890 30 841.5 10 c 128,-1,16
 793 -10 793 -10 743 -10 c 0,17,18
 669 -10 669 -10 611 19 c 128,-1,19
 553 48 553 48 518 100 c 1,20,21
 482 48 482 48 426 19 c 128,-1,22
 370 -10 370 -10 303 -10 c 0,23,24
 230 -10 230 -10 169.5 25 c 128,-1,25
 109 60 109 60 74 122 c 128,-1,26
 39 184 39 184 39 262 c 256,27,28
 39 340 39 340 74 403 c 128,-1,29
 109 466 109 466 169.5 501 c 128,-1,30
 230 536 230 536 303 536 c 0,31,32
 370 536 370 536 427 506.5 c 128,-1,33
 484 477 484 477 519 424 c 1,34,35
 553 477 553 477 606.5 506.5 c 128,-1,36
 660 536 660 536 720 536 c 0,37,38
 784 536 784 536 840 503 c 128,-1,39
 896 470 896 470 930 412 c 128,-1,40
 964 354 964 354 965 282 c 0,41,42
 964 263 964 263 950 251 c 128,-1,43
 936 239 936 239 917 239 c 2,44,-1
 566 239 l 1,0,-1
388.5 101.5 m 128,-1,46
 427 125 427 125 449.5 167 c 128,-1,47
 472 209 472 209 472 262 c 0,48,49
 472 316 472 316 449.5 358.5 c 128,-1,50
 427 401 427 401 388.5 424.5 c 128,-1,51
 350 448 350 448 303 448 c 256,52,53
 256 448 256 448 217.5 424.5 c 128,-1,54
 179 401 179 401 156.5 358.5 c 128,-1,55
 134 316 134 316 134 262 c 0,56,57
 134 209 134 209 156.5 167 c 128,-1,58
 179 125 179 125 217.5 101.5 c 128,-1,59
 256 78 256 78 303 78 c 256,60,45
 350 78 350 78 388.5 101.5 c 128,-1,46
623 416.5 m 128,-1,62
 582 385 582 385 569 319 c 1,63,-1
 864 319 l 1,64,-1
 864 327 l 1,65,66
 859 380 859 380 816 414 c 128,-1,67
 773 448 773 448 720 448 c 0,68,61
 664 448 664 448 623 416.5 c 128,-1,62
EndSplineSet
EndChar

StartChar: p
Encoding: 112 112 406
Width: 614
GlyphClass: 2
Flags: W
AnchorPoint: "Anchor-8" 0 0 basechar 0
AnchorPoint: "Anchor-7" 0 0 basechar 0
AnchorPoint: "Anchor-6" 308 510 basechar 0
AnchorPoint: "Anchor-5" 0 0 basechar 0
AnchorPoint: "Anchor-4" 308 0 basechar 0
LayerCount: 2
Fore
SplineSet
457 498.5 m 128,-1,1
 512 464 512 464 543.5 402 c 128,-1,2
 575 340 575 340 575 262 c 256,3,4
 575 184 575 184 543.5 122.5 c 128,-1,5
 512 61 512 61 457 26 c 128,-1,6
 402 -9 402 -9 336 -9 c 0,7,8
 284 -9 284 -9 239 14 c 128,-1,9
 194 37 194 37 166 70 c 1,10,-1
 166 -152 l 2,11,12
 166 -172 166 -172 152.5 -186 c 128,-1,13
 139 -200 139 -200 118 -200 c 0,14,15
 98 -200 98 -200 84.5 -186.5 c 128,-1,16
 71 -173 71 -173 71 -152 c 2,17,-1
 71 477 l 2,18,19
 71 498 71 498 84 512 c 128,-1,20
 97 526 97 526 118 526 c 256,21,22
 139 526 139 526 152.5 512 c 128,-1,23
 166 498 166 498 166 477 c 2,24,-1
 166 448 l 1,25,26
 190 483 190 483 236 508 c 128,-1,27
 282 533 282 533 334 533 c 0,28,0
 402 533 402 533 457 498.5 c 128,-1,1
406 103 m 128,-1,30
 443 127 443 127 463.5 168.5 c 128,-1,31
 484 210 484 210 484 262 c 256,32,33
 484 314 484 314 463.5 355.5 c 128,-1,34
 443 397 443 397 406 421 c 128,-1,35
 369 445 369 445 323 445 c 0,36,37
 276 445 276 445 239 421.5 c 128,-1,38
 202 398 202 398 181.5 356 c 128,-1,39
 161 314 161 314 161 262 c 256,40,41
 161 210 161 210 181.5 168 c 128,-1,42
 202 126 202 126 239 102.5 c 128,-1,43
 276 79 276 79 323 79 c 0,44,29
 369 79 369 79 406 103 c 128,-1,30
EndSplineSet
EndChar

StartChar: thorn
Encoding: 254 254 407
Width: 614
GlyphClass: 2
Flags: W
AnchorPoint: "Anchor-8" 0 0 basechar 0
AnchorPoint: "Anchor-7" 0 0 basechar 0
AnchorPoint: "Anchor-6" 282 499 basechar 0
AnchorPoint: "Anchor-5" 0 0 basechar 0
AnchorPoint: "Anchor-4" 282 0 basechar 0
LayerCount: 2
Fore
SplineSet
457 498.5 m 128,-1,1
 512 464 512 464 543.5 402 c 128,-1,2
 575 340 575 340 575 262 c 256,3,4
 575 184 575 184 543.5 122.5 c 128,-1,5
 512 61 512 61 457 26 c 128,-1,6
 402 -9 402 -9 336 -9 c 0,7,8
 284 -9 284 -9 239 14 c 128,-1,9
 194 37 194 37 166 70 c 1,10,-1
 166 -152 l 2,11,12
 166 -172 166 -172 152.5 -186 c 128,-1,13
 139 -200 139 -200 118 -200 c 0,14,15
 98 -200 98 -200 84.5 -186.5 c 128,-1,16
 71 -173 71 -173 71 -152 c 2,17,-1
 71 692 l 2,18,19
 71 713 71 713 84 726.5 c 128,-1,20
 97 740 97 740 118 740 c 256,21,22
 139 740 139 740 152.5 726 c 128,-1,23
 166 712 166 712 166 692 c 2,24,-1
 166 448 l 1,25,26
 190 483 190 483 236 508 c 128,-1,27
 282 533 282 533 334 533 c 0,28,0
 402 533 402 533 457 498.5 c 128,-1,1
406 103 m 128,-1,30
 443 127 443 127 463.5 168.5 c 128,-1,31
 484 210 484 210 484 262 c 256,32,33
 484 314 484 314 463.5 355.5 c 128,-1,34
 443 397 443 397 406 421 c 128,-1,35
 369 445 369 445 323 445 c 0,36,37
 276 445 276 445 239 421.5 c 128,-1,38
 202 398 202 398 181.5 356 c 128,-1,39
 161 314 161 314 161 262 c 256,40,41
 161 210 161 210 181.5 168 c 128,-1,42
 202 126 202 126 239 102.5 c 128,-1,43
 276 79 276 79 323 79 c 0,44,29
 369 79 369 79 406 103 c 128,-1,30
EndSplineSet
EndChar

StartChar: q
Encoding: 113 113 408
Width: 614
GlyphClass: 2
Flags: W
AnchorPoint: "Anchor-8" 0 0 basechar 0
AnchorPoint: "Anchor-7" 0 0 basechar 0
AnchorPoint: "Anchor-6" 308 510 basechar 0
AnchorPoint: "Anchor-5" 0 0 basechar 0
AnchorPoint: "Anchor-4" 308 0 basechar 0
LayerCount: 2
Fore
SplineSet
530.5 512.5 m 128,-1,1
 544 499 544 499 544 477 c 2,2,-1
 544 -152 l 2,3,4
 544 -172 544 -172 530.5 -186 c 128,-1,5
 517 -200 517 -200 496 -200 c 256,6,7
 475 -200 475 -200 462 -186.5 c 128,-1,8
 449 -173 449 -173 449 -152 c 2,9,-1
 449 76 l 1,10,11
 424 40 424 40 378.5 15 c 128,-1,12
 333 -10 333 -10 281 -10 c 0,13,14
 213 -10 213 -10 158 25 c 128,-1,15
 103 60 103 60 71 122.5 c 128,-1,16
 39 185 39 185 39 263 c 256,17,18
 39 341 39 341 70.5 403.5 c 128,-1,19
 102 466 102 466 157 501 c 128,-1,20
 212 536 212 536 278 536 c 0,21,22
 331 536 331 536 376 514 c 128,-1,23
 421 492 421 492 449 457 c 1,24,-1
 449 477 l 2,25,26
 449 498 449 498 462 512 c 128,-1,27
 475 526 475 526 496 526 c 256,28,0
 517 526 517 526 530.5 512.5 c 128,-1,1
375.5 102 m 128,-1,30
 412 126 412 126 432.5 168 c 128,-1,31
 453 210 453 210 453 263 c 0,32,33
 453 315 453 315 432.5 357.5 c 128,-1,34
 412 400 412 400 375.5 424 c 128,-1,35
 339 448 339 448 292 448 c 256,36,37
 245 448 245 448 208.5 424 c 128,-1,38
 172 400 172 400 151.5 357.5 c 128,-1,39
 131 315 131 315 131 263 c 0,40,41
 131 210 131 210 151.5 168 c 128,-1,42
 172 126 172 126 208.5 102 c 128,-1,43
 245 78 245 78 292 78 c 256,44,29
 339 78 339 78 375.5 102 c 128,-1,30
EndSplineSet
EndChar

StartChar: r
Encoding: 114 114 409
Width: 413
GlyphClass: 2
Flags: W
AnchorPoint: "Anchor-8" 0 0 basechar 0
AnchorPoint: "Anchor-7" 0 0 basechar 0
AnchorPoint: "Anchor-6" 207 510 basechar 0
AnchorPoint: "Anchor-5" 0 0 basechar 0
AnchorPoint: "Anchor-4" 116 0 basechar 0
LayerCount: 2
Fore
SplineSet
377 522.5 m 128,-1,1
 396 509 396 509 396 489 c 0,2,3
 396 465 396 465 383.5 452.5 c 128,-1,4
 371 440 371 440 353 440 c 0,5,6
 344 440 344 440 326 446 c 0,7,8
 305 453 305 453 293 453 c 0,9,10
 262 453 262 453 232.5 431.5 c 128,-1,11
 203 410 203 410 184.5 372.5 c 128,-1,12
 166 335 166 335 166 289 c 2,13,-1
 166 48 l 2,14,15
 166 28 166 28 152.5 14 c 128,-1,16
 139 0 139 0 118 0 c 256,17,18
 97 0 97 0 84 13.5 c 128,-1,19
 71 27 71 27 71 48 c 2,20,-1
 71 476 l 2,21,22
 71 496 71 496 84.5 510 c 128,-1,23
 98 524 98 524 118 524 c 0,24,25
 139 524 139 524 152.5 510 c 128,-1,26
 166 496 166 496 166 476 c 2,27,-1
 166 425 l 1,28,29
 188 474 188 474 232 504.5 c 128,-1,30
 276 535 276 535 332 536 c 0,31,0
 358 536 358 536 377 522.5 c 128,-1,1
EndSplineSet
EndChar

StartChar: s
Encoding: 115 115 417
Width: 477
GlyphClass: 2
Flags: W
AnchorPoint: "Anchor-8" 0 0 basechar 0
AnchorPoint: "Anchor-7" 0 0 basechar 0
AnchorPoint: "Anchor-6" 239 510 basechar 0
AnchorPoint: "Anchor-5" 0 0 basechar 0
AnchorPoint: "Anchor-4" 239 0 basechar 0
LayerCount: 2
Fore
SplineSet
32 109 m 0,1,2
 32 129 32 129 53 143 c 0,3,4
 63 150 63 150 76 150 c 0,5,6
 94 150 94 150 109 135 c 0,7,8
 139 101 139 101 173.5 84 c 128,-1,9
 208 67 208 67 256 67 c 0,10,11
 294 68 294 68 323 84.5 c 128,-1,12
 352 101 352 101 352 138 c 0,13,14
 352 172 352 172 322.5 190 c 128,-1,15
 293 208 293 208 236 223 c 0,16,17
 180 238 180 238 143 254.5 c 128,-1,18
 106 271 106 271 80.5 302.5 c 128,-1,19
 55 334 55 334 55 385 c 0,20,21
 55 430 55 430 80.5 464 c 128,-1,22
 106 498 106 498 148.5 517 c 128,-1,23
 191 536 191 536 241 536 c 0,24,25
 289 536 289 536 336.5 518 c 128,-1,26
 384 500 384 500 414 463 c 0,27,28
 426 449 426 449 426 434 c 0,29,30
 426 418 426 418 410 403 c 0,31,32
 400 394 400 394 385 394 c 0,33,34
 367 394 367 394 356 406 c 0,35,36
 335 430 335 430 304.5 443 c 128,-1,37
 274 456 274 456 237 456 c 0,38,39
 199 456 199 456 172.5 440.5 c 128,-1,40
 146 425 146 425 146 388 c 0,41,42
 147 353 147 353 176.5 336 c 128,-1,43
 206 319 206 319 267 303 c 0,44,45
 320 289 320 289 355 273 c 128,-1,46
 390 257 390 257 414 225.5 c 128,-1,47
 438 194 438 194 438 143 c 0,48,49
 438 96 438 96 411 61.5 c 128,-1,50
 384 27 384 27 340.5 8.5 c 128,-1,51
 297 -10 297 -10 248 -10 c 0,52,53
 185 -10 185 -10 131.5 12 c 128,-1,54
 78 34 78 34 41 82 c 0,55,0
 32 96 32 96 32 109 c 0,1,2
EndSplineSet
EndChar

StartChar: scedilla
Encoding: 351 351 422
Width: 477
GlyphClass: 2
Flags: W
AnchorPoint: "Anchor-8" 0 0 basechar 0
AnchorPoint: "Anchor-7" 0 0 basechar 0
AnchorPoint: "Anchor-6" 0 0 basechar 0
AnchorPoint: "Anchor-5" 0 0 basechar 0
AnchorPoint: "Anchor-4" 239 -148 basechar 0
LayerCount: 2
Fore
SplineSet
399.5 47.5 m 128,-1,1
 361 9 361 9 302 -4 c 1,2,-1
 254 -121 l 2,3,4
 244 -148 244 -148 219 -148 c 0,5,6
 203 -148 203 -148 183.5 -136.5 c 128,-1,7
 164 -125 164 -125 164 -108 c 0,8,9
 164 -94 164 -94 174 -83 c 2,10,-1
 230 -10 l 1,11,12
 106 -3 106 -3 41 82 c 0,13,14
 32 96 32 96 32 109 c 0,15,16
 32 129 32 129 53 143 c 0,17,18
 63 150 63 150 76 150 c 0,19,20
 94 150 94 150 109 135 c 0,21,22
 139 101 139 101 173.5 84 c 128,-1,23
 208 67 208 67 256 67 c 0,24,25
 294 68 294 68 323 84.5 c 128,-1,26
 352 101 352 101 352 138 c 0,27,28
 352 172 352 172 322.5 190 c 128,-1,29
 293 208 293 208 236 223 c 0,30,31
 180 238 180 238 143 254.5 c 128,-1,32
 106 271 106 271 80.5 302.5 c 128,-1,33
 55 334 55 334 55 385 c 0,34,35
 55 430 55 430 80.5 464 c 128,-1,36
 106 498 106 498 148.5 517 c 128,-1,37
 191 536 191 536 241 536 c 0,38,39
 289 536 289 536 336.5 518 c 128,-1,40
 384 500 384 500 414 463 c 0,41,42
 426 449 426 449 426 434 c 0,43,44
 426 418 426 418 410 403 c 0,45,46
 400 394 400 394 385 394 c 0,47,48
 367 394 367 394 356 406 c 0,49,50
 335 430 335 430 304.5 443 c 128,-1,51
 274 456 274 456 237 456 c 0,52,53
 199 456 199 456 172.5 440.5 c 128,-1,54
 146 425 146 425 146 388 c 0,55,56
 147 353 147 353 176.5 336 c 128,-1,57
 206 319 206 319 267 303 c 0,58,59
 320 289 320 289 355 273 c 128,-1,60
 390 257 390 257 414 225.5 c 128,-1,61
 438 194 438 194 438 143 c 0,62,0
 438 86 438 86 399.5 47.5 c 128,-1,1
EndSplineSet
Substitution2: "'locl' Localized Forms in Latin lookup 2 subtable" uni0219
Substitution2: "'locl' Localized Forms in Latin lookup 1 subtable" uni0219
EndChar

StartChar: germandbls
Encoding: 223 223 428
Width: 642
Flags: W
LayerCount: 2
Fore
SplineSet
554.5 361 m 128,-1,1
 603 304 603 304 603 219 c 0,2,3
 603 153 603 153 575 101 c 128,-1,4
 547 49 547 49 498.5 19.5 c 128,-1,5
 450 -10 450 -10 391 -10 c 0,6,7
 348 -10 348 -10 316.5 2 c 128,-1,8
 285 14 285 14 268 33 c 0,9,10
 258 45 258 45 258 59 c 0,11,12
 258 78 258 78 277 92 c 0,13,14
 289 102 289 102 302 102 c 0,15,16
 318 102 318 102 333 87 c 0,17,18
 358 67 358 67 394 67 c 0,19,20
 446 67 446 67 477 106.5 c 128,-1,21
 508 146 508 146 508 207 c 0,22,23
 508 344 508 344 365 378 c 0,24,25
 326 388 326 388 326 421 c 0,26,27
 326 451 326 451 351 464 c 0,28,29
 393 480 393 480 416 507 c 128,-1,30
 439 534 439 534 439 566 c 0,31,32
 439 603 439 603 410.5 624 c 128,-1,33
 382 645 382 645 332 645 c 0,34,35
 273 645 273 645 240 605 c 128,-1,36
 207 565 207 565 207 502 c 2,37,-1
 206 48 l 2,38,39
 206 27 206 27 193 13.5 c 128,-1,40
 180 0 180 0 159 0 c 0,41,42
 137 0 137 0 124 13.5 c 128,-1,43
 111 27 111 27 111 48 c 2,44,-1
 112 407 l 1,45,-1
 77 407 l 2,46,47
 57 407 57 407 43 420 c 128,-1,48
 29 433 29 433 29 452 c 0,49,50
 29 472 29 472 43 485 c 128,-1,51
 57 498 57 498 77 498 c 2,52,-1
 112 498 l 1,53,-1
 112 499 l 2,54,55
 112 565 112 565 138 618.5 c 128,-1,56
 164 672 164 672 214.5 703 c 128,-1,57
 265 734 265 734 336 734 c 0,58,59
 398 734 398 734 442.5 713 c 128,-1,60
 487 692 487 692 510 655.5 c 128,-1,61
 533 619 533 619 533 575 c 0,62,63
 533 533 533 533 505 498 c 128,-1,64
 477 463 477 463 434 442 c 1,65,0
 506 418 506 418 554.5 361 c 128,-1,1
EndSplineSet
EndChar

StartChar: t
Encoding: 116 116 429
Width: 380
GlyphClass: 2
Flags: W
AnchorPoint: "Anchor-8" 350 517 basechar 0
AnchorPoint: "Anchor-7" 185 256 basechar 0
AnchorPoint: "Anchor-6" 166 647 basechar 0
AnchorPoint: "Anchor-5" 0 0 basechar 0
AnchorPoint: "Anchor-4" 185 0 basechar 0
LayerCount: 2
Fore
SplineSet
213 431 m 1,0,-1
 213 133 l 2,1,2
 213 83 213 83 258 83 c 0,3,4
 265 83 265 83 277 86.5 c 128,-1,5
 289 90 289 90 296 90 c 0,6,7
 309 90 309 90 318 79 c 128,-1,8
 327 68 327 68 327 51 c 0,9,10
 327 30 327 30 303 15 c 128,-1,11
 279 0 279 0 249 0 c 0,12,13
 216 0 216 0 188.5 7 c 128,-1,14
 161 14 161 14 139.5 42.5 c 128,-1,15
 118 71 118 71 118 129 c 2,16,-1
 118 431 l 1,17,-1
 60 431 l 2,18,19
 41 431 41 431 28.5 443.5 c 128,-1,20
 16 456 16 456 16 475 c 256,21,22
 16 494 16 494 28.5 506 c 128,-1,23
 41 518 41 518 60 518 c 2,24,-1
 118 518 l 1,25,-1
 118 602 l 2,26,27
 118 622 118 622 131.5 636 c 128,-1,28
 145 650 145 650 166 650 c 0,29,30
 186 650 186 650 199.5 636 c 128,-1,31
 213 622 213 622 213 602 c 2,32,-1
 213 518 l 1,33,-1
 296 518 l 2,34,35
 315 518 315 518 327.5 505.5 c 128,-1,36
 340 493 340 493 340 474 c 256,37,38
 340 455 340 455 327.5 443 c 128,-1,39
 315 431 315 431 296 431 c 2,40,-1
 213 431 l 1,0,-1
EndSplineSet
EndChar

StartChar: tbar
Encoding: 359 359 430
Width: 380
GlyphClass: 2
Flags: W
AnchorPoint: "Anchor-8" 350 517 basechar 0
AnchorPoint: "Anchor-7" 185 256 basechar 0
AnchorPoint: "Anchor-6" 166 647 basechar 0
AnchorPoint: "Anchor-5" 0 0 basechar 0
AnchorPoint: "Anchor-4" 185 0 basechar 0
LayerCount: 2
Fore
SplineSet
213 431 m 1,0,-1
 213 301 l 1,1,-1
 277 301 l 2,2,3
 298 301 298 301 311.5 289 c 128,-1,4
 325 277 325 277 325 258 c 0,5,6
 325 238 325 238 311.5 225.5 c 128,-1,7
 298 213 298 213 277 213 c 2,8,-1
 213 213 l 1,9,-1
 213 133 l 2,10,11
 213 83 213 83 258 83 c 0,12,13
 265 83 265 83 277 86.5 c 128,-1,14
 289 90 289 90 296 90 c 0,15,16
 309 90 309 90 318 79 c 128,-1,17
 327 68 327 68 327 51 c 0,18,19
 327 30 327 30 303 15 c 128,-1,20
 279 0 279 0 249 0 c 0,21,22
 216 0 216 0 188.5 7 c 128,-1,23
 161 14 161 14 139.5 42.5 c 128,-1,24
 118 71 118 71 118 129 c 2,25,-1
 118 213 l 1,26,-1
 107 213 l 2,27,28
 86 213 86 213 72.5 225.5 c 128,-1,29
 59 238 59 238 59 258 c 0,30,31
 59 277 59 277 72.5 289 c 128,-1,32
 86 301 86 301 107 301 c 2,33,-1
 118 301 l 1,34,-1
 118 431 l 1,35,-1
 60 431 l 2,36,37
 41 431 41 431 28.5 443.5 c 128,-1,38
 16 456 16 456 16 475 c 256,39,40
 16 494 16 494 28.5 506 c 128,-1,41
 41 518 41 518 60 518 c 2,42,-1
 118 518 l 1,43,-1
 118 602 l 2,44,45
 118 622 118 622 131.5 636 c 128,-1,46
 145 650 145 650 166 650 c 0,47,48
 186 650 186 650 199.5 636 c 128,-1,49
 213 622 213 622 213 602 c 2,50,-1
 213 518 l 1,51,-1
 296 518 l 2,52,53
 315 518 315 518 327.5 505.5 c 128,-1,54
 340 493 340 493 340 474 c 256,55,56
 340 455 340 455 327.5 443 c 128,-1,57
 315 431 315 431 296 431 c 2,58,-1
 213 431 l 1,0,-1
EndSplineSet
EndChar

StartChar: uni0163
Encoding: 355 355 432
Width: 380
GlyphClass: 2
Flags: W
AnchorPoint: "Anchor-8" 350 517 basechar 0
AnchorPoint: "Anchor-7" 185 256 basechar 0
AnchorPoint: "Anchor-6" 0 0 basechar 0
AnchorPoint: "Anchor-5" 0 0 basechar 0
AnchorPoint: "Anchor-4" 185 -148 basechar 0
LayerCount: 2
Fore
SplineSet
213 431 m 1,0,-1
 213 133 l 2,1,2
 213 83 213 83 258 83 c 0,3,4
 265 83 265 83 277 86.5 c 128,-1,5
 289 90 289 90 296 90 c 0,6,7
 309 90 309 90 318 79 c 128,-1,8
 327 68 327 68 327 51 c 0,9,10
 327 30 327 30 303 15 c 128,-1,11
 279 0 279 0 249 0 c 1,12,-1
 200 -121 l 2,13,14
 190 -148 190 -148 166 -148 c 0,15,16
 149 -148 149 -148 129.5 -136.5 c 128,-1,17
 110 -125 110 -125 110 -108 c 0,18,19
 110 -94 110 -94 120 -83 c 2,20,-1
 189 7 l 1,21,22
 118 30 118 30 118 129 c 2,23,-1
 118 431 l 1,24,-1
 60 431 l 2,25,26
 41 431 41 431 28.5 443.5 c 128,-1,27
 16 456 16 456 16 475 c 256,28,29
 16 494 16 494 28.5 506 c 128,-1,30
 41 518 41 518 60 518 c 2,31,-1
 118 518 l 1,32,-1
 118 602 l 2,33,34
 118 622 118 622 131.5 636 c 128,-1,35
 145 650 145 650 166 650 c 0,36,37
 186 650 186 650 199.5 636 c 128,-1,38
 213 622 213 622 213 602 c 2,39,-1
 213 518 l 1,40,-1
 296 518 l 2,41,42
 315 518 315 518 327.5 505.5 c 128,-1,43
 340 493 340 493 340 474 c 256,44,45
 340 455 340 455 327.5 443 c 128,-1,46
 315 431 315 431 296 431 c 2,47,-1
 213 431 l 1,0,-1
EndSplineSet
Substitution2: "'locl' Localized Forms in Latin lookup 2 subtable" uni021B
Substitution2: "'locl' Localized Forms in Latin lookup 1 subtable" uni021B
EndChar

StartChar: u
Encoding: 117 117 437
Width: 580
GlyphClass: 2
Flags: W
AnchorPoint: "Anchor-8" 379 531 basechar 0
AnchorPoint: "Anchor-7" 0 0 basechar 0
AnchorPoint: "Anchor-6" 290 510 basechar 0
AnchorPoint: "Anchor-5" 521 10 basechar 0
AnchorPoint: "Anchor-4" 290 0 basechar 0
LayerCount: 2
Fore
SplineSet
495.5 510 m 128,-1,1
 509 496 509 496 509 476 c 2,2,-1
 509 210 l 2,3,4
 509 106 509 106 451.5 48.5 c 128,-1,5
 394 -9 394 -9 289 -9 c 0,6,7
 185 -9 185 -9 128 48.5 c 128,-1,8
 71 106 71 106 71 210 c 2,9,-1
 71 476 l 2,10,11
 71 496 71 496 84.5 510 c 128,-1,12
 98 524 98 524 118 524 c 0,13,14
 139 524 139 524 152.5 510 c 128,-1,15
 166 496 166 496 166 476 c 2,16,-1
 166 210 l 2,17,18
 166 79 166 79 289 79 c 0,19,20
 350 79 350 79 382 112 c 128,-1,21
 414 145 414 145 414 210 c 2,22,-1
 414 476 l 2,23,24
 414 496 414 496 427.5 510 c 128,-1,25
 441 524 441 524 461 524 c 0,26,0
 482 524 482 524 495.5 510 c 128,-1,1
EndSplineSet
EndChar

StartChar: uhorn
Encoding: 432 432 447
Width: 580
GlyphClass: 2
Flags: W
AnchorPoint: "Anchor-8" 379 531 basechar 0
AnchorPoint: "Anchor-7" 0 0 basechar 0
AnchorPoint: "Anchor-6" 300 510 basechar 0
AnchorPoint: "Anchor-5" 521 10 basechar 0
AnchorPoint: "Anchor-4" 300 0 basechar 0
LayerCount: 2
Fore
SplineSet
592.5 499 m 128,-1,1
 564 461 564 461 509 448 c 1,2,-1
 509 210 l 2,3,4
 509 106 509 106 451.5 48.5 c 128,-1,5
 394 -9 394 -9 289 -9 c 0,6,7
 185 -9 185 -9 128 48.5 c 128,-1,8
 71 106 71 106 71 210 c 2,9,-1
 71 476 l 2,10,11
 71 496 71 496 84.5 510 c 128,-1,12
 98 524 98 524 118 524 c 0,13,14
 139 524 139 524 152.5 510 c 128,-1,15
 166 496 166 496 166 476 c 2,16,-1
 166 210 l 2,17,18
 166 79 166 79 289 79 c 0,19,20
 350 79 350 79 382 112 c 128,-1,21
 414 145 414 145 414 210 c 2,22,-1
 414 476 l 2,23,24
 414 496 414 496 427.5 510 c 128,-1,25
 441 524 441 524 461 524 c 2,26,-1
 468 524 l 1,27,28
 541 529 541 529 541 591 c 0,29,30
 541 609 541 609 552 623 c 128,-1,31
 563 637 563 637 582 637 c 0,32,33
 602 637 602 637 611.5 623 c 128,-1,34
 621 609 621 609 621 591 c 0,35,0
 621 537 621 537 592.5 499 c 128,-1,1
EndSplineSet
EndChar

StartChar: uogonek
Encoding: 371 371 457
Width: 580
Flags: W
LayerCount: 2
Fore
SplineSet
397.5 14 m 128,-1,1
 368 -4 368 -4 351.5 -26.5 c 128,-1,2
 335 -49 335 -49 335 -75 c 0,3,4
 335 -96 335 -96 349.5 -110.5 c 128,-1,5
 364 -125 364 -125 383 -125 c 0,6,7
 398 -125 398 -125 408 -113 c 0,8,9
 422 -96 422 -96 443 -96 c 0,10,11
 458 -96 458 -96 467.5 -106 c 128,-1,12
 477 -116 477 -116 477 -133 c 0,13,14
 477 -148 477 -148 462.5 -164 c 128,-1,15
 448 -180 448 -180 424.5 -190 c 128,-1,16
 401 -200 401 -200 375 -200 c 0,17,18
 325 -200 325 -200 290 -168.5 c 128,-1,19
 255 -137 255 -137 255 -88 c 0,20,21
 255 -48 255 -48 282 -9 c 1,22,23
 181 -7 181 -7 126 50.5 c 128,-1,24
 71 108 71 108 71 210 c 2,25,-1
 71 476 l 2,26,27
 71 496 71 496 84.5 510 c 128,-1,28
 98 524 98 524 118 524 c 0,29,30
 139 524 139 524 152.5 510 c 128,-1,31
 166 496 166 496 166 476 c 2,32,-1
 166 210 l 2,33,34
 166 79 166 79 289 79 c 0,35,36
 350 79 350 79 382 112 c 128,-1,37
 414 145 414 145 414 210 c 2,38,-1
 414 476 l 2,39,40
 414 496 414 496 427.5 510 c 128,-1,41
 441 524 441 524 461 524 c 0,42,43
 482 524 482 524 495.5 510 c 128,-1,44
 509 496 509 496 509 476 c 2,45,-1
 509 210 l 2,46,47
 509 152 509 152 492 109 c 128,-1,48
 475 66 475 66 434 37 c 0,49,0
 427 32 427 32 397.5 14 c 128,-1,1
EndSplineSet
EndChar

StartChar: v
Encoding: 118 118 461
Width: 548
GlyphClass: 2
Flags: W
AnchorPoint: "Anchor-8" 0 0 basechar 0
AnchorPoint: "Anchor-7" 0 0 basechar 0
AnchorPoint: "Anchor-6" 274 510 basechar 0
AnchorPoint: "Anchor-5" 0 0 basechar 0
AnchorPoint: "Anchor-4" 274 0 basechar 0
LayerCount: 2
Fore
SplineSet
503 516.5 m 128,-1,1
 516 504 516 504 516 487 c 0,2,3
 516 478 516 478 509 462 c 2,4,-1
 319 30 l 2,5,6
 313 17 313 17 302 9 c 128,-1,7
 291 1 291 1 278 0 c 0,8,9
 262 -2 262 -2 248.5 6 c 128,-1,10
 235 14 235 14 228 30 c 2,11,-1
 38 462 l 2,12,13
 33 477 33 477 33 487 c 0,14,15
 33 503 33 503 46 516 c 128,-1,16
 59 529 59 529 80 529 c 0,17,18
 95 529 95 529 107 521.5 c 128,-1,19
 119 514 119 514 126 499 c 2,20,-1
 277 148 l 1,21,-1
 428 499 l 2,22,23
 442 529 442 529 471 529 c 0,24,0
 490 529 490 529 503 516.5 c 128,-1,1
EndSplineSet
EndChar

StartChar: w
Encoding: 119 119 462
Width: 761
GlyphClass: 2
Flags: W
AnchorPoint: "Anchor-8" 0 0 basechar 0
AnchorPoint: "Anchor-7" 0 0 basechar 0
AnchorPoint: "Anchor-6" 381 504 basechar 0
AnchorPoint: "Anchor-5" 0 0 basechar 0
AnchorPoint: "Anchor-4" 381 0 basechar 0
LayerCount: 2
Fore
SplineSet
715.5 515.5 m 128,-1,1
 729 502 729 502 729 481 c 0,2,3
 729 474 729 474 725 462 c 2,4,-1
 572 30 l 2,5,6
 566 14 566 14 552 6 c 128,-1,7
 538 -2 538 -2 522 0 c 0,8,9
 495 2 495 2 481 30 c 2,10,-1
 377 302 l 1,11,-1
 281 30 l 2,12,13
 275 16 275 16 264 8.5 c 128,-1,14
 253 1 253 1 240 0 c 0,15,16
 225 -2 225 -2 210.5 6.5 c 128,-1,17
 196 15 196 15 191 30 c 2,18,-1
 36 462 l 2,19,20
 33 471 33 471 33 481 c 0,21,22
 33 501 33 501 46 515 c 128,-1,23
 59 529 59 529 80 529 c 0,24,25
 114 529 114 529 124 499 c 2,26,-1
 243 162 l 1,27,-1
 338 411 l 2,28,29
 350 441 350 441 382 441 c 0,30,31
 412 441 412 441 423 411 c 2,32,-1
 520 166 l 1,33,-1
 637 499 l 2,34,35
 648 529 648 529 683 529 c 0,36,0
 702 529 702 529 715.5 515.5 c 128,-1,1
EndSplineSet
EndChar

StartChar: x
Encoding: 120 120 467
Width: 486
GlyphClass: 2
Flags: W
AnchorPoint: "Anchor-8" 0 0 basechar 0
AnchorPoint: "Anchor-7" 0 0 basechar 0
AnchorPoint: "Anchor-6" 243 510 basechar 0
AnchorPoint: "Anchor-5" 0 0 basechar 0
AnchorPoint: "Anchor-4" 243 0 basechar 0
LayerCount: 2
Fore
SplineSet
463 46 m 0,1,2
 463 26 463 26 448 11.5 c 128,-1,3
 433 -3 433 -3 415 -3 c 0,4,5
 392 -3 392 -3 376 18 c 2,6,-1
 242 187 l 1,7,-1
 110 18 l 2,8,9
 103 8 103 8 93 3 c 128,-1,10
 83 -2 83 -2 72 -2 c 0,11,12
 55 -2 55 -2 40.5 10.5 c 128,-1,13
 26 23 26 23 26 40 c 0,14,15
 26 58 26 58 37 70 c 2,16,-1
 187 257 l 1,17,-1
 33 451 l 2,18,19
 23 464 23 464 23 479 c 0,20,21
 23 499 23 499 37.5 513 c 128,-1,22
 52 527 52 527 71 527 c 0,23,24
 95 527 95 527 110 507 c 2,25,-1
 247 334 l 1,26,-1
 376 506 l 2,27,28
 391 527 391 527 414 527 c 0,29,30
 433 527 433 527 446 514.5 c 128,-1,31
 459 502 459 502 459 485 c 0,32,33
 459 466 459 466 448 454 c 2,34,-1
 300 267 l 1,35,-1
 452 74 l 2,36,0
 463 62 463 62 463 46 c 0,1,2
EndSplineSet
EndChar

StartChar: y
Encoding: 121 121 468
Width: 579
GlyphClass: 2
Flags: W
AnchorPoint: "Anchor-8" 0 0 basechar 0
AnchorPoint: "Anchor-7" 0 0 basechar 0
AnchorPoint: "Anchor-6" 290 510 basechar 0
AnchorPoint: "Anchor-5" 0 0 basechar 0
AnchorPoint: "Anchor-4" 488 0 basechar 0
LayerCount: 2
Fore
SplineSet
495.5 515 m 128,-1,1
 509 501 509 501 509 481 c 2,2,-1
 509 49 l 2,3,4
 509 -76 509 -76 440 -138 c 128,-1,5
 371 -200 371 -200 258 -200 c 0,6,7
 221 -200 221 -200 185 -193 c 128,-1,8
 149 -186 149 -186 126 -174 c 0,9,10
 89 -157 89 -157 89 -128 c 0,11,12
 89 -123 89 -123 91 -115 c 0,13,14
 97 -98 97 -98 108 -89 c 128,-1,15
 119 -80 119 -80 133 -80 c 0,16,17
 141 -80 141 -80 148 -83 c 0,18,19
 179 -97 179 -97 203 -105 c 128,-1,20
 227 -113 227 -113 259 -113 c 0,21,22
 414 -113 414 -113 414 46 c 2,23,-1
 414 66 l 1,24,25
 387 30 387 30 344.5 10 c 128,-1,26
 302 -10 302 -10 247 -10 c 0,27,28
 164 -10 164 -10 117.5 43 c 128,-1,29
 71 96 71 96 71 182 c 2,30,-1
 71 481 l 2,31,32
 71 502 71 502 84 515.5 c 128,-1,33
 97 529 97 529 118 529 c 256,34,35
 139 529 139 529 152.5 515 c 128,-1,36
 166 501 166 501 166 481 c 2,37,-1
 166 207 l 2,38,39
 166 141 166 141 195 109.5 c 128,-1,40
 224 78 224 78 283 78 c 0,41,42
 340 78 340 78 377 114 c 128,-1,43
 414 150 414 150 414 207 c 2,44,-1
 414 481 l 2,45,46
 414 502 414 502 427 515.5 c 128,-1,47
 440 529 440 529 461 529 c 256,48,0
 482 529 482 529 495.5 515 c 128,-1,1
EndSplineSet
EndChar

StartChar: z
Encoding: 122 122 478
Width: 482
GlyphClass: 2
Flags: W
AnchorPoint: "Anchor-8" 0 0 basechar 0
AnchorPoint: "Anchor-7" 0 0 basechar 0
AnchorPoint: "Anchor-6" 248 510 basechar 0
AnchorPoint: "Anchor-5" 0 0 basechar 0
AnchorPoint: "Anchor-4" 240 0 basechar 0
LayerCount: 2
Fore
SplineSet
435 75.5 m 128,-1,1
 448 63 448 63 448 44 c 256,2,3
 448 25 448 25 435 12.5 c 128,-1,4
 422 0 422 0 403 0 c 2,5,-1
 80 0 l 2,6,7
 61 0 61 0 48.5 14 c 128,-1,8
 36 28 36 28 36 43 c 0,9,10
 37 56 37 56 40 64.5 c 128,-1,11
 43 73 43 73 51 84 c 2,12,-1
 313 434 l 1,13,-1
 96 434 l 2,14,15
 77 434 77 434 64 447 c 128,-1,16
 51 460 51 460 51 479 c 256,17,18
 51 498 51 498 63.5 510 c 128,-1,19
 76 522 76 522 96 522 c 2,20,-1
 403 522 l 2,21,22
 422 522 422 522 434.5 508 c 128,-1,23
 447 494 447 494 446 474 c 0,24,25
 445 464 445 464 442.5 456.5 c 128,-1,26
 440 449 440 449 432 440 c 2,27,-1
 168 88 l 1,28,-1
 403 88 l 2,29,0
 422 88 422 88 435 75.5 c 128,-1,1
EndSplineSet
EndChar

StartChar: a.ss01
Encoding: 65540 -1 484
Width: 554
GlyphClass: 2
Flags: W
AnchorPoint: "Anchor-8" 0 0 basechar 0
AnchorPoint: "Anchor-7" 0 0 basechar 0
AnchorPoint: "Anchor-6" 270 515 basechar 0
AnchorPoint: "Anchor-5" 533 0 basechar 0
AnchorPoint: "Anchor-4" 288 0 basechar 0
LayerCount: 2
Fore
SplineSet
534.5 88.5 m 128,-1,1
 542 80 542 80 542 65 c 0,2,3
 542 37 542 37 513.5 18.5 c 128,-1,4
 485 0 485 0 447 0 c 0,5,6
 421 0 421 0 402 16 c 128,-1,7
 383 32 383 32 372 58 c 1,8,9
 347 27 347 27 306.5 8.5 c 128,-1,10
 266 -10 266 -10 220 -10 c 0,11,12
 166 -10 166 -10 126 12.5 c 128,-1,13
 86 35 86 35 65 72.5 c 128,-1,14
 44 110 44 110 44 156 c 0,15,16
 44 211 44 211 73.5 251 c 128,-1,17
 103 291 103 291 149.5 311.5 c 128,-1,18
 196 332 196 332 247 332 c 0,19,20
 317 332 317 332 367 293 c 1,21,-1
 367 346 l 2,22,23
 367 396 367 396 335.5 422 c 128,-1,24
 304 448 304 448 256 448 c 0,25,26
 219 448 219 448 183 433.5 c 128,-1,27
 147 419 147 419 124 391 c 0,28,29
 110 374 110 374 88 374 c 0,30,31
 72 374 72 374 58 388 c 128,-1,32
 44 402 44 402 44 419 c 0,33,34
 44 438 44 438 59 454 c 0,35,36
 86 488 86 488 138 512 c 128,-1,37
 190 536 190 536 259 536 c 0,38,39
 350 536 350 536 405 491 c 128,-1,40
 460 446 460 446 461 352 c 2,41,-1
 462 115 l 2,42,43
 462 102 462 102 467.5 94 c 128,-1,44
 473 86 473 86 480 86 c 0,45,46
 485 86 485 86 496.5 91.5 c 128,-1,47
 508 97 508 97 517 97 c 0,48,0
 527 97 527 97 534.5 88.5 c 128,-1,1
345 95 m 128,-1,50
 377 119 377 119 377 162 c 0,51,52
 377 204 377 204 344.5 228.5 c 128,-1,53
 312 253 312 253 258 253 c 0,54,55
 205 253 205 253 172 228.5 c 128,-1,56
 139 204 139 204 139 162 c 0,57,58
 139 119 139 119 172 95 c 128,-1,59
 205 71 205 71 259 71 c 256,60,49
 313 71 313 71 345 95 c 128,-1,50
EndSplineSet
EndChar

StartChar: aogonek.ss01
Encoding: 65562 -1 506
Width: 550
GlyphClass: 2
Flags: W
AnchorPoint: "Anchor-8" 0 0 basechar 0
AnchorPoint: "Anchor-7" 0 0 basechar 0
AnchorPoint: "Anchor-6" 258 515 basechar 0
AnchorPoint: "Anchor-5" 533 0 basechar 0
AnchorPoint: "Anchor-4" 288 0 basechar 0
LayerCount: 2
Fore
SplineSet
527.5 -116 m 128,-1,1
 537 -126 537 -126 537 -143 c 0,2,3
 537 -158 537 -158 522.5 -174 c 128,-1,4
 508 -190 508 -190 484.5 -200 c 128,-1,5
 461 -210 461 -210 435 -210 c 0,6,7
 388 -210 388 -210 356.5 -183.5 c 128,-1,8
 325 -157 325 -157 325 -108 c 0,9,10
 325 -30 325 -30 404 11 c 1,11,12
 382 22 382 22 372 49 c 1,13,14
 347 21 347 21 308 5.5 c 128,-1,15
 269 -10 269 -10 229 -10 c 0,16,17
 175 -10 175 -10 134 12.5 c 128,-1,18
 93 35 93 35 70.5 74 c 128,-1,19
 48 113 48 113 48 162 c 0,20,21
 48 214 48 214 77.5 252.5 c 128,-1,22
 107 291 107 291 154 311.5 c 128,-1,23
 201 332 201 332 252 332 c 0,24,25
 319 332 319 332 366 296 c 1,26,-1
 366 346 l 2,27,28
 366 399 366 399 335 423.5 c 128,-1,29
 304 448 304 448 256 448 c 0,30,31
 219 448 219 448 184 433.5 c 128,-1,32
 149 419 149 419 127 391 c 0,33,34
 112 374 112 374 91 374 c 0,35,36
 75 374 75 374 61 388 c 128,-1,37
 47 402 47 402 47 419 c 0,38,39
 47 438 47 438 61 454 c 0,40,41
 89 488 89 488 139.5 512 c 128,-1,42
 190 536 190 536 259 536 c 0,43,44
 350 536 350 536 405 492 c 128,-1,45
 460 448 460 448 460 352 c 2,46,-1
 461 112 l 2,47,48
 461 83 461 83 483 83 c 0,49,50
 486 83 486 83 495.5 86.5 c 128,-1,51
 505 90 505 90 514 90 c 0,52,53
 524 90 524 90 531 82 c 128,-1,54
 538 74 538 74 538 58 c 0,55,56
 538 38 538 38 523.5 24.5 c 128,-1,57
 509 11 509 11 481 2 c 0,58,59
 447 -10 447 -10 426 -37.5 c 128,-1,60
 405 -65 405 -65 405 -90 c 0,61,62
 405 -111 405 -111 416.5 -123 c 128,-1,63
 428 -135 428 -135 444 -135 c 0,64,65
 459 -135 459 -135 468 -123 c 0,66,67
 480 -106 480 -106 503 -106 c 0,68,0
 518 -106 518 -106 527.5 -116 c 128,-1,1
345 95 m 128,-1,70
 376 119 376 119 376 162 c 0,71,72
 376 204 376 204 345.5 228.5 c 128,-1,73
 315 253 315 253 263 253 c 0,74,75
 209 253 209 253 177 228.5 c 128,-1,76
 145 204 145 204 145 162 c 0,77,78
 145 119 145 119 176 95 c 128,-1,79
 207 71 207 71 261 71 c 0,80,69
 314 71 314 71 345 95 c 128,-1,70
EndSplineSet
EndChar

StartChar: g.ss01
Encoding: 65566 -1 510
Width: 563
GlyphClass: 2
Flags: W
AnchorPoint: "Anchor-8" 0 0 basechar 0
AnchorPoint: "Anchor-7" 0 0 basechar 0
AnchorPoint: "Anchor-6" 251 499 basechar 0
AnchorPoint: "Anchor-5" 0 0 basechar 0
AnchorPoint: "Anchor-4" 250 0 basechar 0
LayerCount: 2
Fore
SplineSet
530 447 m 2,1,-1
 466 395 l 1,2,3
 475 367 475 367 475 334 c 0,4,5
 475 280 475 280 449.5 237 c 128,-1,6
 424 194 424 194 380 167 c 1,7,8
 458 148 458 148 500 104.5 c 128,-1,9
 542 61 542 61 542 1 c 0,10,11
 542 -57 542 -57 504 -103.5 c 128,-1,12
 466 -150 466 -150 399 -177 c 128,-1,13
 332 -204 332 -204 248 -204 c 0,14,15
 184 -204 184 -204 135.5 -188 c 128,-1,16
 87 -172 87 -172 61 -147.5 c 128,-1,17
 35 -123 35 -123 35 -99 c 0,18,19
 35 -81 35 -81 45.5 -67.5 c 128,-1,20
 56 -54 56 -54 74 -54 c 0,21,22
 87 -54 87 -54 97.5 -60 c 128,-1,23
 108 -66 108 -66 118.5 -74.5 c 128,-1,24
 129 -83 129 -83 135 -88 c 0,25,26
 152 -99 152 -99 184 -108 c 128,-1,27
 216 -117 216 -117 251 -117 c 0,28,29
 338 -117 338 -117 392.5 -87 c 128,-1,30
 447 -57 447 -57 447 -5 c 0,31,32
 447 38 447 38 395.5 67 c 128,-1,33
 344 96 344 96 239 96 c 0,34,35
 222 96 222 96 210.5 101.5 c 128,-1,36
 199 107 199 107 196 121 c 2,37,-1
 191 140 l 1,38,39
 119 157 119 157 74.5 209 c 128,-1,40
 30 261 30 261 30 334 c 0,41,42
 30 392 30 392 59 438 c 128,-1,43
 88 484 88 484 139 510 c 128,-1,44
 190 536 190 536 253 536 c 0,45,46
 306 536 306 536 351 517 c 128,-1,47
 396 498 396 498 426 464 c 1,48,-1
 465 511 l 2,49,50
 478 528 478 528 501 528 c 0,51,52
 520 528 520 528 533.5 514.5 c 128,-1,53
 547 501 547 501 546 481 c 0,54,0
 546 462 546 462 530 447 c 2,1,-1
345 242.5 m 128,-1,56
 381 276 381 276 381 330 c 0,57,58
 381 385 381 385 345 418.5 c 128,-1,59
 309 452 309 452 253 452 c 0,60,61
 196 452 196 452 160.5 418.5 c 128,-1,62
 125 385 125 385 125 330 c 0,63,64
 125 276 125 276 160.5 242.5 c 128,-1,65
 196 209 196 209 253 209 c 0,66,55
 309 209 309 209 345 242.5 c 128,-1,56
EndSplineSet
EndChar

StartChar: uni0123.ss01
Encoding: 65570 -1 514
Width: 546
GlyphClass: 2
Flags: W
AnchorPoint: "Anchor-8" 0 0 basechar 0
AnchorPoint: "Anchor-7" 0 0 basechar 0
AnchorPoint: "Anchor-6" 251 499 basechar 0
AnchorPoint: "Anchor-5" 0 0 basechar 0
AnchorPoint: "Anchor-4" 250 0 basechar 0
LayerCount: 2
Fore
SplineSet
206 602 m 128,-1,1
 185 625 185 625 185 666 c 0,2,3
 185 691 185 691 201 723.5 c 128,-1,4
 217 756 217 756 241.5 778.5 c 128,-1,5
 266 801 266 801 292 801 c 0,6,7
 309 801 309 801 320 793 c 128,-1,8
 331 785 331 785 331 769 c 0,9,10
 331 755 331 755 324 749.5 c 128,-1,11
 317 744 317 744 307.5 741 c 128,-1,12
 298 738 298 738 293 736 c 0,13,14
 265 722 265 722 265 692 c 0,15,16
 265 681 265 681 273.5 673 c 128,-1,17
 282 665 282 665 296 665 c 0,18,19
 312 665 312 665 323 673 c 1,20,21
 333 668 333 668 338 660.5 c 128,-1,22
 343 653 343 653 343 640 c 0,23,24
 342 616 342 616 317 597.5 c 128,-1,25
 292 579 292 579 264 579 c 0,26,0
 227 579 227 579 206 602 c 128,-1,1
530 447 m 2,28,-1
 466 395 l 1,29,30
 475 367 475 367 475 334 c 0,31,32
 475 280 475 280 449.5 237 c 128,-1,33
 424 194 424 194 380 167 c 1,34,35
 458 148 458 148 500 104.5 c 128,-1,36
 542 61 542 61 542 1 c 0,37,38
 542 -57 542 -57 504 -103.5 c 128,-1,39
 466 -150 466 -150 399 -177 c 128,-1,40
 332 -204 332 -204 248 -204 c 0,41,42
 184 -204 184 -204 135.5 -188 c 128,-1,43
 87 -172 87 -172 61 -147.5 c 128,-1,44
 35 -123 35 -123 35 -99 c 0,45,46
 35 -81 35 -81 45.5 -67.5 c 128,-1,47
 56 -54 56 -54 74 -54 c 0,48,49
 87 -54 87 -54 97.5 -60 c 128,-1,50
 108 -66 108 -66 118.5 -74.5 c 128,-1,51
 129 -83 129 -83 135 -88 c 0,52,53
 152 -99 152 -99 184 -108 c 128,-1,54
 216 -117 216 -117 251 -117 c 0,55,56
 338 -117 338 -117 392.5 -87 c 128,-1,57
 447 -57 447 -57 447 -5 c 0,58,59
 447 38 447 38 395.5 67 c 128,-1,60
 344 96 344 96 239 96 c 0,61,62
 222 96 222 96 210.5 101.5 c 128,-1,63
 199 107 199 107 196 121 c 2,64,-1
 191 140 l 1,65,66
 119 157 119 157 74.5 209 c 128,-1,67
 30 261 30 261 30 334 c 0,68,69
 30 392 30 392 59 438 c 128,-1,70
 88 484 88 484 139 510 c 128,-1,71
 190 536 190 536 253 536 c 0,72,73
 306 536 306 536 351 517 c 128,-1,74
 396 498 396 498 426 464 c 1,75,-1
 465 511 l 2,76,77
 478 528 478 528 501 528 c 0,78,79
 520 528 520 528 533.5 514.5 c 128,-1,80
 547 501 547 501 546 481 c 0,81,27
 546 462 546 462 530 447 c 2,28,-1
345 242.5 m 128,-1,83
 381 276 381 276 381 330 c 0,84,85
 381 385 381 385 345 418.5 c 128,-1,86
 309 452 309 452 253 452 c 0,87,88
 196 452 196 452 160.5 418.5 c 128,-1,89
 125 385 125 385 125 330 c 0,90,91
 125 276 125 276 160.5 242.5 c 128,-1,92
 196 209 196 209 253 209 c 0,93,82
 309 209 309 209 345 242.5 c 128,-1,83
EndSplineSet
EndChar

StartChar: ordfeminine
Encoding: 170 170 524
Width: 352
Flags: W
LayerCount: 2
Fore
SplineSet
311.5 705 m 128,-1,1
 323 695 323 695 323 681 c 2,2,-1
 323 435 l 2,3,4
 323 420 323 420 311 410.5 c 128,-1,5
 299 401 299 401 282 401 c 0,6,7
 264 401 264 401 253 411 c 128,-1,8
 242 421 242 421 242 435 c 2,9,-1
 242 458 l 1,10,11
 227 429 227 429 201 410 c 128,-1,12
 175 391 175 391 142 391 c 0,13,14
 81 391 81 391 48 439.5 c 128,-1,15
 15 488 15 488 15 562 c 0,16,17
 15 630 15 630 53 675 c 128,-1,18
 91 720 91 720 154 720 c 0,19,20
 216 720 216 720 242 667 c 1,21,-1
 242 681 l 2,22,23
 242 694 242 694 253.5 704.5 c 128,-1,24
 265 715 265 715 282 715 c 0,25,0
 300 715 300 715 311.5 705 c 128,-1,1
224.5 483.5 m 128,-1,27
 246 510 246 510 246 555 c 0,28,29
 246 601 246 601 225.5 628 c 128,-1,30
 205 655 205 655 170 655 c 0,31,32
 140 655 140 655 118 627.5 c 128,-1,33
 96 600 96 600 96 562 c 0,34,35
 96 516 96 516 115 486.5 c 128,-1,36
 134 457 134 457 170 457 c 0,37,26
 203 457 203 457 224.5 483.5 c 128,-1,27
EndSplineSet
EndChar

StartChar: ordmasculine
Encoding: 186 186 525
Width: 349
Flags: W
LayerCount: 2
Fore
SplineSet
310.5 469 m 128,-1,1
 290 433 290 433 254 412.5 c 128,-1,2
 218 392 218 392 174 392 c 256,3,4
 130 392 130 392 94.5 412.5 c 128,-1,5
 59 433 59 433 38.5 469 c 128,-1,6
 18 505 18 505 18 549 c 0,7,8
 18 594 18 594 38.5 631 c 128,-1,9
 59 668 59 668 94.5 689 c 128,-1,10
 130 710 130 710 174 710 c 256,11,12
 218 710 218 710 254 689 c 128,-1,13
 290 668 290 668 310.5 631 c 128,-1,14
 331 594 331 594 331 549 c 0,15,0
 331 505 331 505 310.5 469 c 128,-1,1
232 614.5 m 128,-1,17
 210 640 210 640 174 640 c 256,18,19
 138 640 138 640 116.5 614.5 c 128,-1,20
 95 589 95 589 95 549 c 0,21,22
 95 511 95 511 116.5 486.5 c 128,-1,23
 138 462 138 462 174 462 c 256,24,25
 210 462 210 462 232 486.5 c 128,-1,26
 254 511 254 511 254 549 c 0,27,16
 254 589 254 589 232 614.5 c 128,-1,17
EndSplineSet
EndChar

StartChar: pi
Encoding: 960 960 526
Width: 599
Flags: W
LayerCount: 2
Fore
SplineSet
113 11.5 m 128,-1,1
 102 23 102 23 102 40 c 2,2,-1
 102 431 l 2,3,4
 102 436 102 436 97 436 c 2,5,-1
 68 436 l 2,6,7
 51 436 51 436 39.5 447.5 c 128,-1,8
 28 459 28 459 28 476 c 256,9,10
 28 493 28 493 39.5 504 c 128,-1,11
 51 515 51 515 68 515 c 2,12,-1
 522 515 l 2,13,14
 539 515 539 515 550.5 503.5 c 128,-1,15
 562 492 562 492 562 475 c 256,16,17
 562 458 562 458 550.5 447 c 128,-1,18
 539 436 539 436 522 436 c 2,19,-1
 492 436 l 2,20,21
 487 436 487 436 487 431 c 2,22,-1
 487 40 l 2,23,24
 487 23 487 23 475.5 11.5 c 128,-1,25
 464 0 464 0 447 0 c 256,26,27
 430 0 430 0 419 11.5 c 128,-1,28
 408 23 408 23 408 40 c 2,29,-1
 408 431 l 2,30,31
 408 436 408 436 403 436 c 2,32,-1
 186 436 l 2,33,34
 181 436 181 436 181 431 c 2,35,-1
 181 40 l 2,36,37
 181 23 181 23 169.5 11.5 c 128,-1,38
 158 0 158 0 141 0 c 256,39,0
 124 0 124 0 113 11.5 c 128,-1,1
EndSplineSet
EndChar

StartChar: zero
Encoding: 48 48 527
Width: 606
GlyphClass: 2
Flags: W
AnchorPoint: "Anchor-3" 0 0 basechar 0
AnchorPoint: "Anchor-2" 0 0 basechar 0
AnchorPoint: "Anchor-1" 0 0 basechar 0
AnchorPoint: "Anchor-0" 302 351 basechar 0
LayerCount: 2
Fore
SplineSet
163 36 m 128,-1,1
 105 82 105 82 75.5 163 c 128,-1,2
 46 244 46 244 46 350 c 256,3,4
 46 456 46 456 75.5 537 c 128,-1,5
 105 618 105 618 163 664 c 128,-1,6
 221 710 221 710 303 710 c 256,7,8
 385 710 385 710 443 664 c 128,-1,9
 501 618 501 618 530.5 537 c 128,-1,10
 560 456 560 456 560 350 c 256,11,12
 560 244 560 244 530.5 163 c 128,-1,13
 501 82 501 82 443 36 c 128,-1,14
 385 -10 385 -10 303 -10 c 256,15,0
 221 -10 221 -10 163 36 c 128,-1,1
416.5 155 m 128,-1,17
 457 224 457 224 457 350 c 256,18,19
 457 476 457 476 416.5 545 c 128,-1,20
 376 614 376 614 303 614 c 256,21,22
 230 614 230 614 189.5 545 c 128,-1,23
 149 476 149 476 149 350 c 256,24,25
 149 224 149 224 189.5 155 c 128,-1,26
 230 86 230 86 303 86 c 256,27,16
 376 86 376 86 416.5 155 c 128,-1,17
EndSplineSet
Substitution2: "'subs' Subscript lookup 18 subtable" uni2080
Substitution2: "'frac' Diagonal Fractions lookup 10 subtable" zero.numr
Substitution2: "'sups' Superscript lookup 8 subtable" uni2070
EndChar

StartChar: one
Encoding: 49 49 528
Width: 351
Flags: W
LayerCount: 2
Fore
SplineSet
255.5 685.5 m 128,-1,1
 268 672 268 672 268 652 c 2,2,-1
 268 48 l 2,3,4
 268 28 268 28 253 14 c 128,-1,5
 238 0 238 0 216 0 c 256,6,7
 194 0 194 0 180 14 c 128,-1,8
 166 28 166 28 166 48 c 2,9,-1
 166 568 l 1,10,-1
 78 515 l 2,11,12
 67 508 67 508 53 508 c 0,13,14
 33 508 33 508 19 523.5 c 128,-1,15
 5 539 5 539 5 557 c 0,16,17
 5 569 5 569 12 580 c 128,-1,18
 19 591 19 591 30 598 c 2,19,-1
 188 693 l 2,20,21
 202 700 202 700 223 700 c 0,22,0
 243 699 243 699 255.5 685.5 c 128,-1,1
EndSplineSet
Substitution2: "'subs' Subscript lookup 18 subtable" uni2081
Substitution2: "'frac' Diagonal Fractions lookup 10 subtable" one.numr
Substitution2: "'sups' Superscript lookup 8 subtable" uni00B9
EndChar

StartChar: two
Encoding: 50 50 529
Width: 549
Flags: W
LayerCount: 2
Fore
SplineSet
500 75 m 128,-1,1
 513 62 513 62 513 43 c 256,2,3
 513 24 513 24 500 12 c 128,-1,4
 487 0 487 0 468 0 c 2,5,-1
 113 0 l 2,6,7
 93 0 93 0 80 12.5 c 128,-1,8
 67 25 67 25 67 46 c 0,9,10
 67 64 67 64 81 80 c 2,11,-1
 304 322 l 2,12,13
 397 421 397 421 397 497 c 0,14,15
 397 551 397 551 361.5 586.5 c 128,-1,16
 326 622 326 622 271 622 c 0,17,18
 234 622 234 622 200 601 c 128,-1,19
 166 580 166 580 145 541 c 1,20,21
 129 520 129 520 107 520 c 0,22,23
 90 520 90 520 75 533 c 128,-1,24
 60 546 60 546 60 563 c 0,25,26
 60 574 60 574 67.5 586 c 128,-1,27
 75 598 75 598 89 614 c 0,28,29
 122 658 122 658 173 684 c 128,-1,30
 224 710 224 710 276 710 c 0,31,32
 343 710 343 710 392 683 c 128,-1,33
 441 656 441 656 467.5 609 c 128,-1,34
 494 562 494 562 494 501 c 0,35,36
 494 386 494 386 370 253 c 2,37,-1
 219 88 l 1,38,-1
 468 88 l 2,39,0
 487 88 487 88 500 75 c 128,-1,1
EndSplineSet
Substitution2: "'subs' Subscript lookup 18 subtable" uni2082
Substitution2: "'frac' Diagonal Fractions lookup 10 subtable" two.numr
Substitution2: "'sups' Superscript lookup 8 subtable" uni00B2
EndChar

StartChar: three
Encoding: 51 51 530
Width: 521
Flags: W
LayerCount: 2
Fore
SplineSet
377.5 414.5 m 128,-1,1
 423 386 423 386 449 337 c 128,-1,2
 475 288 475 288 475 227 c 0,3,4
 475 156 475 156 442 102 c 128,-1,5
 409 48 409 48 351 19 c 128,-1,6
 293 -10 293 -10 218 -10 c 0,7,8
 178 -10 178 -10 140.5 1 c 128,-1,9
 103 12 103 12 76 33 c 1,10,11
 49 48 49 48 49 74 c 0,12,13
 49 93 49 93 62.5 109 c 128,-1,14
 76 125 76 125 95 125 c 0,15,16
 113 125 113 125 131 112 c 0,17,18
 172 74 172 74 234 74 c 0,19,20
 273 74 273 74 306.5 92 c 128,-1,21
 340 110 340 110 360 143.5 c 128,-1,22
 380 177 380 177 380 221 c 0,23,24
 380 286 380 286 340 321 c 128,-1,25
 300 356 300 356 244 356 c 0,26,27
 228 356 228 356 198 349 c 0,28,29
 176 343 176 343 165 343 c 0,30,31
 147 343 147 343 136 355.5 c 128,-1,32
 125 368 125 368 125 387 c 0,33,34
 125 398 125 398 129 406 c 128,-1,35
 133 414 133 414 142 425 c 2,36,-1
 312 612 l 1,37,-1
 81 612 l 2,38,39
 62 612 62 612 49 625 c 128,-1,40
 36 638 36 638 36 657 c 256,41,42
 36 676 36 676 49 688 c 128,-1,43
 62 700 62 700 81 700 c 2,44,-1
 400 700 l 2,45,46
 423 700 423 700 436 686 c 128,-1,47
 449 672 449 672 449 652 c 0,48,49
 449 634 449 634 430 615 c 2,50,-1
 275 443 l 1,51,0
 332 443 332 443 377.5 414.5 c 128,-1,1
EndSplineSet
Substitution2: "'subs' Subscript lookup 18 subtable" uni2083
Substitution2: "'frac' Diagonal Fractions lookup 10 subtable" three.numr
Substitution2: "'sups' Superscript lookup 8 subtable" uni00B3
EndChar

StartChar: four
Encoding: 52 52 531
Width: 645
Flags: W
LayerCount: 2
Fore
SplineSet
568 275.5 m 128,-1,1
 581 263 581 263 581 244 c 256,2,3
 581 225 581 225 568 213 c 128,-1,4
 555 201 555 201 536 201 c 2,5,-1
 483 201 l 1,6,-1
 483 48 l 2,7,8
 483 28 483 28 469 14 c 128,-1,9
 455 0 455 0 435 0 c 256,10,11
 415 0 415 0 401.5 14 c 128,-1,12
 388 28 388 28 388 48 c 2,13,-1
 388 201 l 1,14,-1
 114 201 l 2,15,16
 96 201 96 201 81.5 215 c 128,-1,17
 67 229 67 229 67 248 c 0,18,19
 67 266 67 266 78 280 c 2,20,-1
 397 681 l 2,21,22
 404 690 404 690 414.5 695 c 128,-1,23
 425 700 425 700 436 700 c 0,24,25
 456 700 456 700 469.5 686 c 128,-1,26
 483 672 483 672 483 652 c 2,27,-1
 483 288 l 1,28,-1
 536 288 l 2,29,0
 555 288 555 288 568 275.5 c 128,-1,1
388 288 m 1,30,-1
 388 538 l 1,31,-1
 193 288 l 1,32,-1
 388 288 l 1,30,-1
EndSplineSet
Substitution2: "'subs' Subscript lookup 18 subtable" uni2084
Substitution2: "'frac' Diagonal Fractions lookup 10 subtable" four.numr
Substitution2: "'sups' Superscript lookup 8 subtable" uni2074
EndChar

StartChar: five
Encoding: 53 53 532
Width: 567
Flags: W
LayerCount: 2
Fore
SplineSet
384 438.5 m 128,-1,1
 437 409 437 409 467 356.5 c 128,-1,2
 497 304 497 304 497 239 c 0,3,4
 497 170 497 170 461.5 114 c 128,-1,5
 426 58 426 58 364.5 25.5 c 128,-1,6
 303 -7 303 -7 230 -7 c 0,7,8
 189 -7 189 -7 148 6 c 128,-1,9
 107 19 107 19 79 42 c 0,10,11
 69 50 69 50 63 63 c 128,-1,12
 57 76 57 76 57 89 c 0,13,14
 57 104 57 104 69.5 116.5 c 128,-1,15
 82 129 82 129 102 129 c 0,16,17
 115 129 115 129 137 114 c 0,18,19
 182 81 182 81 229 81 c 0,20,21
 277 81 277 81 316.5 102 c 128,-1,22
 356 123 356 123 379 159 c 128,-1,23
 402 195 402 195 402 238 c 0,24,25
 402 302 402 302 360 341 c 128,-1,26
 318 380 318 380 254 380 c 0,27,28
 227 380 227 380 206.5 373 c 128,-1,29
 186 366 186 366 157 352 c 0,30,31
 145 346 145 346 133.5 341.5 c 128,-1,32
 122 337 122 337 114 337 c 0,33,34
 85 337 85 337 71 354 c 128,-1,35
 57 371 57 371 57 393 c 2,36,-1
 58 403 l 1,37,-1
 94 662 l 2,38,39
 97 678 97 678 110.5 689 c 128,-1,40
 124 700 124 700 143 700 c 2,41,-1
 437 700 l 2,42,43
 456 700 456 700 468.5 687 c 128,-1,44
 481 674 481 674 481 655 c 256,45,46
 481 636 481 636 468.5 623.5 c 128,-1,47
 456 611 456 611 437 611 c 2,48,-1
 176 611 l 1,49,-1
 150 440 l 1,50,51
 172 452 172 452 203.5 460 c 128,-1,52
 235 468 235 468 266 468 c 0,53,0
 331 468 331 468 384 438.5 c 128,-1,1
EndSplineSet
Substitution2: "'subs' Subscript lookup 18 subtable" uni2085
Substitution2: "'frac' Diagonal Fractions lookup 10 subtable" five.numr
Substitution2: "'sups' Superscript lookup 8 subtable" uni2075
EndChar

StartChar: six
Encoding: 54 54 533
Width: 543
Flags: W
LayerCount: 2
Fore
SplineSet
398 417.5 m 128,-1,1
 447 386 447 386 476.5 333 c 128,-1,2
 506 280 506 280 506 219 c 0,3,4
 506 157 506 157 476 104.5 c 128,-1,5
 446 52 446 52 394 21 c 128,-1,6
 342 -10 342 -10 279 -10 c 0,7,8
 207 -10 207 -10 154.5 27 c 128,-1,9
 102 64 102 64 74 124 c 128,-1,10
 46 184 46 184 46 253 c 0,11,12
 46 330 46 330 76 422.5 c 128,-1,13
 106 515 106 515 174.5 594.5 c 128,-1,14
 243 674 243 674 350 708 c 0,15,16
 359 711 359 711 368 711 c 0,17,18
 389 711 389 711 402.5 700 c 128,-1,19
 416 689 416 689 416 665 c 0,20,21
 416 648 416 648 405 635 c 128,-1,22
 394 622 394 622 375 617 c 0,23,24
 305 592 305 592 245 531 c 128,-1,25
 185 470 185 470 159 394 c 1,26,27
 218 449 218 449 294 449 c 0,28,0
 349 449 349 449 398 417.5 c 128,-1,1
373 118 m 128,-1,30
 411 158 411 158 411 219 c 0,31,32
 411 278 411 278 374.5 319.5 c 128,-1,33
 338 361 338 361 280 361 c 0,34,35
 220 361 220 361 181.5 319.5 c 128,-1,36
 143 278 143 278 143 217 c 0,37,38
 143 159 143 159 180.5 118.5 c 128,-1,39
 218 78 218 78 278 78 c 0,40,29
 335 78 335 78 373 118 c 128,-1,30
EndSplineSet
Substitution2: "'subs' Subscript lookup 18 subtable" uni2086
Substitution2: "'frac' Diagonal Fractions lookup 10 subtable" six.numr
Substitution2: "'sups' Superscript lookup 8 subtable" uni2076
EndChar

StartChar: seven
Encoding: 55 55 534
Width: 548
Flags: W
LayerCount: 2
Fore
SplineSet
496.5 687 m 128,-1,1
 511 674 511 674 511 654 c 0,2,3
 511 644 511 644 506 632 c 2,4,-1
 238 26 l 2,5,6
 232 12 232 12 220 4 c 128,-1,7
 208 -4 208 -4 194 -4 c 0,8,9
 175 -4 175 -4 160 9 c 128,-1,10
 145 22 145 22 145 41 c 0,11,12
 145 51 145 51 150 63 c 2,13,-1
 394 612 l 1,14,-1
 105 612 l 2,15,16
 86 612 86 612 73 625 c 128,-1,17
 60 638 60 638 60 657 c 256,18,19
 60 676 60 676 72.5 688 c 128,-1,20
 85 700 85 700 105 700 c 2,21,-1
 461 700 l 2,22,0
 482 700 482 700 496.5 687 c 128,-1,1
EndSplineSet
Substitution2: "'subs' Subscript lookup 18 subtable" uni2087
Substitution2: "'frac' Diagonal Fractions lookup 10 subtable" seven.numr
Substitution2: "'sups' Superscript lookup 8 subtable" uni2077
EndChar

StartChar: eight
Encoding: 56 56 535
Width: 578
Flags: W
LayerCount: 2
Fore
SplineSet
486.5 292 m 128,-1,1
 515 249 515 249 515 200 c 0,2,3
 515 145 515 145 485 98.5 c 128,-1,4
 455 52 455 52 403 24.5 c 128,-1,5
 351 -3 351 -3 289 -3 c 256,6,7
 227 -3 227 -3 175 24.5 c 128,-1,8
 123 52 123 52 93 98.5 c 128,-1,9
 63 145 63 145 63 200 c 0,10,11
 63 254 63 254 91.5 294.5 c 128,-1,12
 120 335 120 335 165 361 c 1,13,14
 128 382 128 382 104 418.5 c 128,-1,15
 80 455 80 455 80 504 c 0,16,17
 80 558 80 558 108 603 c 128,-1,18
 136 648 136 648 183.5 674 c 128,-1,19
 231 700 231 700 289 700 c 0,20,21
 346 700 346 700 394 674 c 128,-1,22
 442 648 442 648 469.5 603 c 128,-1,23
 497 558 497 558 497 504 c 0,24,25
 497 453 497 453 472 417.5 c 128,-1,26
 447 382 447 382 410 362 c 1,27,0
 458 335 458 335 486.5 292 c 128,-1,1
207 581 m 128,-1,29
 175 550 175 550 175 502 c 0,30,31
 175 455 175 455 208 423.5 c 128,-1,32
 241 392 241 392 289 392 c 0,33,34
 336 392 336 392 369 423.5 c 128,-1,35
 402 455 402 455 402 502 c 0,36,37
 402 550 402 550 370 581 c 128,-1,38
 338 612 338 612 289 612 c 0,39,28
 239 612 239 612 207 581 c 128,-1,29
382.5 118 m 128,-1,41
 420 151 420 151 420 201 c 256,42,43
 420 251 420 251 381.5 285 c 128,-1,44
 343 319 343 319 289 319 c 256,45,46
 235 319 235 319 197 285 c 128,-1,47
 159 251 159 251 159 201 c 256,48,49
 159 151 159 151 196 118 c 128,-1,50
 233 85 233 85 289 85 c 256,51,40
 345 85 345 85 382.5 118 c 128,-1,41
EndSplineSet
Substitution2: "'subs' Subscript lookup 18 subtable" uni2088
Substitution2: "'frac' Diagonal Fractions lookup 10 subtable" eight.numr
Substitution2: "'sups' Superscript lookup 8 subtable" uni2078
EndChar

StartChar: nine
Encoding: 57 57 536
Width: 550
Flags: W
LayerCount: 2
Fore
SplineSet
398.5 675 m 128,-1,1
 451 638 451 638 478.5 578 c 128,-1,2
 506 518 506 518 506 449 c 0,3,4
 506 372 506 372 476 281 c 128,-1,5
 446 190 446 190 378 111.5 c 128,-1,6
 310 33 310 33 203 -1 c 0,7,8
 194 -4 194 -4 185 -4 c 0,9,10
 165 -4 165 -4 150.5 7.5 c 128,-1,11
 136 19 136 19 136 42 c 0,12,13
 136 59 136 59 147 72 c 128,-1,14
 158 85 158 85 177 90 c 0,15,16
 248 115 248 115 308.5 174 c 128,-1,17
 369 233 369 233 394 309 c 1,18,19
 336 253 336 253 259 253 c 0,20,21
 204 253 204 253 154.5 284.5 c 128,-1,22
 105 316 105 316 75.5 369.5 c 128,-1,23
 46 423 46 423 46 484 c 256,24,25
 46 545 46 545 76.5 597.5 c 128,-1,26
 107 650 107 650 159 681 c 128,-1,27
 211 712 211 712 274 712 c 0,28,0
 346 712 346 712 398.5 675 c 128,-1,1
371.5 383 m 128,-1,30
 410 424 410 424 410 485 c 0,31,32
 410 543 410 543 372 583.5 c 128,-1,33
 334 624 334 624 274 624 c 0,34,35
 218 624 218 624 180 584 c 128,-1,36
 142 544 142 544 142 484 c 256,37,38
 142 424 142 424 178.5 383 c 128,-1,39
 215 342 215 342 272 342 c 0,40,29
 333 342 333 342 371.5 383 c 128,-1,30
EndSplineSet
Substitution2: "'subs' Subscript lookup 18 subtable" uni2089
Substitution2: "'frac' Diagonal Fractions lookup 10 subtable" nine.numr
Substitution2: "'sups' Superscript lookup 8 subtable" uni2079
EndChar

StartChar: zero.dnom
Encoding: 65579 -1 548
Width: 362
Flags: W
LayerCount: 2
Fore
SplineSet
103.5 14.5 m 128,-1,1
 69 39 69 39 49.5 80.5 c 128,-1,2
 30 122 30 122 30 173 c 0,3,4
 30 253 30 253 71.5 305 c 128,-1,5
 113 357 113 357 182 357 c 0,6,7
 250 357 250 357 291 305 c 128,-1,8
 332 253 332 253 332 173 c 0,9,10
 332 122 332 122 313 80.5 c 128,-1,11
 294 39 294 39 259.5 14.5 c 128,-1,12
 225 -10 225 -10 182 -10 c 0,13,0
 138 -10 138 -10 103.5 14.5 c 128,-1,1
233.5 93 m 128,-1,15
 252 124 252 124 252 173 c 256,16,17
 252 222 252 222 233.5 253 c 128,-1,18
 215 284 215 284 182 284 c 256,19,20
 149 284 149 284 130 253 c 128,-1,21
 111 222 111 222 111 173 c 256,22,23
 111 124 111 124 129.5 93 c 128,-1,24
 148 62 148 62 182 62 c 0,25,14
 215 62 215 62 233.5 93 c 128,-1,15
EndSplineSet
EndChar

StartChar: one.dnom
Encoding: 65580 -1 549
Width: 279
Flags: W
LayerCount: 2
Fore
SplineSet
197 332.5 m 128,-1,1
 208 321 208 321 208 303 c 2,2,-1
 208 36 l 2,3,4
 208 19 208 19 198 8.5 c 128,-1,5
 188 -2 188 -2 172 -2 c 256,6,7
 156 -2 156 -2 145.5 8.5 c 128,-1,8
 135 19 135 19 135 36 c 2,9,-1
 134 249 l 1,10,-1
 97 225 l 2,11,12
 83 216 83 216 71 216 c 0,13,14
 55 216 55 216 45.5 228.5 c 128,-1,15
 36 241 36 241 36 255 c 0,16,17
 36 275 36 275 56 287 c 2,18,-1
 144 338 l 2,19,20
 157 345 157 345 169 345 c 0,21,0
 186 344 186 344 197 332.5 c 128,-1,1
EndSplineSet
EndChar

StartChar: two.dnom
Encoding: 65581 -1 550
Width: 344
Flags: W
LayerCount: 2
Fore
SplineSet
284.5 56.5 m 128,-1,1
 294 47 294 47 294 33 c 256,2,3
 294 19 294 19 284.5 9.5 c 128,-1,4
 275 0 275 0 260 0 c 2,5,-1
 88 0 l 2,6,7
 71 0 71 0 60.5 10.5 c 128,-1,8
 50 21 50 21 50 37 c 0,9,10
 50 52 50 52 66 70 c 2,11,-1
 144 147 l 2,12,13
 175 179 175 179 191.5 202.5 c 128,-1,14
 208 226 208 226 208 249 c 0,15,16
 208 267 208 267 197 277.5 c 128,-1,17
 186 288 186 288 166 288 c 0,18,19
 152 288 152 288 138.5 279.5 c 128,-1,20
 125 271 125 271 117 257 c 0,21,22
 107 243 107 243 90 243 c 256,23,24
 73 243 73 243 63 252.5 c 128,-1,25
 53 262 53 262 53 275 c 0,26,27
 53 294 53 294 70.5 314 c 128,-1,28
 88 334 88 334 116.5 346.5 c 128,-1,29
 145 359 145 359 175 359 c 0,30,31
 232 359 232 359 261.5 327 c 128,-1,32
 291 295 291 295 291 251 c 0,33,34
 291 218 291 218 271.5 189.5 c 128,-1,35
 252 161 252 161 214 122 c 2,36,-1
 156 66 l 1,37,-1
 260 66 l 2,38,0
 275 66 275 66 284.5 56.5 c 128,-1,1
EndSplineSet
EndChar

StartChar: three.dnom
Encoding: 65582 -1 551
Width: 338
Flags: W
LayerCount: 2
Fore
SplineSet
268 185.5 m 128,-1,1
 296 157 296 157 296 111 c 0,2,3
 296 55 296 55 256.5 22.5 c 128,-1,4
 217 -10 217 -10 164 -10 c 0,5,6
 104 -10 104 -10 73 12 c 0,7,8
 55 24 55 24 55 43 c 0,9,10
 55 58 55 58 64.5 68 c 128,-1,11
 74 78 74 78 89 78 c 0,12,13
 100 78 100 78 110 70 c 0,14,15
 134 55 134 55 158 55 c 0,16,17
 184 55 184 55 203 69.5 c 128,-1,18
 222 84 222 84 222 109 c 0,19,20
 222 130 222 130 206 142 c 128,-1,21
 190 154 190 154 165 154 c 0,22,23
 158 154 158 154 150 152 c 128,-1,24
 142 150 142 150 138 149 c 0,25,26
 120 143 120 143 107 143 c 0,27,28
 96 143 96 143 87 152 c 128,-1,29
 78 161 78 161 78 173 c 0,30,31
 78 192 78 192 88 199 c 2,32,-1
 182 281 l 1,33,-1
 94 281 l 2,34,35
 79 281 79 281 69 291 c 128,-1,36
 59 301 59 301 59 315 c 0,37,38
 59 330 59 330 69 339 c 128,-1,39
 79 348 79 348 94 348 c 2,40,-1
 243 348 l 2,41,42
 260 348 260 348 270.5 338 c 128,-1,43
 281 328 281 328 281 312 c 2,44,-1
 281 309 l 2,45,46
 281 292 281 292 271 284 c 2,47,-1
 189 215 l 1,48,0
 240 214 240 214 268 185.5 c 128,-1,1
EndSplineSet
EndChar

StartChar: four.dnom
Encoding: 65583 -1 552
Width: 386
Flags: W
LayerCount: 2
Fore
SplineSet
328 138.5 m 128,-1,1
 337 130 337 130 337 114 c 256,2,3
 337 98 337 98 328 89.5 c 128,-1,4
 319 81 319 81 303 81 c 2,5,-1
 277 81 l 1,6,-1
 277 35 l 2,7,8
 277 19 277 19 266.5 8.5 c 128,-1,9
 256 -2 256 -2 240 -2 c 256,10,11
 224 -2 224 -2 213.5 8.5 c 128,-1,12
 203 19 203 19 203 35 c 2,13,-1
 203 81 l 1,14,-1
 78 81 l 2,15,16
 60 81 60 81 47.5 92.5 c 128,-1,17
 35 104 35 104 35 122 c 0,18,19
 35 137 35 137 44 149 c 2,20,-1
 200 337 l 2,21,22
 213 354 213 354 236 354 c 0,23,24
 254 354 254 354 265.5 342 c 128,-1,25
 277 330 277 330 277 312 c 2,26,-1
 277 147 l 1,27,-1
 303 147 l 2,28,0
 319 147 319 147 328 138.5 c 128,-1,1
203 147 m 1,29,-1
 203 240 l 1,30,-1
 124 147 l 1,31,-1
 203 147 l 1,29,-1
EndSplineSet
EndChar

StartChar: five.dnom
Encoding: 65584 -1 553
Width: 356
Flags: W
LayerCount: 2
Fore
SplineSet
274.5 203.5 m 128,-1,1
 305 174 305 174 305 120 c 0,2,3
 305 55 305 55 263.5 23 c 128,-1,4
 222 -9 222 -9 155 -9 c 0,5,6
 132 -9 132 -9 108 -1 c 128,-1,7
 84 7 84 7 67 21 c 0,8,9
 49 36 49 36 49 57 c 0,10,11
 49 87 49 87 81 87 c 0,12,13
 94 87 94 87 104 78 c 0,14,15
 126 58 126 58 164 58 c 0,16,17
 191 58 191 58 208.5 73 c 128,-1,18
 226 88 226 88 226 113 c 0,19,20
 226 135 226 135 210 150.5 c 128,-1,21
 194 166 194 166 167 166 c 0,22,23
 145 166 145 166 121 151 c 0,24,25
 105 142 105 142 97 142 c 0,26,27
 77 142 77 142 68.5 154.5 c 128,-1,28
 60 167 60 167 63 181 c 2,29,-1
 83 321 l 2,30,31
 86 330 86 330 94 336.5 c 128,-1,32
 102 343 102 343 113 343 c 2,33,-1
 263 343 l 2,34,35
 278 343 278 343 288 333.5 c 128,-1,36
 298 324 298 324 298 310 c 0,37,38
 298 295 298 295 288 285 c 128,-1,39
 278 275 278 275 263 275 c 2,40,-1
 148 275 l 1,41,-1
 142 221 l 1,42,43
 165 233 165 233 198 233 c 0,44,0
 244 233 244 233 274.5 203.5 c 128,-1,1
EndSplineSet
EndChar

StartChar: six.dnom
Encoding: 65585 -1 554
Width: 320
Flags: W
LayerCount: 2
Fore
SplineSet
259.5 191.5 m 128,-1,1
 290 161 290 161 290 117 c 0,2,3
 290 62 290 62 252.5 25.5 c 128,-1,4
 215 -11 215 -11 161 -11 c 0,5,6
 121 -11 121 -11 91.5 10 c 128,-1,7
 62 31 62 31 46 65 c 128,-1,8
 30 99 30 99 30 137 c 0,9,10
 30 197 30 197 54 247.5 c 128,-1,11
 78 298 78 298 118.5 327 c 128,-1,12
 159 356 159 356 207 356 c 0,13,14
 274 356 274 356 274 317 c 0,15,16
 274 301 274 301 266.5 292 c 128,-1,17
 259 283 259 283 238 283 c 0,18,19
 228 283 228 283 222 284 c 0,20,21
 185 284 185 284 156 262.5 c 128,-1,22
 127 241 127 241 118 201 c 1,23,24
 147 222 147 222 180 222 c 0,25,0
 229 222 229 222 259.5 191.5 c 128,-1,1
197 67 m 128,-1,27
 213 83 213 83 213 106 c 0,28,29
 213 128 213 128 198 144.5 c 128,-1,30
 183 161 183 161 162 161 c 0,31,32
 139 161 139 161 123.5 145 c 128,-1,33
 108 129 108 129 108 107 c 0,34,35
 108 83 108 83 122.5 67 c 128,-1,36
 137 51 137 51 160 51 c 0,37,26
 181 51 181 51 197 67 c 128,-1,27
EndSplineSet
EndChar

StartChar: seven.dnom
Encoding: 65586 -1 555
Width: 325
Flags: W
LayerCount: 2
Fore
SplineSet
273.5 328.5 m 128,-1,1
 288 315 288 315 288 296 c 0,2,3
 288 286 288 286 283 274 c 2,4,-1
 171 26 l 2,5,6
 156 -4 156 -4 132 -4 c 0,7,8
 118 -4 118 -4 107 5.5 c 128,-1,9
 96 15 96 15 96 29 c 0,10,11
 96 36 96 36 102 50 c 2,12,-1
 205 275 l 1,13,-1
 78 275 l 2,14,15
 62 275 62 275 52.5 284 c 128,-1,16
 43 293 43 293 43 309 c 256,17,18
 43 325 43 325 52.5 333.5 c 128,-1,19
 62 342 62 342 78 342 c 2,20,-1
 238 342 l 2,21,0
 259 342 259 342 273.5 328.5 c 128,-1,1
EndSplineSet
EndChar

StartChar: eight.dnom
Encoding: 65587 -1 556
Width: 352
Flags: W
LayerCount: 2
Fore
SplineSet
290.5 144 m 128,-1,1
 307 122 307 122 307 96 c 0,2,3
 307 67 307 67 289 42.5 c 128,-1,4
 271 18 271 18 241 3.5 c 128,-1,5
 211 -11 211 -11 176 -11 c 0,6,7
 140 -11 140 -11 109.5 3.5 c 128,-1,8
 79 18 79 18 61.5 42.5 c 128,-1,9
 44 67 44 67 44 96 c 0,10,11
 44 147 44 147 105 180 c 1,12,13
 83 191 83 191 68 210 c 128,-1,14
 53 229 53 229 53 254 c 0,15,16
 53 297 53 297 88.5 326.5 c 128,-1,17
 124 356 124 356 176 356 c 0,18,19
 226 356 226 356 262 326.5 c 128,-1,20
 298 297 298 297 298 254 c 0,21,22
 298 208 298 208 246 181 c 1,23,0
 274 166 274 166 290.5 144 c 128,-1,1
141 281.5 m 128,-1,25
 128 270 128 270 128 252 c 0,26,27
 128 235 128 235 141.5 223.5 c 128,-1,28
 155 212 155 212 176 212 c 0,29,30
 195 212 195 212 209.5 223.5 c 128,-1,31
 224 235 224 235 224 252 c 0,32,33
 224 270 224 270 210 281.5 c 128,-1,34
 196 293 196 293 176 293 c 0,35,24
 154 293 154 293 141 281.5 c 128,-1,25
215.5 66.5 m 128,-1,37
 232 82 232 82 232 104 c 0,38,39
 232 124 232 124 215.5 137.5 c 128,-1,40
 199 151 199 151 176 151 c 256,41,42
 153 151 153 151 136 137.5 c 128,-1,43
 119 124 119 124 119 104 c 0,44,45
 119 82 119 82 135.5 66.5 c 128,-1,46
 152 51 152 51 176 51 c 0,47,36
 199 51 199 51 215.5 66.5 c 128,-1,37
EndSplineSet
EndChar

StartChar: nine.dnom
Encoding: 65588 -1 557
Width: 330
Flags: W
LayerCount: 2
Fore
SplineSet
235.5 335 m 128,-1,1
 265 314 265 314 281 280 c 128,-1,2
 297 246 297 246 297 207 c 0,3,4
 297 147 297 147 273 97 c 128,-1,5
 249 47 249 47 208 17.5 c 128,-1,6
 167 -12 167 -12 119 -12 c 0,7,8
 53 -12 53 -12 53 28 c 0,9,10
 53 44 53 44 60.5 53 c 128,-1,11
 68 62 68 62 89 62 c 0,12,13
 99 62 99 62 105 61 c 0,14,15
 142 60 142 60 171 82 c 128,-1,16
 200 104 200 104 209 145 c 1,17,18
 179 123 179 123 147 123 c 0,19,20
 97 123 97 123 66.5 153.5 c 128,-1,21
 36 184 36 184 36 228 c 0,22,23
 36 283 36 283 74 319.5 c 128,-1,24
 112 356 112 356 166 356 c 0,25,0
 206 356 206 356 235.5 335 c 128,-1,1
203.5 199.5 m 128,-1,27
 219 215 219 215 219 237 c 0,28,29
 219 261 219 261 204.5 277 c 128,-1,30
 190 293 190 293 166 293 c 0,31,32
 145 293 145 293 129.5 277.5 c 128,-1,33
 114 262 114 262 114 238 c 0,34,35
 114 216 114 216 128.5 200 c 128,-1,36
 143 184 143 184 164 184 c 0,37,26
 188 184 188 184 203.5 199.5 c 128,-1,27
EndSplineSet
EndChar

StartChar: fraction
Encoding: 8260 8260 578
Width: 536
Flags: W
LayerCount: 2
Fore
SplineSet
35.5 9 m 128,-1,1
 22 20 22 20 22 37 c 0,2,3
 22 48 22 48 29 62 c 2,4,-1
 440 683 l 2,5,6
 454 702 454 702 473 702 c 0,7,8
 488 702 488 702 501.5 691 c 128,-1,9
 515 680 515 680 515 663 c 0,10,11
 515 651 515 651 507 638 c 2,12,-1
 97 17 l 2,13,14
 83 -2 83 -2 64 -2 c 0,15,0
 49 -2 49 -2 35.5 9 c 128,-1,1
EndSplineSet
EndChar

StartChar: asterisk
Encoding: 42 42 586
Width: 341
Flags: W
LayerCount: 2
Fore
SplineSet
149.5 398.5 m 128,-1,1
 142 407 142 407 144 420 c 2,2,-1
 152 505 l 2,3,4
 153 508 153 508 151 509 c 128,-1,5
 149 510 149 510 146 508 c 2,6,-1
 76 459 l 2,7,8
 67 453 67 453 58 453 c 0,9,10
 44 453 44 453 35 467 c 0,11,12
 31 475 31 475 31 483 c 0,13,14
 31 499 31 499 48 507 c 2,15,-1
 127 543 l 2,16,17
 130 544 130 544 130 546 c 128,-1,18
 130 548 130 548 127 549 c 2,19,-1
 48 585 l 2,20,21
 40 589 40 589 35.5 595.5 c 128,-1,22
 31 602 31 602 31 610 c 256,23,24
 31 618 31 618 35 625 c 0,25,26
 44 639 44 639 59 639 c 0,27,28
 66 639 66 639 76 634 c 2,29,-1
 146 583 l 2,30,31
 149 581 149 581 151 582 c 128,-1,32
 153 583 153 583 152 586 c 2,33,-1
 144 671 l 2,34,35
 143 684 143 684 150.5 693 c 128,-1,36
 158 702 158 702 172 702 c 0,37,38
 184 702 184 702 191.5 693 c 128,-1,39
 199 684 199 684 198 671 c 2,40,-1
 190 586 l 2,41,42
 189 583 189 583 191 582 c 128,-1,43
 193 581 193 581 196 583 c 2,44,-1
 266 633 l 2,45,46
 274 639 274 639 283 639 c 0,47,48
 299 639 299 639 307 625 c 0,49,50
 311 618 311 618 311 610 c 0,51,52
 311 593 311 593 293 585 c 2,53,-1
 215 549 l 2,54,55
 212 548 212 548 212 546 c 128,-1,56
 212 544 212 544 215 543 c 2,57,-1
 293 507 l 2,58,59
 311 498 311 498 311 481 c 0,60,61
 311 477 311 477 307 467 c 0,62,63
 297 452 297 452 283 452 c 0,64,65
 273 452 273 452 266 458 c 2,66,-1
 196 508 l 2,67,68
 193 510 193 510 191 509 c 128,-1,69
 189 508 189 508 190 505 c 2,70,-1
 198 420 l 2,71,72
 199 407 199 407 191 398.5 c 128,-1,73
 183 390 183 390 170 390 c 256,74,0
 157 390 157 390 149.5 398.5 c 128,-1,1
EndSplineSet
EndChar

StartChar: backslash
Encoding: 92 92 587
Width: 549
Flags: W
LayerCount: 2
Fore
SplineSet
462.5 -126.5 m 128,-1,1
 452 -119 452 -119 447 -107 c 2,2,-1
 27 742 l 2,3,4
 22 751 22 751 22 762 c 0,5,6
 22 779 22 779 35 790.5 c 128,-1,7
 48 802 48 802 63 802 c 0,8,9
 89 802 89 802 102 775 c 2,10,-1
 523 -74 l 2,11,12
 528 -86 528 -86 528 -94 c 0,13,14
 528 -111 528 -111 514 -122.5 c 128,-1,15
 500 -134 500 -134 485 -134 c 0,16,0
 473 -134 473 -134 462.5 -126.5 c 128,-1,1
EndSplineSet
Substitution2: "'case' Case-Sensitive Forms lookup 14 subtable" backslash.case
EndChar

StartChar: periodcentered
Encoding: 183 183 588
Width: 211
Flags: W
LayerCount: 2
Fore
SplineSet
62.5 256.5 m 128,-1,1
 49 270 49 270 49 294 c 2,2,-1
 49 313 l 2,3,4
 49 338 49 338 62.5 351 c 128,-1,5
 76 364 76 364 100 364 c 2,6,-1
 110 364 l 2,7,8
 135 364 135 364 148 351 c 128,-1,9
 161 338 161 338 161 313 c 2,10,-1
 161 294 l 2,11,12
 161 270 161 270 148 256.5 c 128,-1,13
 135 243 135 243 110 243 c 2,14,-1
 100 243 l 2,15,0
 76 243 76 243 62.5 256.5 c 128,-1,1
EndSplineSet
Substitution2: "Single Substitution lookup 20 subtable" periodcentered.loclCAT.case
Substitution2: "Single Substitution lookup 19 subtable" periodcentered.loclCAT
Substitution2: "'case' Case-Sensitive Forms lookup 14 subtable" periodcentered.case
EndChar

StartChar: bullet
Encoding: 8226 8226 589
Width: 346
Flags: W
LayerCount: 2
Fore
SplineSet
105.5 234 m 128,-1,1
 74 252 74 252 55.5 283 c 128,-1,2
 37 314 37 314 37 351 c 0,3,4
 37 389 37 389 55.5 420.5 c 128,-1,5
 74 452 74 452 105 470 c 128,-1,6
 136 488 136 488 173 488 c 256,7,8
 210 488 210 488 241 470 c 128,-1,9
 272 452 272 452 290.5 420.5 c 128,-1,10
 309 389 309 389 309 351 c 0,11,12
 309 314 309 314 290.5 283 c 128,-1,13
 272 252 272 252 241 234 c 128,-1,14
 210 216 210 216 173 216 c 0,15,0
 137 216 137 216 105.5 234 c 128,-1,1
EndSplineSet
Substitution2: "'case' Case-Sensitive Forms lookup 14 subtable" bullet.case
EndChar

StartChar: colon
Encoding: 58 58 590
Width: 237
Flags: W
LayerCount: 2
Fore
SplineSet
76.5 415 m 128,-1,1
 64 428 64 428 64 453 c 2,2,-1
 64 471 l 2,3,4
 64 496 64 496 76.5 509 c 128,-1,5
 89 522 89 522 113 522 c 2,6,-1
 124 522 l 2,7,8
 148 522 148 522 160.5 509 c 128,-1,9
 173 496 173 496 173 471 c 2,10,-1
 173 453 l 2,11,12
 173 428 173 428 160.5 415 c 128,-1,13
 148 402 148 402 124 402 c 2,14,-1
 113 402 l 2,15,0
 89 402 89 402 76.5 415 c 128,-1,1
76.5 13.5 m 128,-1,17
 64 27 64 27 64 51 c 2,18,-1
 64 70 l 2,19,20
 64 94 64 94 76.5 107.5 c 128,-1,21
 89 121 89 121 113 121 c 2,22,-1
 124 121 l 2,23,24
 148 121 148 121 160.5 107.5 c 128,-1,25
 173 94 173 94 173 70 c 2,26,-1
 173 51 l 2,27,28
 173 27 173 27 160.5 13.5 c 128,-1,29
 148 0 148 0 124 0 c 2,30,-1
 113 0 l 2,31,16
 89 0 89 0 76.5 13.5 c 128,-1,17
EndSplineSet
EndChar

StartChar: comma
Encoding: 44 44 591
Width: 241
Flags: W
LayerCount: 2
Fore
SplineSet
175 -51.5 m 128,-1,1
 159 -84 159 -84 134.5 -107 c 128,-1,2
 110 -130 110 -130 84 -130 c 0,3,4
 67 -130 67 -130 56 -121.5 c 128,-1,5
 45 -113 45 -113 45 -97 c 0,6,7
 45 -83 45 -83 52 -77.5 c 128,-1,8
 59 -72 59 -72 68.5 -69 c 128,-1,9
 78 -66 78 -66 83 -64 c 0,10,11
 97 -57 97 -57 104.5 -45.5 c 128,-1,12
 112 -34 112 -34 112 -20 c 0,13,14
 112 -9 112 -9 103 -1 c 128,-1,15
 94 7 94 7 80 7 c 0,16,17
 64 7 64 7 53 -1 c 1,18,19
 43 4 43 4 38 11.5 c 128,-1,20
 33 19 33 19 33 32 c 0,21,22
 34 56 34 56 59 74.5 c 128,-1,23
 84 93 84 93 112 93 c 0,24,25
 149 93 149 93 170 70 c 128,-1,26
 191 47 191 47 191 6 c 0,27,0
 191 -19 191 -19 175 -51.5 c 128,-1,1
EndSplineSet
EndChar

StartChar: exclam
Encoding: 33 33 593
Width: 233
Flags: W
LayerCount: 2
Fore
SplineSet
87 242 m 2,1,-1
 65 640 l 2,2,3
 63 666 63 666 77.5 683 c 128,-1,4
 92 700 92 700 116 700 c 0,5,6
 141 700 141 700 155 683 c 128,-1,7
 169 666 169 666 167 640 c 2,8,-1
 146 242 l 2,9,10
 145 226 145 226 137.5 218 c 128,-1,11
 130 210 130 210 117 210 c 0,12,0
 89 210 89 210 87 242 c 2,1,-1
74.5 13.5 m 128,-1,14
 62 27 62 27 62 51 c 2,15,-1
 62 70 l 2,16,17
 62 94 62 94 74.5 107.5 c 128,-1,18
 87 121 87 121 111 121 c 2,19,-1
 122 121 l 2,20,21
 146 121 146 121 158.5 107.5 c 128,-1,22
 171 94 171 94 171 70 c 2,23,-1
 171 51 l 2,24,25
 171 27 171 27 158.5 13.5 c 128,-1,26
 146 0 146 0 122 0 c 2,27,-1
 111 0 l 2,28,13
 87 0 87 0 74.5 13.5 c 128,-1,14
EndSplineSet
EndChar

StartChar: exclamdown
Encoding: 161 161 594
Width: 233
Flags: W
LayerCount: 2
Fore
SplineSet
158.5 515.5 m 128,-1,1
 171 502 171 502 171 478 c 2,2,-1
 171 459 l 2,3,4
 171 434 171 434 158.5 421 c 128,-1,5
 146 408 146 408 122 408 c 2,6,-1
 111 408 l 2,7,8
 87 408 87 408 74.5 421 c 128,-1,9
 62 434 62 434 62 459 c 2,10,-1
 62 478 l 2,11,12
 62 502 62 502 74.5 515.5 c 128,-1,13
 87 529 87 529 111 529 c 2,14,-1
 122 529 l 2,15,0
 146 529 146 529 158.5 515.5 c 128,-1,1
146 287 m 2,17,-1
 168 -112 l 2,18,19
 170 -137 170 -137 155.5 -154.5 c 128,-1,20
 141 -172 141 -172 117 -172 c 256,21,22
 93 -172 93 -172 78.5 -154.5 c 128,-1,23
 64 -137 64 -137 66 -112 c 2,24,-1
 87 287 l 2,25,26
 88 318 88 318 116 318 c 0,27,16
 145 318 145 318 146 287 c 2,17,-1
EndSplineSet
EndChar

StartChar: numbersign
Encoding: 35 35 595
Width: 677
Flags: W
LayerCount: 2
Fore
SplineSet
532 449 m 1,0,-1
 499 255 l 1,1,-1
 564 255 l 2,2,3
 583 255 583 255 596 242 c 128,-1,4
 609 229 609 229 609 210 c 0,5,6
 609 192 609 192 596 180.5 c 128,-1,7
 583 169 583 169 564 169 c 2,8,-1
 484 169 l 1,9,-1
 461 36 l 2,10,11
 459 20 459 20 447.5 10 c 128,-1,12
 436 0 436 0 420 0 c 0,13,14
 401 0 401 0 388.5 12.5 c 128,-1,15
 376 25 376 25 376 45 c 0,16,17
 376 52 376 52 377 56 c 2,18,-1
 396 169 l 1,19,-1
 219 169 l 1,20,-1
 196 36 l 2,21,22
 193 19 193 19 181.5 9.5 c 128,-1,23
 170 0 170 0 154 0 c 0,24,25
 134 0 134 0 122 13 c 128,-1,26
 110 26 110 26 110 46 c 0,27,28
 110 53 110 53 111 56 c 2,29,-1
 131 169 l 1,30,-1
 76 169 l 2,31,32
 57 169 57 169 44 182 c 128,-1,33
 31 195 31 195 31 214 c 0,34,35
 31 232 31 232 43.5 243.5 c 128,-1,36
 56 255 56 255 76 255 c 2,37,-1
 145 255 l 1,38,-1
 179 449 l 1,39,-1
 114 449 l 2,40,41
 95 449 95 449 82 462 c 128,-1,42
 69 475 69 475 69 494 c 0,43,44
 69 512 69 512 81.5 523.5 c 128,-1,45
 94 535 94 535 114 535 c 2,46,-1
 194 535 l 1,47,-1
 216 664 l 2,48,49
 218 680 218 680 229.5 690 c 128,-1,50
 241 700 241 700 257 700 c 0,51,52
 276 700 276 700 288.5 687.5 c 128,-1,53
 301 675 301 675 301 655 c 0,54,55
 301 648 301 648 300 644 c 2,56,-1
 281 535 l 1,57,-1
 459 535 l 1,58,-1
 481 664 l 2,59,60
 483 680 483 680 494.5 690 c 128,-1,61
 506 700 506 700 523 700 c 0,62,63
 542 700 542 700 554.5 687 c 128,-1,64
 567 674 567 674 567 654 c 0,65,66
 567 647 567 647 566 644 c 2,67,-1
 547 535 l 1,68,-1
 601 535 l 2,69,70
 621 535 621 535 633.5 522.5 c 128,-1,71
 646 510 646 510 646 490 c 0,72,73
 646 472 646 472 633.5 460.5 c 128,-1,74
 621 449 621 449 601 449 c 2,75,-1
 532 449 l 1,0,-1
444 449 m 1,76,-1
 267 449 l 1,77,-1
 233 255 l 1,78,-1
 411 255 l 1,79,-1
 444 449 l 1,76,-1
EndSplineSet
EndChar

StartChar: period
Encoding: 46 46 596
Width: 221
Flags: W
LayerCount: 2
Fore
SplineSet
68.5 14 m 128,-1,1
 56 27 56 27 56 52 c 2,2,-1
 56 71 l 2,3,4
 56 95 56 95 68.5 108 c 128,-1,5
 81 121 81 121 105 121 c 2,6,-1
 115 121 l 2,7,8
 140 121 140 121 152.5 108 c 128,-1,9
 165 95 165 95 165 71 c 2,10,-1
 165 52 l 2,11,12
 165 1 165 1 115 1 c 2,13,-1
 105 1 l 2,14,0
 81 1 81 1 68.5 14 c 128,-1,1
EndSplineSet
EndChar

StartChar: question
Encoding: 63 63 597
Width: 510
Flags: W
LayerCount: 2
Fore
SplineSet
188.5 359 m 128,-1,1
 202 373 202 373 222 373 c 0,2,3
 289 375 289 375 331.5 410.5 c 128,-1,4
 374 446 374 446 374 512 c 0,5,6
 374 569 374 569 335 606.5 c 128,-1,7
 296 644 296 644 239 644 c 0,8,9
 207 644 207 644 177.5 630.5 c 128,-1,10
 148 617 148 617 126 594 c 0,11,12
 106 576 106 576 86 576 c 0,13,14
 72 576 72 576 60 585 c 0,15,16
 38 601 38 601 38 622 c 0,17,18
 38 640 38 640 53 655 c 0,19,20
 87 694 87 694 135.5 716 c 128,-1,21
 184 738 184 738 239 738 c 0,22,23
 303 738 303 738 355.5 709 c 128,-1,24
 408 680 408 680 439 628.5 c 128,-1,25
 470 577 470 577 470 512 c 0,26,27
 470 452 470 452 443.5 405.5 c 128,-1,28
 417 359 417 359 371 330.5 c 128,-1,29
 325 302 325 302 267 296 c 0,30,31
 266 296 266 296 266.5 295.5 c 128,-1,32
 267 295 267 295 269 296 c 2,33,-1
 269 230 l 2,34,35
 269 210 269 210 255.5 196 c 128,-1,36
 242 182 242 182 222 182 c 0,37,38
 201 182 201 182 187.5 196 c 128,-1,39
 174 210 174 210 175 230 c 2,40,-1
 175 324 l 2,41,0
 175 345 175 345 188.5 359 c 128,-1,1
182 13.5 m 128,-1,43
 169 27 169 27 169 51 c 2,44,-1
 169 70 l 2,45,46
 169 94 169 94 182 107.5 c 128,-1,47
 195 121 195 121 219 121 c 2,48,-1
 229 121 l 2,49,50
 253 121 253 121 266 107.5 c 128,-1,51
 279 94 279 94 279 70 c 2,52,-1
 279 51 l 2,53,54
 279 27 279 27 266 13.5 c 128,-1,55
 253 0 253 0 229 0 c 2,56,-1
 219 0 l 2,57,42
 195 0 195 0 182 13.5 c 128,-1,43
EndSplineSet
EndChar

StartChar: questiondown
Encoding: 191 191 598
Width: 506
Flags: W
LayerCount: 2
Fore
SplineSet
336 484 m 2,1,-1
 336 465 l 2,2,3
 336 441 336 441 323 427.5 c 128,-1,4
 310 414 310 414 286 414 c 2,5,-1
 276 414 l 2,6,7
 252 414 252 414 239 427.5 c 128,-1,8
 226 441 226 441 226 465 c 2,9,-1
 226 484 l 2,10,11
 226 509 226 509 239 522 c 128,-1,12
 252 535 252 535 276 535 c 2,13,-1
 286 535 l 2,14,0
 336 535 336 535 336 484 c 2,1,-1
317.5 176 m 128,-1,16
 304 162 304 162 283 162 c 0,17,18
 216 160 216 160 174 124.5 c 128,-1,19
 132 89 132 89 132 23 c 0,20,21
 132 -34 132 -34 170.5 -71.5 c 128,-1,22
 209 -109 209 -109 266 -109 c 0,23,24
 299 -109 299 -109 328 -95.5 c 128,-1,25
 357 -82 357 -82 380 -59 c 0,26,27
 398 -41 398 -41 419 -41 c 0,28,29
 433 -41 433 -41 446 -50 c 0,30,31
 467 -65 467 -65 467 -88 c 0,32,33
 467 -104 467 -104 453 -120 c 0,34,35
 418 -159 418 -159 369.5 -181 c 128,-1,36
 321 -203 321 -203 266 -203 c 0,37,38
 202 -203 202 -203 149.5 -174 c 128,-1,39
 97 -145 97 -145 66.5 -93.5 c 128,-1,40
 36 -42 36 -42 36 23 c 0,41,42
 36 83 36 83 62 129.5 c 128,-1,43
 88 176 88 176 134 204.5 c 128,-1,44
 180 233 180 233 238 239 c 0,45,46
 240 239 240 239 239 239.5 c 128,-1,47
 238 240 238 240 236 239 c 2,48,-1
 236 305 l 2,49,50
 236 325 236 325 249.5 339 c 128,-1,51
 263 353 263 353 283 353 c 0,52,53
 304 353 304 353 317.5 339 c 128,-1,54
 331 325 331 325 331 305 c 2,55,-1
 331 211 l 2,56,15
 331 190 331 190 317.5 176 c 128,-1,16
EndSplineSet
EndChar

StartChar: quotedbl
Encoding: 34 34 599
Width: 410
Flags: W
LayerCount: 2
Fore
SplineSet
101 700 m 2,1,-1
 131 700 l 2,2,3
 148 700 148 700 157 692.5 c 128,-1,4
 166 685 166 685 166 671 c 0,5,6
 166 664 166 664 163 655 c 2,7,-1
 97 443 l 2,8,9
 87 415 87 415 61 415 c 0,10,11
 48 415 48 415 42 424 c 128,-1,12
 36 433 36 433 38 450 c 2,13,-1
 58 661 l 2,14,0
 63 700 63 700 101 700 c 2,1,-1
308 700 m 2,16,-1
 339 700 l 2,17,18
 355 700 355 700 364 692.5 c 128,-1,19
 373 685 373 685 373 671 c 0,20,21
 373 664 373 664 370 655 c 2,22,-1
 303 443 l 2,23,24
 294 415 294 415 267 415 c 0,25,26
 255 415 255 415 249.5 424.5 c 128,-1,27
 244 434 244 434 245 451 c 2,28,-1
 266 661 l 2,29,15
 269 700 269 700 308 700 c 2,16,-1
EndSplineSet
EndChar

StartChar: quotesingle
Encoding: 39 39 600
Width: 204
Flags: W
LayerCount: 2
Fore
SplineSet
101 700 m 2,1,-1
 132 700 l 2,2,3
 148 700 148 700 157 692.5 c 128,-1,4
 166 685 166 685 166 672 c 0,5,6
 166 664 166 664 163 655 c 2,7,-1
 97 443 l 2,8,9
 88 415 88 415 61 415 c 0,10,11
 48 415 48 415 42 424 c 128,-1,12
 36 433 36 433 38 450 c 2,13,-1
 58 661 l 2,14,0
 63 700 63 700 101 700 c 2,1,-1
EndSplineSet
EndChar

StartChar: semicolon
Encoding: 59 59 601
Width: 254
Flags: W
LayerCount: 2
Fore
SplineSet
99 415 m 128,-1,1
 86 428 86 428 86 453 c 2,2,-1
 86 471 l 2,3,4
 86 496 86 496 99 509 c 128,-1,5
 112 522 112 522 137 522 c 2,6,-1
 147 522 l 2,7,8
 171 522 171 522 184.5 509 c 128,-1,9
 198 496 198 496 198 471 c 2,10,-1
 198 453 l 2,11,12
 198 428 198 428 184.5 415 c 128,-1,13
 171 402 171 402 147 402 c 2,14,-1
 137 402 l 2,15,0
 112 402 112 402 99 415 c 128,-1,1
197 -51.5 m 128,-1,17
 181 -84 181 -84 156.5 -107 c 128,-1,18
 132 -130 132 -130 106 -130 c 0,19,20
 89 -130 89 -130 78 -121.5 c 128,-1,21
 67 -113 67 -113 67 -97 c 0,22,23
 67 -83 67 -83 74 -77.5 c 128,-1,24
 81 -72 81 -72 90.5 -69 c 128,-1,25
 100 -66 100 -66 105 -64 c 0,26,27
 119 -57 119 -57 126.5 -45.5 c 128,-1,28
 134 -34 134 -34 134 -20 c 0,29,30
 134 -9 134 -9 125 -1 c 128,-1,31
 116 7 116 7 102 7 c 0,32,33
 86 7 86 7 75 -1 c 1,34,35
 65 4 65 4 60 11.5 c 128,-1,36
 55 19 55 19 55 32 c 0,37,38
 56 56 56 56 81 74.5 c 128,-1,39
 106 93 106 93 134 93 c 0,40,41
 171 93 171 93 192 70 c 128,-1,42
 213 47 213 47 213 6 c 0,43,16
 213 -19 213 -19 197 -51.5 c 128,-1,17
EndSplineSet
EndChar

StartChar: slash
Encoding: 47 47 602
Width: 549
Flags: W
LayerCount: 2
Fore
SplineSet
34.5 -120 m 128,-1,1
 21 -108 21 -108 21 -91 c 0,2,3
 21 -83 21 -83 26 -71 c 2,4,-1
 445 773 l 2,5,6
 459 800 459 800 484 800 c 0,7,8
 499 800 499 800 512 788.5 c 128,-1,9
 525 777 525 777 525 760 c 0,10,11
 525 748 525 748 520 738 c 2,12,-1
 102 -106 l 2,13,14
 90 -132 90 -132 64 -132 c 0,15,0
 48 -132 48 -132 34.5 -120 c 128,-1,1
EndSplineSet
Substitution2: "'case' Case-Sensitive Forms lookup 14 subtable" slash.case
Substitution2: "'frac' Diagonal Fractions lookup 9 subtable" fraction
EndChar

StartChar: underscore
Encoding: 95 95 603
Width: 688
Flags: W
LayerCount: 2
Fore
SplineSet
64.5 -149 m 128,-1,1
 53 -138 53 -138 53 -121 c 0,2,3
 53 -105 53 -105 64.5 -94 c 128,-1,4
 76 -83 76 -83 93 -83 c 2,5,-1
 595 -83 l 2,6,7
 613 -83 613 -83 624 -94 c 128,-1,8
 635 -105 635 -105 635 -122 c 256,9,10
 635 -139 635 -139 624 -149.5 c 128,-1,11
 613 -160 613 -160 595 -160 c 2,12,-1
 93 -160 l 2,13,0
 76 -160 76 -160 64.5 -149 c 128,-1,1
EndSplineSet
EndChar

StartChar: braceleft
Encoding: 123 123 610
Width: 412
Flags: W
LayerCount: 2
Fore
SplineSet
378.5 -147 m 128,-1,1
 386 -157 386 -157 386 -168 c 0,2,3
 385 -182 385 -182 375.5 -191.5 c 128,-1,4
 366 -201 366 -201 353 -201 c 0,5,6
 344 -201 344 -201 340 -200 c 0,7,8
 267 -186 267 -186 226.5 -159.5 c 128,-1,9
 186 -133 186 -133 170.5 -96 c 128,-1,10
 155 -59 155 -59 155 -7 c 2,11,-1
 156 88 l 2,12,13
 156 146 156 146 130.5 179 c 128,-1,14
 105 212 105 212 57 213 c 2,15,-1
 53 213 l 2,16,17
 37 213 37 213 26 224 c 128,-1,18
 15 235 15 235 15 251 c 256,19,20
 15 267 15 267 26 277.5 c 128,-1,21
 37 288 37 288 53 288 c 2,22,-1
 59 288 l 2,23,24
 107 289 107 289 131.5 322 c 128,-1,25
 156 355 156 355 156 412 c 2,26,-1
 155 507 l 2,27,28
 155 588 155 588 197.5 633 c 128,-1,29
 240 678 240 678 339 700 c 0,30,31
 344 701 344 701 352 701 c 0,32,33
 369 701 369 701 377.5 691 c 128,-1,34
 386 681 386 681 386 666 c 0,35,36
 386 655 386 655 378.5 646 c 128,-1,37
 371 637 371 637 358 633 c 0,38,39
 310 617 310 617 285.5 599 c 128,-1,40
 261 581 261 581 252.5 557 c 128,-1,41
 244 533 244 533 244 494 c 2,42,-1
 245 399 l 2,43,44
 245 341 245 341 219.5 303 c 128,-1,45
 194 265 194 265 147 250 c 1,46,47
 194 234 194 234 219.5 196.5 c 128,-1,48
 245 159 245 159 245 102 c 2,49,-1
 244 7 l 2,50,51
 244 -33 244 -33 252.5 -56.5 c 128,-1,52
 261 -80 261 -80 285 -98 c 128,-1,53
 309 -116 309 -116 358 -132 c 0,54,0
 371 -137 371 -137 378.5 -147 c 128,-1,1
EndSplineSet
Substitution2: "'case' Case-Sensitive Forms lookup 14 subtable" braceleft.case
EndChar

